<?xml version="1.0" encoding="UTF-8"?>
<svg xmlns="http://www.w3.org/2000/svg" xmlns:xlink="http://www.w3.org/1999/xlink" width="1440pt" height="809.999993pt" viewBox="0 0 1440 809.999993" version="1.2">
<defs>
<clipPath id="clip1">
  <path d="M 567 187.394531 L 847 187.394531 L 847 622.394531 L 567 622.394531 Z M 567 187.394531 "/>
</clipPath>
</defs>
<g id="surface1">
<path style=" stroke:none;fill-rule:nonzero;fill:rgb(88.62915%,37.249756%,86.268616%);fill-opacity:1;" d="M 790.050781 512.707031 C 789.964844 517.316406 788.832031 521.753906 786.914062 525.929688 C 789.09375 530.714844 790.226562 535.757812 790.050781 540.976562 C 790.050781 540.976562 790.050781 541.0625 790.050781 541.0625 C 789.964844 545.675781 788.832031 550.109375 786.914062 554.285156 C 789.09375 559.070312 790.226562 564.113281 790.050781 569.332031 C 789.269531 597.863281 751.289062 620.652344 705.300781 620.132812 C 659.308594 619.609375 622.722656 596.035156 623.507812 567.507812 C 623.59375 562.898438 624.726562 558.460938 626.644531 554.285156 C 624.464844 549.5 623.335938 544.457031 623.507812 539.238281 C 623.507812 539.238281 623.507812 539.148438 623.507812 539.148438 C 623.59375 534.539062 624.726562 530.105469 626.644531 525.929688 C 624.464844 521.144531 623.335938 516.101562 623.507812 510.882812 C 623.683594 503.921875 626.121094 497.3125 630.300781 491.308594 C 630.914062 495.136719 631.957031 498.789062 633.875 502.09375 C 637.183594 507.664062 642.757812 511.402344 648.332031 514.445312 C 666.539062 524.449219 686.660156 528.539062 707.042969 528.363281 C 727.421875 528.539062 747.457031 524.449219 765.75 514.445312 C 771.410156 511.402344 776.984375 507.574219 780.207031 502.09375 C 782.039062 498.964844 783.082031 495.484375 783.691406 491.917969 C 787.960938 498.355469 790.226562 505.402344 790.050781 512.707031 Z M 790.050781 512.707031 "/>
<path style=" stroke:none;fill-rule:nonzero;fill:rgb(0%,76.858521%,79.998779%);fill-opacity:1;" d="M 843.621094 313.953125 C 843.621094 313.953125 843.621094 314.039062 843.621094 314.039062 C 843.445312 311.953125 843.273438 309.777344 843.011719 307.601562 C 833.777344 234.972656 771.238281 190.523438 707.042969 189.742188 C 642.757812 190.523438 580.21875 234.972656 571.070312 307.691406 C 570.808594 309.863281 570.636719 312.039062 570.460938 314.125 C 570.460938 314.125 570.460938 314.039062 570.460938 314.039062 C 570.460938 314.039062 570.460938 314.125 570.460938 314.125 C 570.460938 314.125 570.460938 314.214844 570.460938 314.214844 C 570.460938 314.214844 570.460938 314.214844 570.460938 314.300781 C 570.460938 314.300781 570.460938 314.300781 570.460938 314.214844 C 570.460938 314.214844 570.460938 314.300781 570.460938 314.300781 C 570.460938 314.300781 570.460938 314.300781 570.460938 314.386719 C 566.28125 378.582031 622.113281 420.070312 629.171875 482.003906 C 629.953125 488.960938 630.390625 496.355469 633.960938 502.355469 C 637.269531 507.921875 642.84375 511.664062 648.421875 514.707031 C 666.625 524.710938 686.746094 528.800781 707.128906 528.625 C 727.511719 528.800781 747.542969 524.710938 765.835938 514.707031 C 771.5 511.664062 777.074219 507.835938 780.296875 502.355469 C 783.867188 496.269531 784.300781 488.960938 785.085938 482.003906 C 792.054688 420.070312 847.890625 378.667969 843.792969 314.386719 C 843.792969 314.386719 843.792969 314.386719 843.792969 314.300781 C 843.792969 314.300781 843.792969 314.214844 843.792969 314.214844 C 843.792969 314.214844 843.792969 314.214844 843.792969 314.300781 C 843.792969 314.300781 843.792969 314.300781 843.792969 314.214844 C 843.621094 314.039062 843.621094 314.039062 843.621094 313.953125 M 570.460938 313.953125 C 570.460938 314.039062 570.460938 314.039062 570.460938 314.125 C 570.460938 314.039062 570.460938 313.953125 570.460938 313.867188 C 570.460938 313.867188 570.460938 313.867188 570.460938 313.953125 Z M 570.460938 313.605469 C 570.460938 313.515625 570.460938 313.515625 570.460938 313.429688 "/>
<path style=" stroke:none;fill-rule:nonzero;fill:rgb(7.839966%,23.529053%,23.529053%);fill-opacity:1;" d="M 608.789062 230.1875 C 609.308594 229.667969 609.832031 229.144531 610.441406 228.621094 L 608.789062 228.621094 Z M 608.789062 230.1875 "/>
<path style=" stroke:none;fill-rule:nonzero;fill:rgb(7.839966%,23.529053%,23.529053%);fill-opacity:1;" d="M 742.40625 194.699219 C 742.929688 194.875 743.363281 194.960938 743.886719 195.132812 L 743.886719 194.699219 Z M 742.40625 194.699219 "/>
<path style=" stroke:none;fill-rule:nonzero;fill:rgb(7.839966%,23.529053%,23.529053%);fill-opacity:1;" d="M 828.8125 378.492188 C 828.464844 379.1875 828.203125 379.796875 827.855469 380.492188 L 828.8125 380.492188 Z M 828.8125 378.492188 "/>
<path style=" stroke:none;fill-rule:nonzero;fill:rgb(7.839966%,23.529053%,23.529053%);fill-opacity:1;" d="M 676.03125 193.480469 C 675.335938 193.65625 674.636719 193.828125 674.027344 194.003906 L 676.03125 194.003906 Z M 676.03125 193.480469 "/>
<path style=" stroke:none;fill-rule:nonzero;fill:rgb(7.839966%,23.529053%,23.529053%);fill-opacity:1;" d="M 795.539062 241.667969 L 794.84375 241.667969 L 794.84375 244.886719 L 791.621094 244.886719 L 791.621094 245.585938 L 794.84375 245.585938 L 794.84375 248.714844 L 795.539062 248.714844 L 795.539062 245.585938 L 798.761719 245.585938 L 798.761719 244.886719 L 795.539062 244.886719 Z M 795.539062 241.667969 "/>
<path style=" stroke:none;fill-rule:nonzero;fill:rgb(7.839966%,23.529053%,23.529053%);fill-opacity:1;" d="M 812.523438 258.632812 L 811.828125 258.632812 L 811.828125 261.761719 L 808.605469 261.761719 L 808.605469 262.546875 L 811.828125 262.546875 L 811.828125 265.675781 L 812.523438 265.675781 L 812.523438 262.546875 L 815.660156 262.546875 L 815.660156 261.761719 L 812.523438 261.761719 Z M 812.523438 258.632812 "/>
<path style=" stroke:none;fill-rule:nonzero;fill:rgb(7.839966%,23.529053%,23.529053%);fill-opacity:1;" d="M 829.511719 275.59375 L 828.8125 275.59375 L 828.8125 278.722656 L 825.589844 278.722656 L 825.589844 279.421875 L 828.8125 279.421875 L 828.8125 282.636719 L 829.511719 282.636719 L 829.511719 279.421875 L 832.644531 279.421875 L 832.644531 278.722656 L 829.511719 278.722656 Z M 829.511719 275.59375 "/>
<path style=" stroke:none;fill-rule:nonzero;fill:rgb(7.839966%,23.529053%,23.529053%);fill-opacity:1;" d="M 795.539062 275.59375 L 794.84375 275.59375 L 794.84375 278.722656 L 791.621094 278.722656 L 791.621094 279.421875 L 794.84375 279.421875 L 794.84375 282.636719 L 795.539062 282.636719 L 795.539062 279.421875 L 798.761719 279.421875 L 798.761719 278.722656 L 795.539062 278.722656 Z M 795.539062 275.59375 "/>
<path style=" stroke:none;fill-rule:nonzero;fill:rgb(7.839966%,23.529053%,23.529053%);fill-opacity:1;" d="M 812.523438 292.554688 L 811.828125 292.554688 L 811.828125 295.6875 L 808.605469 295.6875 L 808.605469 296.382812 L 811.828125 296.382812 L 811.828125 299.601562 L 812.523438 299.601562 L 812.523438 296.382812 L 815.660156 296.382812 L 815.660156 295.6875 L 812.523438 295.6875 Z M 812.523438 292.554688 "/>
<path style=" stroke:none;fill-rule:nonzero;fill:rgb(7.839966%,23.529053%,23.529053%);fill-opacity:1;" d="M 829.511719 309.515625 L 828.8125 309.515625 L 828.8125 312.648438 L 825.589844 312.648438 L 825.589844 313.34375 L 828.8125 313.34375 L 828.8125 316.5625 L 829.511719 316.5625 L 829.511719 313.34375 L 832.644531 313.34375 L 832.644531 312.648438 L 829.511719 312.648438 Z M 829.511719 309.515625 "/>
<path style=" stroke:none;fill-rule:nonzero;fill:rgb(7.839966%,23.529053%,23.529053%);fill-opacity:1;" d="M 795.539062 309.515625 L 794.84375 309.515625 L 794.84375 312.648438 L 791.621094 312.648438 L 791.621094 313.34375 L 794.84375 313.34375 L 794.84375 316.5625 L 795.539062 316.5625 L 795.539062 313.34375 L 798.761719 313.34375 L 798.761719 312.648438 L 795.539062 312.648438 Z M 795.539062 309.515625 "/>
<path style=" stroke:none;fill-rule:nonzero;fill:rgb(7.839966%,23.529053%,23.529053%);fill-opacity:1;" d="M 842.574219 329.609375 L 842.574219 330.304688 L 843.183594 330.304688 C 843.183594 330.042969 843.183594 329.871094 843.273438 329.609375 Z M 842.574219 329.609375 "/>
<path style=" stroke:none;fill-rule:nonzero;fill:rgb(7.839966%,23.529053%,23.529053%);fill-opacity:1;" d="M 812.523438 326.476562 L 811.828125 326.476562 L 811.828125 329.609375 L 808.605469 329.609375 L 808.605469 330.304688 L 811.828125 330.304688 L 811.828125 333.523438 L 812.523438 333.523438 L 812.523438 330.304688 L 815.660156 330.304688 L 815.660156 329.609375 L 812.523438 329.609375 Z M 812.523438 326.476562 "/>
<path style=" stroke:none;fill-rule:nonzero;fill:rgb(7.839966%,23.529053%,23.529053%);fill-opacity:1;" d="M 829.511719 343.351562 L 828.8125 343.351562 L 828.8125 346.570312 L 825.589844 346.570312 L 825.589844 347.265625 L 828.8125 347.265625 L 828.8125 350.484375 L 829.511719 350.484375 L 829.511719 347.265625 L 832.644531 347.265625 L 832.644531 346.570312 L 829.511719 346.570312 Z M 829.511719 343.351562 "/>
<path style=" stroke:none;fill-rule:nonzero;fill:rgb(7.839966%,23.529053%,23.529053%);fill-opacity:1;" d="M 795.539062 343.351562 L 794.84375 343.351562 L 794.84375 346.570312 L 791.621094 346.570312 L 791.621094 347.265625 L 794.84375 347.265625 L 794.84375 350.484375 L 795.539062 350.484375 L 795.539062 347.265625 L 798.761719 347.265625 L 798.761719 346.570312 L 795.539062 346.570312 Z M 795.539062 343.351562 "/>
<path style=" stroke:none;fill-rule:nonzero;fill:rgb(7.839966%,23.529053%,23.529053%);fill-opacity:1;" d="M 812.523438 360.3125 L 811.828125 360.3125 L 811.828125 363.53125 L 808.605469 363.53125 L 808.605469 364.226562 L 811.828125 364.226562 L 811.828125 367.445312 L 812.523438 367.445312 L 812.523438 364.226562 L 815.660156 364.226562 L 815.660156 363.53125 L 812.523438 363.53125 Z M 812.523438 360.3125 "/>
<path style=" stroke:none;fill-rule:nonzero;fill:rgb(7.839966%,23.529053%,23.529053%);fill-opacity:1;" d="M 825.589844 380.492188 L 825.589844 381.191406 L 827.507812 381.191406 C 827.59375 380.929688 827.769531 380.753906 827.855469 380.492188 Z M 825.589844 380.492188 "/>
<path style=" stroke:none;fill-rule:nonzero;fill:rgb(7.839966%,23.529053%,23.529053%);fill-opacity:1;" d="M 828.8125 378.492188 C 828.988281 378.058594 829.160156 377.710938 829.335938 377.277344 L 828.8125 377.277344 Z M 828.8125 378.492188 "/>
<path style=" stroke:none;fill-rule:nonzero;fill:rgb(7.839966%,23.529053%,23.529053%);fill-opacity:1;" d="M 795.539062 377.277344 L 794.84375 377.277344 L 794.84375 380.492188 L 791.621094 380.492188 L 791.621094 381.191406 L 794.84375 381.191406 L 794.84375 384.320312 L 795.539062 384.320312 L 795.539062 381.191406 L 798.761719 381.191406 L 798.761719 380.492188 L 795.539062 380.492188 Z M 795.539062 377.277344 "/>
<path style=" stroke:none;fill-rule:nonzero;fill:rgb(7.839966%,23.529053%,23.529053%);fill-opacity:1;" d="M 812.523438 394.238281 L 811.828125 394.238281 L 811.828125 397.457031 L 808.605469 397.457031 L 808.605469 398.152344 L 811.828125 398.152344 L 811.828125 401.28125 L 812.523438 401.28125 L 812.523438 398.152344 L 815.660156 398.152344 L 815.660156 397.457031 L 812.523438 397.457031 Z M 812.523438 394.238281 "/>
<path style=" stroke:none;fill-rule:nonzero;fill:rgb(7.839966%,23.529053%,23.529053%);fill-opacity:1;" d="M 795.539062 411.199219 L 794.84375 411.199219 L 794.84375 414.417969 L 791.621094 414.417969 L 791.621094 415.113281 L 794.84375 415.113281 L 794.84375 418.246094 L 795.539062 418.246094 L 795.539062 415.113281 L 798.761719 415.113281 L 798.761719 414.417969 L 795.539062 414.417969 Z M 795.539062 411.199219 "/>
<path style=" stroke:none;fill-rule:nonzero;fill:rgb(7.839966%,23.529053%,23.529053%);fill-opacity:1;" d="M 791.621094 448.949219 L 793.011719 448.949219 C 793.101562 448.6875 793.1875 448.515625 793.273438 448.253906 L 791.621094 448.253906 Z M 791.621094 448.949219 "/>
<path style=" stroke:none;fill-rule:nonzero;fill:rgb(7.839966%,23.529053%,23.529053%);fill-opacity:1;" d="M 742.40625 194.699219 C 741.882812 194.523438 741.273438 194.4375 740.664062 194.265625 L 740.664062 194.699219 Z M 742.40625 194.699219 "/>
<path style=" stroke:none;fill-rule:nonzero;fill:rgb(7.839966%,23.529053%,23.529053%);fill-opacity:1;" d="M 743.886719 197.917969 L 744.582031 197.917969 L 744.582031 195.308594 C 744.320312 195.222656 744.148438 195.132812 743.886719 195.132812 Z M 743.886719 197.917969 "/>
<path style=" stroke:none;fill-rule:nonzero;fill:rgb(7.839966%,23.529053%,23.529053%);fill-opacity:1;" d="M 710.699219 190.785156 L 709.914062 190.785156 L 709.914062 194.003906 L 706.78125 194.003906 L 706.78125 194.699219 L 709.914062 194.699219 L 709.914062 197.917969 L 710.699219 197.917969 L 710.699219 194.699219 L 713.835938 194.699219 L 713.835938 194.003906 L 710.699219 194.003906 Z M 710.699219 190.785156 "/>
<path style=" stroke:none;fill-rule:nonzero;fill:rgb(7.839966%,23.529053%,23.529053%);fill-opacity:1;" d="M 672.808594 194.003906 L 672.808594 194.265625 C 673.15625 194.175781 673.59375 194.089844 673.941406 194.003906 Z M 672.808594 194.003906 "/>
<path style=" stroke:none;fill-rule:nonzero;fill:rgb(7.839966%,23.529053%,23.529053%);fill-opacity:1;" d="M 676.03125 194.699219 L 676.03125 197.917969 L 676.730469 197.917969 L 676.730469 194.699219 L 679.953125 194.699219 L 679.953125 194.003906 L 676.730469 194.003906 L 676.730469 193.308594 C 676.46875 193.394531 676.292969 193.394531 676.03125 193.480469 L 676.03125 194.003906 L 674.027344 194.003906 C 673.679688 194.089844 673.246094 194.175781 672.894531 194.265625 L 672.894531 194.699219 Z M 676.03125 194.699219 "/>
<path style=" stroke:none;fill-rule:nonzero;fill:rgb(7.839966%,23.529053%,23.529053%);fill-opacity:1;" d="M 761.570312 207.746094 L 760.871094 207.746094 L 760.871094 210.964844 L 757.734375 210.964844 L 757.734375 211.660156 L 760.871094 211.660156 L 760.871094 214.792969 L 761.570312 214.792969 L 761.570312 211.660156 L 764.792969 211.660156 L 764.792969 210.964844 L 761.570312 210.964844 Z M 761.570312 207.746094 "/>
<path style=" stroke:none;fill-rule:nonzero;fill:rgb(7.839966%,23.529053%,23.529053%);fill-opacity:1;" d="M 727.597656 207.746094 L 726.902344 207.746094 L 726.902344 210.964844 L 723.765625 210.964844 L 723.765625 211.660156 L 726.902344 211.660156 L 726.902344 214.792969 L 727.597656 214.792969 L 727.597656 211.660156 L 730.820312 211.660156 L 730.820312 210.964844 L 727.597656 210.964844 Z M 727.597656 207.746094 "/>
<path style=" stroke:none;fill-rule:nonzero;fill:rgb(7.839966%,23.529053%,23.529053%);fill-opacity:1;" d="M 693.714844 207.746094 L 693.015625 207.746094 L 693.015625 210.964844 L 689.792969 210.964844 L 689.792969 211.660156 L 693.015625 211.660156 L 693.015625 214.792969 L 693.714844 214.792969 L 693.714844 211.660156 L 696.851562 211.660156 L 696.851562 210.964844 L 693.714844 210.964844 Z M 693.714844 207.746094 "/>
<path style=" stroke:none;fill-rule:nonzero;fill:rgb(7.839966%,23.529053%,23.529053%);fill-opacity:1;" d="M 659.742188 207.746094 L 659.046875 207.746094 L 659.046875 210.964844 L 655.824219 210.964844 L 655.824219 211.660156 L 659.046875 211.660156 L 659.046875 214.792969 L 659.742188 214.792969 L 659.742188 211.660156 L 662.878906 211.660156 L 662.878906 210.964844 L 659.742188 210.964844 Z M 659.742188 207.746094 "/>
<path style=" stroke:none;fill-rule:nonzero;fill:rgb(7.839966%,23.529053%,23.529053%);fill-opacity:1;" d="M 778.554688 224.707031 L 777.855469 224.707031 L 777.855469 227.925781 L 774.632812 227.925781 L 774.632812 228.621094 L 777.855469 228.621094 L 777.855469 231.753906 L 778.554688 231.753906 L 778.554688 228.621094 L 781.777344 228.621094 L 781.777344 227.925781 L 778.554688 227.925781 Z M 778.554688 224.707031 "/>
<path style=" stroke:none;fill-rule:nonzero;fill:rgb(7.839966%,23.529053%,23.529053%);fill-opacity:1;" d="M 744.582031 224.707031 L 743.886719 224.707031 L 743.886719 227.925781 L 740.75 227.925781 L 740.75 228.621094 L 743.886719 228.621094 L 743.886719 231.753906 L 744.582031 231.753906 L 744.582031 228.621094 L 747.804688 228.621094 L 747.804688 227.925781 L 744.582031 227.925781 Z M 744.582031 224.707031 "/>
<path style=" stroke:none;fill-rule:nonzero;fill:rgb(7.839966%,23.529053%,23.529053%);fill-opacity:1;" d="M 710.699219 224.707031 L 709.914062 224.707031 L 709.914062 227.925781 L 706.78125 227.925781 L 706.78125 228.621094 L 709.914062 228.621094 L 709.914062 231.753906 L 710.699219 231.753906 L 710.699219 228.621094 L 713.835938 228.621094 L 713.835938 227.925781 L 710.699219 227.925781 Z M 710.699219 224.707031 "/>
<path style=" stroke:none;fill-rule:nonzero;fill:rgb(7.839966%,23.529053%,23.529053%);fill-opacity:1;" d="M 676.730469 224.707031 L 676.03125 224.707031 L 676.03125 227.925781 L 672.808594 227.925781 L 672.808594 228.621094 L 676.03125 228.621094 L 676.03125 231.753906 L 676.730469 231.753906 L 676.730469 228.621094 L 679.863281 228.621094 L 679.863281 227.925781 L 676.730469 227.925781 Z M 676.730469 224.707031 "/>
<path style=" stroke:none;fill-rule:nonzero;fill:rgb(7.839966%,23.529053%,23.529053%);fill-opacity:1;" d="M 761.570312 241.667969 L 760.871094 241.667969 L 760.871094 244.886719 L 757.734375 244.886719 L 757.734375 245.585938 L 760.871094 245.585938 L 760.871094 248.714844 L 761.570312 248.714844 L 761.570312 245.585938 L 764.792969 245.585938 L 764.792969 244.886719 L 761.570312 244.886719 Z M 761.570312 241.667969 "/>
<path style=" stroke:none;fill-rule:nonzero;fill:rgb(7.839966%,23.529053%,23.529053%);fill-opacity:1;" d="M 727.597656 241.667969 L 726.902344 241.667969 L 726.902344 244.886719 L 723.765625 244.886719 L 723.765625 245.585938 L 726.902344 245.585938 L 726.902344 248.714844 L 727.597656 248.714844 L 727.597656 245.585938 L 730.820312 245.585938 L 730.820312 244.886719 L 727.597656 244.886719 Z M 727.597656 241.667969 "/>
<path style=" stroke:none;fill-rule:nonzero;fill:rgb(7.839966%,23.529053%,23.529053%);fill-opacity:1;" d="M 693.714844 241.667969 L 693.015625 241.667969 L 693.015625 244.886719 L 689.792969 244.886719 L 689.792969 245.585938 L 693.015625 245.585938 L 693.015625 248.714844 L 693.714844 248.714844 L 693.714844 245.585938 L 696.851562 245.585938 L 696.851562 244.886719 L 693.714844 244.886719 Z M 693.714844 241.667969 "/>
<path style=" stroke:none;fill-rule:nonzero;fill:rgb(7.839966%,23.529053%,23.529053%);fill-opacity:1;" d="M 659.742188 241.667969 L 659.046875 241.667969 L 659.046875 244.886719 L 655.824219 244.886719 L 655.824219 245.585938 L 659.046875 245.585938 L 659.046875 248.714844 L 659.742188 248.714844 L 659.742188 245.585938 L 662.878906 245.585938 L 662.878906 244.886719 L 659.742188 244.886719 Z M 659.742188 241.667969 "/>
<path style=" stroke:none;fill-rule:nonzero;fill:rgb(7.839966%,23.529053%,23.529053%);fill-opacity:1;" d="M 778.554688 258.632812 L 777.855469 258.632812 L 777.855469 261.761719 L 774.632812 261.761719 L 774.632812 262.546875 L 777.855469 262.546875 L 777.855469 265.675781 L 778.554688 265.675781 L 778.554688 262.546875 L 781.777344 262.546875 L 781.777344 261.761719 L 778.554688 261.761719 Z M 778.554688 258.632812 "/>
<path style=" stroke:none;fill-rule:nonzero;fill:rgb(7.839966%,23.529053%,23.529053%);fill-opacity:1;" d="M 744.582031 258.632812 L 743.886719 258.632812 L 743.886719 261.761719 L 740.75 261.761719 L 740.75 262.546875 L 743.886719 262.546875 L 743.886719 265.675781 L 744.582031 265.675781 L 744.582031 262.546875 L 747.804688 262.546875 L 747.804688 261.761719 L 744.582031 261.761719 Z M 744.582031 258.632812 "/>
<path style=" stroke:none;fill-rule:nonzero;fill:rgb(7.839966%,23.529053%,23.529053%);fill-opacity:1;" d="M 710.699219 258.632812 L 709.914062 258.632812 L 709.914062 261.761719 L 706.78125 261.761719 L 706.78125 262.546875 L 709.914062 262.546875 L 709.914062 265.675781 L 710.699219 265.675781 L 710.699219 262.546875 L 713.835938 262.546875 L 713.835938 261.761719 L 710.699219 261.761719 Z M 710.699219 258.632812 "/>
<path style=" stroke:none;fill-rule:nonzero;fill:rgb(7.839966%,23.529053%,23.529053%);fill-opacity:1;" d="M 676.730469 258.632812 L 676.03125 258.632812 L 676.03125 261.761719 L 672.808594 261.761719 L 672.808594 262.546875 L 676.03125 262.546875 L 676.03125 265.675781 L 676.730469 265.675781 L 676.730469 262.546875 L 679.863281 262.546875 L 679.863281 261.761719 L 676.730469 261.761719 Z M 676.730469 258.632812 "/>
<path style=" stroke:none;fill-rule:nonzero;fill:rgb(7.839966%,23.529053%,23.529053%);fill-opacity:1;" d="M 761.570312 275.59375 L 760.871094 275.59375 L 760.871094 278.722656 L 757.734375 278.722656 L 757.734375 279.421875 L 760.871094 279.421875 L 760.871094 282.636719 L 761.570312 282.636719 L 761.570312 279.421875 L 764.792969 279.421875 L 764.792969 278.722656 L 761.570312 278.722656 Z M 761.570312 275.59375 "/>
<path style=" stroke:none;fill-rule:nonzero;fill:rgb(7.839966%,23.529053%,23.529053%);fill-opacity:1;" d="M 727.597656 275.59375 L 726.902344 275.59375 L 726.902344 278.722656 L 723.765625 278.722656 L 723.765625 279.421875 L 726.902344 279.421875 L 726.902344 282.636719 L 727.597656 282.636719 L 727.597656 279.421875 L 730.820312 279.421875 L 730.820312 278.722656 L 727.597656 278.722656 Z M 727.597656 275.59375 "/>
<path style=" stroke:none;fill-rule:nonzero;fill:rgb(7.839966%,23.529053%,23.529053%);fill-opacity:1;" d="M 693.714844 275.59375 L 693.015625 275.59375 L 693.015625 278.722656 L 689.792969 278.722656 L 689.792969 279.421875 L 693.015625 279.421875 L 693.015625 282.636719 L 693.714844 282.636719 L 693.714844 279.421875 L 696.851562 279.421875 L 696.851562 278.722656 L 693.714844 278.722656 Z M 693.714844 275.59375 "/>
<path style=" stroke:none;fill-rule:nonzero;fill:rgb(7.839966%,23.529053%,23.529053%);fill-opacity:1;" d="M 659.742188 275.59375 L 659.046875 275.59375 L 659.046875 278.722656 L 655.824219 278.722656 L 655.824219 279.421875 L 659.046875 279.421875 L 659.046875 282.636719 L 659.742188 282.636719 L 659.742188 279.421875 L 662.878906 279.421875 L 662.878906 278.722656 L 659.742188 278.722656 Z M 659.742188 275.59375 "/>
<path style=" stroke:none;fill-rule:nonzero;fill:rgb(7.839966%,23.529053%,23.529053%);fill-opacity:1;" d="M 778.554688 292.554688 L 777.855469 292.554688 L 777.855469 295.6875 L 774.632812 295.6875 L 774.632812 296.382812 L 777.855469 296.382812 L 777.855469 299.601562 L 778.554688 299.601562 L 778.554688 296.382812 L 781.777344 296.382812 L 781.777344 295.6875 L 778.554688 295.6875 Z M 778.554688 292.554688 "/>
<path style=" stroke:none;fill-rule:nonzero;fill:rgb(7.839966%,23.529053%,23.529053%);fill-opacity:1;" d="M 744.582031 292.554688 L 743.886719 292.554688 L 743.886719 295.6875 L 740.75 295.6875 L 740.75 296.382812 L 743.886719 296.382812 L 743.886719 299.601562 L 744.582031 299.601562 L 744.582031 296.382812 L 747.804688 296.382812 L 747.804688 295.6875 L 744.582031 295.6875 Z M 744.582031 292.554688 "/>
<path style=" stroke:none;fill-rule:nonzero;fill:rgb(7.839966%,23.529053%,23.529053%);fill-opacity:1;" d="M 710.699219 292.554688 L 709.914062 292.554688 L 709.914062 295.6875 L 706.78125 295.6875 L 706.78125 296.382812 L 709.914062 296.382812 L 709.914062 299.601562 L 710.699219 299.601562 L 710.699219 296.382812 L 713.835938 296.382812 L 713.835938 295.6875 L 710.699219 295.6875 Z M 710.699219 292.554688 "/>
<path style=" stroke:none;fill-rule:nonzero;fill:rgb(7.839966%,23.529053%,23.529053%);fill-opacity:1;" d="M 676.730469 292.554688 L 676.03125 292.554688 L 676.03125 295.6875 L 672.808594 295.6875 L 672.808594 296.382812 L 676.03125 296.382812 L 676.03125 299.601562 L 676.730469 299.601562 L 676.730469 296.382812 L 679.863281 296.382812 L 679.863281 295.6875 L 676.730469 295.6875 Z M 676.730469 292.554688 "/>
<path style=" stroke:none;fill-rule:nonzero;fill:rgb(7.839966%,23.529053%,23.529053%);fill-opacity:1;" d="M 761.570312 309.515625 L 760.871094 309.515625 L 760.871094 312.648438 L 757.734375 312.648438 L 757.734375 313.34375 L 760.871094 313.34375 L 760.871094 316.5625 L 761.570312 316.5625 L 761.570312 313.34375 L 764.792969 313.34375 L 764.792969 312.648438 L 761.570312 312.648438 Z M 761.570312 309.515625 "/>
<path style=" stroke:none;fill-rule:nonzero;fill:rgb(7.839966%,23.529053%,23.529053%);fill-opacity:1;" d="M 727.597656 309.515625 L 726.902344 309.515625 L 726.902344 312.648438 L 723.765625 312.648438 L 723.765625 313.34375 L 726.902344 313.34375 L 726.902344 316.5625 L 727.597656 316.5625 L 727.597656 313.34375 L 730.820312 313.34375 L 730.820312 312.648438 L 727.597656 312.648438 Z M 727.597656 309.515625 "/>
<path style=" stroke:none;fill-rule:nonzero;fill:rgb(7.839966%,23.529053%,23.529053%);fill-opacity:1;" d="M 693.714844 309.515625 L 693.015625 309.515625 L 693.015625 312.648438 L 689.792969 312.648438 L 689.792969 313.34375 L 693.015625 313.34375 L 693.015625 316.5625 L 693.714844 316.5625 L 693.714844 313.34375 L 696.851562 313.34375 L 696.851562 312.648438 L 693.714844 312.648438 Z M 693.714844 309.515625 "/>
<path style=" stroke:none;fill-rule:nonzero;fill:rgb(7.839966%,23.529053%,23.529053%);fill-opacity:1;" d="M 659.742188 309.515625 L 659.046875 309.515625 L 659.046875 312.648438 L 655.824219 312.648438 L 655.824219 313.34375 L 659.046875 313.34375 L 659.046875 316.5625 L 659.742188 316.5625 L 659.742188 313.34375 L 662.878906 313.34375 L 662.878906 312.648438 L 659.742188 312.648438 Z M 659.742188 309.515625 "/>
<path style=" stroke:none;fill-rule:nonzero;fill:rgb(7.839966%,23.529053%,23.529053%);fill-opacity:1;" d="M 778.554688 326.476562 L 777.855469 326.476562 L 777.855469 329.609375 L 774.632812 329.609375 L 774.632812 330.304688 L 777.855469 330.304688 L 777.855469 333.523438 L 778.554688 333.523438 L 778.554688 330.304688 L 781.777344 330.304688 L 781.777344 329.609375 L 778.554688 329.609375 Z M 778.554688 326.476562 "/>
<path style=" stroke:none;fill-rule:nonzero;fill:rgb(7.839966%,23.529053%,23.529053%);fill-opacity:1;" d="M 744.582031 326.476562 L 743.886719 326.476562 L 743.886719 329.609375 L 740.75 329.609375 L 740.75 330.304688 L 743.886719 330.304688 L 743.886719 333.523438 L 744.582031 333.523438 L 744.582031 330.304688 L 747.804688 330.304688 L 747.804688 329.609375 L 744.582031 329.609375 Z M 744.582031 326.476562 "/>
<path style=" stroke:none;fill-rule:nonzero;fill:rgb(7.839966%,23.529053%,23.529053%);fill-opacity:1;" d="M 710.699219 326.476562 L 709.914062 326.476562 L 709.914062 329.609375 L 706.78125 329.609375 L 706.78125 330.304688 L 709.914062 330.304688 L 709.914062 333.523438 L 710.699219 333.523438 L 710.699219 330.304688 L 713.835938 330.304688 L 713.835938 329.609375 L 710.699219 329.609375 Z M 710.699219 326.476562 "/>
<path style=" stroke:none;fill-rule:nonzero;fill:rgb(7.839966%,23.529053%,23.529053%);fill-opacity:1;" d="M 676.730469 326.476562 L 676.03125 326.476562 L 676.03125 329.609375 L 672.808594 329.609375 L 672.808594 330.304688 L 676.03125 330.304688 L 676.03125 333.523438 L 676.730469 333.523438 L 676.730469 330.304688 L 679.863281 330.304688 L 679.863281 329.609375 L 676.730469 329.609375 Z M 676.730469 326.476562 "/>
<path style=" stroke:none;fill-rule:nonzero;fill:rgb(7.839966%,23.529053%,23.529053%);fill-opacity:1;" d="M 761.570312 343.351562 L 760.871094 343.351562 L 760.871094 346.570312 L 757.734375 346.570312 L 757.734375 347.265625 L 760.871094 347.265625 L 760.871094 350.484375 L 761.570312 350.484375 L 761.570312 347.265625 L 764.792969 347.265625 L 764.792969 346.570312 L 761.570312 346.570312 Z M 761.570312 343.351562 "/>
<path style=" stroke:none;fill-rule:nonzero;fill:rgb(7.839966%,23.529053%,23.529053%);fill-opacity:1;" d="M 727.597656 343.351562 L 726.902344 343.351562 L 726.902344 346.570312 L 723.765625 346.570312 L 723.765625 347.265625 L 726.902344 347.265625 L 726.902344 350.484375 L 727.597656 350.484375 L 727.597656 347.265625 L 730.820312 347.265625 L 730.820312 346.570312 L 727.597656 346.570312 Z M 727.597656 343.351562 "/>
<path style=" stroke:none;fill-rule:nonzero;fill:rgb(7.839966%,23.529053%,23.529053%);fill-opacity:1;" d="M 693.714844 343.351562 L 693.015625 343.351562 L 693.015625 346.570312 L 689.792969 346.570312 L 689.792969 347.265625 L 693.015625 347.265625 L 693.015625 350.484375 L 693.714844 350.484375 L 693.714844 347.265625 L 696.851562 347.265625 L 696.851562 346.570312 L 693.714844 346.570312 Z M 693.714844 343.351562 "/>
<path style=" stroke:none;fill-rule:nonzero;fill:rgb(7.839966%,23.529053%,23.529053%);fill-opacity:1;" d="M 659.742188 343.351562 L 659.046875 343.351562 L 659.046875 346.570312 L 655.824219 346.570312 L 655.824219 347.265625 L 659.046875 347.265625 L 659.046875 350.484375 L 659.742188 350.484375 L 659.742188 347.265625 L 662.878906 347.265625 L 662.878906 346.570312 L 659.742188 346.570312 Z M 659.742188 343.351562 "/>
<path style=" stroke:none;fill-rule:nonzero;fill:rgb(7.839966%,23.529053%,23.529053%);fill-opacity:1;" d="M 778.554688 360.3125 L 777.855469 360.3125 L 777.855469 363.53125 L 774.632812 363.53125 L 774.632812 364.226562 L 777.855469 364.226562 L 777.855469 367.445312 L 778.554688 367.445312 L 778.554688 364.226562 L 781.777344 364.226562 L 781.777344 363.53125 L 778.554688 363.53125 Z M 778.554688 360.3125 "/>
<path style=" stroke:none;fill-rule:nonzero;fill:rgb(7.839966%,23.529053%,23.529053%);fill-opacity:1;" d="M 744.582031 360.3125 L 743.886719 360.3125 L 743.886719 363.53125 L 740.75 363.53125 L 740.75 364.226562 L 743.886719 364.226562 L 743.886719 367.445312 L 744.582031 367.445312 L 744.582031 364.226562 L 747.804688 364.226562 L 747.804688 363.53125 L 744.582031 363.53125 Z M 744.582031 360.3125 "/>
<path style=" stroke:none;fill-rule:nonzero;fill:rgb(7.839966%,23.529053%,23.529053%);fill-opacity:1;" d="M 710.699219 360.3125 L 709.914062 360.3125 L 709.914062 363.53125 L 706.78125 363.53125 L 706.78125 364.226562 L 709.914062 364.226562 L 709.914062 367.445312 L 710.699219 367.445312 L 710.699219 364.226562 L 713.835938 364.226562 L 713.835938 363.53125 L 710.699219 363.53125 Z M 710.699219 360.3125 "/>
<path style=" stroke:none;fill-rule:nonzero;fill:rgb(7.839966%,23.529053%,23.529053%);fill-opacity:1;" d="M 676.730469 360.3125 L 676.03125 360.3125 L 676.03125 363.53125 L 672.808594 363.53125 L 672.808594 364.226562 L 676.03125 364.226562 L 676.03125 367.445312 L 676.730469 367.445312 L 676.730469 364.226562 L 679.863281 364.226562 L 679.863281 363.53125 L 676.730469 363.53125 Z M 676.730469 360.3125 "/>
<path style=" stroke:none;fill-rule:nonzero;fill:rgb(7.839966%,23.529053%,23.529053%);fill-opacity:1;" d="M 761.570312 377.277344 L 760.871094 377.277344 L 760.871094 380.492188 L 757.734375 380.492188 L 757.734375 381.191406 L 760.871094 381.191406 L 760.871094 384.320312 L 761.570312 384.320312 L 761.570312 381.191406 L 764.792969 381.191406 L 764.792969 380.492188 L 761.570312 380.492188 Z M 761.570312 377.277344 "/>
<path style=" stroke:none;fill-rule:nonzero;fill:rgb(7.839966%,23.529053%,23.529053%);fill-opacity:1;" d="M 727.597656 377.277344 L 726.902344 377.277344 L 726.902344 380.492188 L 723.765625 380.492188 L 723.765625 381.191406 L 726.902344 381.191406 L 726.902344 384.320312 L 727.597656 384.320312 L 727.597656 381.191406 L 730.820312 381.191406 L 730.820312 380.492188 L 727.597656 380.492188 Z M 727.597656 377.277344 "/>
<path style=" stroke:none;fill-rule:nonzero;fill:rgb(7.839966%,23.529053%,23.529053%);fill-opacity:1;" d="M 693.714844 377.277344 L 693.015625 377.277344 L 693.015625 380.492188 L 689.792969 380.492188 L 689.792969 381.191406 L 693.015625 381.191406 L 693.015625 384.320312 L 693.714844 384.320312 L 693.714844 381.191406 L 696.851562 381.191406 L 696.851562 380.492188 L 693.714844 380.492188 Z M 693.714844 377.277344 "/>
<path style=" stroke:none;fill-rule:nonzero;fill:rgb(7.839966%,23.529053%,23.529053%);fill-opacity:1;" d="M 659.742188 377.277344 L 659.046875 377.277344 L 659.046875 380.492188 L 655.824219 380.492188 L 655.824219 381.191406 L 659.046875 381.191406 L 659.046875 384.320312 L 659.742188 384.320312 L 659.742188 381.191406 L 662.878906 381.191406 L 662.878906 380.492188 L 659.742188 380.492188 Z M 659.742188 377.277344 "/>
<path style=" stroke:none;fill-rule:nonzero;fill:rgb(7.839966%,23.529053%,23.529053%);fill-opacity:1;" d="M 778.554688 394.238281 L 777.855469 394.238281 L 777.855469 397.457031 L 774.632812 397.457031 L 774.632812 398.152344 L 777.855469 398.152344 L 777.855469 401.28125 L 778.554688 401.28125 L 778.554688 398.152344 L 781.777344 398.152344 L 781.777344 397.457031 L 778.554688 397.457031 Z M 778.554688 394.238281 "/>
<path style=" stroke:none;fill-rule:nonzero;fill:rgb(7.839966%,23.529053%,23.529053%);fill-opacity:1;" d="M 744.582031 394.238281 L 743.886719 394.238281 L 743.886719 397.457031 L 740.75 397.457031 L 740.75 398.152344 L 743.886719 398.152344 L 743.886719 401.28125 L 744.582031 401.28125 L 744.582031 398.152344 L 747.804688 398.152344 L 747.804688 397.457031 L 744.582031 397.457031 Z M 744.582031 394.238281 "/>
<path style=" stroke:none;fill-rule:nonzero;fill:rgb(7.839966%,23.529053%,23.529053%);fill-opacity:1;" d="M 710.699219 394.238281 L 709.914062 394.238281 L 709.914062 397.457031 L 706.78125 397.457031 L 706.78125 398.152344 L 709.914062 398.152344 L 709.914062 401.28125 L 710.699219 401.28125 L 710.699219 398.152344 L 713.835938 398.152344 L 713.835938 397.457031 L 710.699219 397.457031 Z M 710.699219 394.238281 "/>
<path style=" stroke:none;fill-rule:nonzero;fill:rgb(7.839966%,23.529053%,23.529053%);fill-opacity:1;" d="M 676.730469 394.238281 L 676.03125 394.238281 L 676.03125 397.457031 L 672.808594 397.457031 L 672.808594 398.152344 L 676.03125 398.152344 L 676.03125 401.28125 L 676.730469 401.28125 L 676.730469 398.152344 L 679.863281 398.152344 L 679.863281 397.457031 L 676.730469 397.457031 Z M 676.730469 394.238281 "/>
<path style=" stroke:none;fill-rule:nonzero;fill:rgb(7.839966%,23.529053%,23.529053%);fill-opacity:1;" d="M 761.570312 411.199219 L 760.871094 411.199219 L 760.871094 414.417969 L 757.734375 414.417969 L 757.734375 415.113281 L 760.871094 415.113281 L 760.871094 418.246094 L 761.570312 418.246094 L 761.570312 415.113281 L 764.792969 415.113281 L 764.792969 414.417969 L 761.570312 414.417969 Z M 761.570312 411.199219 "/>
<path style=" stroke:none;fill-rule:nonzero;fill:rgb(7.839966%,23.529053%,23.529053%);fill-opacity:1;" d="M 727.597656 411.199219 L 726.902344 411.199219 L 726.902344 414.417969 L 723.765625 414.417969 L 723.765625 415.113281 L 726.902344 415.113281 L 726.902344 418.246094 L 727.597656 418.246094 L 727.597656 415.113281 L 730.820312 415.113281 L 730.820312 414.417969 L 727.597656 414.417969 Z M 727.597656 411.199219 "/>
<path style=" stroke:none;fill-rule:nonzero;fill:rgb(7.839966%,23.529053%,23.529053%);fill-opacity:1;" d="M 693.714844 411.199219 L 693.015625 411.199219 L 693.015625 414.417969 L 689.792969 414.417969 L 689.792969 415.113281 L 693.015625 415.113281 L 693.015625 418.246094 L 693.714844 418.246094 L 693.714844 415.113281 L 696.851562 415.113281 L 696.851562 414.417969 L 693.714844 414.417969 Z M 693.714844 411.199219 "/>
<path style=" stroke:none;fill-rule:nonzero;fill:rgb(7.839966%,23.529053%,23.529053%);fill-opacity:1;" d="M 659.742188 411.199219 L 659.046875 411.199219 L 659.046875 414.417969 L 655.824219 414.417969 L 655.824219 415.113281 L 659.046875 415.113281 L 659.046875 418.246094 L 659.742188 418.246094 L 659.742188 415.113281 L 662.878906 415.113281 L 662.878906 414.417969 L 659.742188 414.417969 Z M 659.742188 411.199219 "/>
<path style=" stroke:none;fill-rule:nonzero;fill:rgb(7.839966%,23.529053%,23.529053%);fill-opacity:1;" d="M 778.554688 428.160156 L 777.855469 428.160156 L 777.855469 431.292969 L 774.632812 431.292969 L 774.632812 432.074219 L 777.855469 432.074219 L 777.855469 435.207031 L 778.554688 435.207031 L 778.554688 432.074219 L 781.777344 432.074219 L 781.777344 431.292969 L 778.554688 431.292969 Z M 778.554688 428.160156 "/>
<path style=" stroke:none;fill-rule:nonzero;fill:rgb(7.839966%,23.529053%,23.529053%);fill-opacity:1;" d="M 744.582031 428.160156 L 743.886719 428.160156 L 743.886719 431.292969 L 740.75 431.292969 L 740.75 432.074219 L 743.886719 432.074219 L 743.886719 435.207031 L 744.582031 435.207031 L 744.582031 432.074219 L 747.804688 432.074219 L 747.804688 431.292969 L 744.582031 431.292969 Z M 744.582031 428.160156 "/>
<path style=" stroke:none;fill-rule:nonzero;fill:rgb(7.839966%,23.529053%,23.529053%);fill-opacity:1;" d="M 710.699219 428.160156 L 709.914062 428.160156 L 709.914062 431.292969 L 706.78125 431.292969 L 706.78125 432.074219 L 709.914062 432.074219 L 709.914062 435.207031 L 710.699219 435.207031 L 710.699219 432.074219 L 713.835938 432.074219 L 713.835938 431.292969 L 710.699219 431.292969 Z M 710.699219 428.160156 "/>
<path style=" stroke:none;fill-rule:nonzero;fill:rgb(7.839966%,23.529053%,23.529053%);fill-opacity:1;" d="M 676.730469 428.160156 L 676.03125 428.160156 L 676.03125 431.292969 L 672.808594 431.292969 L 672.808594 432.074219 L 676.03125 432.074219 L 676.03125 435.207031 L 676.730469 435.207031 L 676.730469 432.074219 L 679.863281 432.074219 L 679.863281 431.292969 L 676.730469 431.292969 Z M 676.730469 428.160156 "/>
<path style=" stroke:none;fill-rule:nonzero;fill:rgb(7.839966%,23.529053%,23.529053%);fill-opacity:1;" d="M 761.570312 445.121094 L 760.871094 445.121094 L 760.871094 448.253906 L 757.734375 448.253906 L 757.734375 448.949219 L 760.871094 448.949219 L 760.871094 452.167969 L 761.570312 452.167969 L 761.570312 448.949219 L 764.792969 448.949219 L 764.792969 448.253906 L 761.570312 448.253906 Z M 761.570312 445.121094 "/>
<path style=" stroke:none;fill-rule:nonzero;fill:rgb(7.839966%,23.529053%,23.529053%);fill-opacity:1;" d="M 727.597656 445.121094 L 726.902344 445.121094 L 726.902344 448.253906 L 723.765625 448.253906 L 723.765625 448.949219 L 726.902344 448.949219 L 726.902344 452.167969 L 727.597656 452.167969 L 727.597656 448.949219 L 730.820312 448.949219 L 730.820312 448.253906 L 727.597656 448.253906 Z M 727.597656 445.121094 "/>
<path style=" stroke:none;fill-rule:nonzero;fill:rgb(7.839966%,23.529053%,23.529053%);fill-opacity:1;" d="M 693.714844 445.121094 L 693.015625 445.121094 L 693.015625 448.253906 L 689.792969 448.253906 L 689.792969 448.949219 L 693.015625 448.949219 L 693.015625 452.167969 L 693.714844 452.167969 L 693.714844 448.949219 L 696.851562 448.949219 L 696.851562 448.253906 L 693.714844 448.253906 Z M 693.714844 445.121094 "/>
<path style=" stroke:none;fill-rule:nonzero;fill:rgb(7.839966%,23.529053%,23.529053%);fill-opacity:1;" d="M 659.742188 445.121094 L 659.046875 445.121094 L 659.046875 448.253906 L 655.824219 448.253906 L 655.824219 448.949219 L 659.046875 448.949219 L 659.046875 452.167969 L 659.742188 452.167969 L 659.742188 448.949219 L 662.878906 448.949219 L 662.878906 448.253906 L 659.742188 448.253906 Z M 659.742188 445.121094 "/>
<path style=" stroke:none;fill-rule:nonzero;fill:rgb(7.839966%,23.529053%,23.529053%);fill-opacity:1;" d="M 778.554688 462.082031 L 777.855469 462.082031 L 777.855469 465.214844 L 774.632812 465.214844 L 774.632812 465.910156 L 777.855469 465.910156 L 777.855469 469.128906 L 778.554688 469.128906 L 778.554688 465.910156 L 781.777344 465.910156 L 781.777344 465.214844 L 778.554688 465.214844 Z M 778.554688 462.082031 "/>
<path style=" stroke:none;fill-rule:nonzero;fill:rgb(7.839966%,23.529053%,23.529053%);fill-opacity:1;" d="M 744.582031 462.082031 L 743.886719 462.082031 L 743.886719 465.214844 L 740.75 465.214844 L 740.75 465.910156 L 743.886719 465.910156 L 743.886719 469.128906 L 744.582031 469.128906 L 744.582031 465.910156 L 747.804688 465.910156 L 747.804688 465.214844 L 744.582031 465.214844 Z M 744.582031 462.082031 "/>
<path style=" stroke:none;fill-rule:nonzero;fill:rgb(7.839966%,23.529053%,23.529053%);fill-opacity:1;" d="M 710.699219 462.082031 L 709.914062 462.082031 L 709.914062 465.214844 L 706.78125 465.214844 L 706.78125 465.910156 L 709.914062 465.910156 L 709.914062 469.128906 L 710.699219 469.128906 L 710.699219 465.910156 L 713.835938 465.910156 L 713.835938 465.214844 L 710.699219 465.214844 Z M 710.699219 462.082031 "/>
<path style=" stroke:none;fill-rule:nonzero;fill:rgb(7.839966%,23.529053%,23.529053%);fill-opacity:1;" d="M 676.730469 462.082031 L 676.03125 462.082031 L 676.03125 465.214844 L 672.808594 465.214844 L 672.808594 465.910156 L 676.03125 465.910156 L 676.03125 469.128906 L 676.730469 469.128906 L 676.730469 465.910156 L 679.863281 465.910156 L 679.863281 465.214844 L 676.730469 465.214844 Z M 676.730469 462.082031 "/>
<path style=" stroke:none;fill-rule:nonzero;fill:rgb(7.839966%,23.529053%,23.529053%);fill-opacity:1;" d="M 761.570312 479.046875 L 760.871094 479.046875 L 760.871094 482.175781 L 757.734375 482.175781 L 757.734375 482.871094 L 760.871094 482.871094 L 760.871094 486.089844 L 761.570312 486.089844 L 761.570312 482.871094 L 764.792969 482.871094 L 764.792969 482.175781 L 761.570312 482.175781 Z M 761.570312 479.046875 "/>
<path style=" stroke:none;fill-rule:nonzero;fill:rgb(7.839966%,23.529053%,23.529053%);fill-opacity:1;" d="M 727.597656 479.046875 L 726.902344 479.046875 L 726.902344 482.175781 L 723.765625 482.175781 L 723.765625 482.871094 L 726.902344 482.871094 L 726.902344 486.089844 L 727.597656 486.089844 L 727.597656 482.871094 L 730.820312 482.871094 L 730.820312 482.175781 L 727.597656 482.175781 Z M 727.597656 479.046875 "/>
<path style=" stroke:none;fill-rule:nonzero;fill:rgb(7.839966%,23.529053%,23.529053%);fill-opacity:1;" d="M 693.714844 479.046875 L 693.015625 479.046875 L 693.015625 482.175781 L 689.792969 482.175781 L 689.792969 482.871094 L 693.015625 482.871094 L 693.015625 486.089844 L 693.714844 486.089844 L 693.714844 482.871094 L 696.851562 482.871094 L 696.851562 482.175781 L 693.714844 482.175781 Z M 693.714844 479.046875 "/>
<path style=" stroke:none;fill-rule:nonzero;fill:rgb(7.839966%,23.529053%,23.529053%);fill-opacity:1;" d="M 659.742188 479.046875 L 659.046875 479.046875 L 659.046875 482.175781 L 655.824219 482.175781 L 655.824219 482.871094 L 659.046875 482.871094 L 659.046875 486.089844 L 659.742188 486.089844 L 659.742188 482.871094 L 662.878906 482.871094 L 662.878906 482.175781 L 659.742188 482.175781 Z M 659.742188 479.046875 "/>
<path style=" stroke:none;fill-rule:nonzero;fill:rgb(7.839966%,23.529053%,23.529053%);fill-opacity:1;" d="M 781.777344 499.835938 L 781.777344 499.136719 L 781.429688 499.136719 C 781.339844 499.398438 781.253906 499.574219 781.167969 499.835938 Z M 781.777344 499.835938 "/>
<path style=" stroke:none;fill-rule:nonzero;fill:rgb(7.839966%,23.529053%,23.529053%);fill-opacity:1;" d="M 778.554688 495.921875 L 777.855469 495.921875 L 777.855469 499.136719 L 774.632812 499.136719 L 774.632812 499.835938 L 777.855469 499.835938 L 777.855469 503.050781 L 778.554688 503.050781 L 778.554688 499.835938 L 781.167969 499.835938 C 781.253906 499.574219 781.339844 499.398438 781.429688 499.136719 L 778.554688 499.136719 Z M 778.554688 495.921875 "/>
<path style=" stroke:none;fill-rule:nonzero;fill:rgb(7.839966%,23.529053%,23.529053%);fill-opacity:1;" d="M 744.582031 495.921875 L 743.886719 495.921875 L 743.886719 499.136719 L 740.75 499.136719 L 740.75 499.835938 L 743.886719 499.835938 L 743.886719 503.050781 L 744.582031 503.050781 L 744.582031 499.835938 L 747.804688 499.835938 L 747.804688 499.136719 L 744.582031 499.136719 Z M 744.582031 495.921875 "/>
<path style=" stroke:none;fill-rule:nonzero;fill:rgb(7.839966%,23.529053%,23.529053%);fill-opacity:1;" d="M 710.699219 495.921875 L 709.914062 495.921875 L 709.914062 499.136719 L 706.78125 499.136719 L 706.78125 499.835938 L 709.914062 499.835938 L 709.914062 503.050781 L 710.699219 503.050781 L 710.699219 499.835938 L 713.835938 499.835938 L 713.835938 499.136719 L 710.699219 499.136719 Z M 710.699219 495.921875 "/>
<path style=" stroke:none;fill-rule:nonzero;fill:rgb(7.839966%,23.529053%,23.529053%);fill-opacity:1;" d="M 676.730469 495.921875 L 676.03125 495.921875 L 676.03125 499.136719 L 672.808594 499.136719 L 672.808594 499.835938 L 676.03125 499.835938 L 676.03125 503.050781 L 676.730469 503.050781 L 676.730469 499.835938 L 679.863281 499.835938 L 679.863281 499.136719 L 676.730469 499.136719 Z M 676.730469 495.921875 "/>
<path style=" stroke:none;fill-rule:nonzero;fill:rgb(7.839966%,23.529053%,23.529053%);fill-opacity:1;" d="M 761.570312 512.882812 L 760.871094 512.882812 L 760.871094 516.101562 L 757.734375 516.101562 L 757.734375 516.796875 L 760.957031 516.796875 L 760.957031 516.882812 C 761.480469 516.621094 762.089844 516.359375 762.613281 516.101562 L 761.65625 516.101562 L 761.65625 512.882812 Z M 761.570312 512.882812 "/>
<path style=" stroke:none;fill-rule:nonzero;fill:rgb(7.839966%,23.529053%,23.529053%);fill-opacity:1;" d="M 727.597656 512.882812 L 726.902344 512.882812 L 726.902344 516.101562 L 723.765625 516.101562 L 723.765625 516.796875 L 726.902344 516.796875 L 726.902344 520.015625 L 727.597656 520.015625 L 727.597656 516.796875 L 730.820312 516.796875 L 730.820312 516.101562 L 727.597656 516.101562 Z M 727.597656 512.882812 "/>
<path style=" stroke:none;fill-rule:nonzero;fill:rgb(7.839966%,23.529053%,23.529053%);fill-opacity:1;" d="M 693.714844 512.882812 L 693.015625 512.882812 L 693.015625 516.101562 L 689.792969 516.101562 L 689.792969 516.796875 L 693.015625 516.796875 L 693.015625 520.015625 L 693.714844 520.015625 L 693.714844 516.796875 L 696.851562 516.796875 L 696.851562 516.101562 L 693.714844 516.101562 Z M 693.714844 512.882812 "/>
<path style=" stroke:none;fill-rule:nonzero;fill:rgb(7.839966%,23.529053%,23.529053%);fill-opacity:1;" d="M 659.046875 520.015625 L 659.570312 520.015625 C 659.394531 519.925781 659.222656 519.839844 659.046875 519.839844 Z M 659.046875 520.015625 "/>
<path style=" stroke:none;fill-rule:nonzero;fill:rgb(7.839966%,23.529053%,23.529053%);fill-opacity:1;" d="M 659.742188 516.796875 L 662.964844 516.796875 L 662.964844 516.101562 L 659.742188 516.101562 L 659.742188 512.882812 L 659.046875 512.882812 L 659.046875 516.101562 L 655.824219 516.101562 L 655.824219 516.796875 L 659.046875 516.796875 L 659.046875 519.753906 C 659.222656 519.839844 659.394531 519.925781 659.570312 519.925781 L 659.742188 519.925781 Z M 659.742188 516.796875 "/>
<path style=" stroke:none;fill-rule:nonzero;fill:rgb(7.839966%,23.529053%,23.529053%);fill-opacity:1;" d="M 642.757812 360.3125 L 642.0625 360.3125 L 642.0625 363.53125 L 638.839844 363.53125 L 638.839844 364.226562 L 642.0625 364.226562 L 642.0625 367.445312 L 642.757812 367.445312 L 642.757812 364.226562 L 645.980469 364.226562 L 645.980469 363.53125 L 642.757812 363.53125 Z M 642.757812 360.3125 "/>
<path style=" stroke:none;fill-rule:nonzero;fill:rgb(7.839966%,23.529053%,23.529053%);fill-opacity:1;" d="M 608.789062 360.3125 L 608.089844 360.3125 L 608.089844 363.53125 L 604.957031 363.53125 L 604.957031 364.226562 L 608.089844 364.226562 L 608.089844 367.445312 L 608.789062 367.445312 L 608.789062 364.226562 L 612.011719 364.226562 L 612.011719 363.53125 L 608.789062 363.53125 Z M 608.789062 360.3125 "/>
<path style=" stroke:none;fill-rule:nonzero;fill:rgb(7.839966%,23.529053%,23.529053%);fill-opacity:1;" d="M 625.773438 377.277344 L 625.078125 377.277344 L 625.078125 380.492188 L 621.851562 380.492188 L 621.851562 381.191406 L 625.078125 381.191406 L 625.078125 384.320312 L 625.773438 384.320312 L 625.773438 381.191406 L 628.996094 381.191406 L 628.996094 380.492188 L 625.773438 380.492188 Z M 625.773438 377.277344 "/>
<path style=" stroke:none;fill-rule:nonzero;fill:rgb(7.839966%,23.529053%,23.529053%);fill-opacity:1;" d="M 591.800781 377.277344 L 591.105469 377.277344 L 591.105469 380.492188 L 587.96875 380.492188 L 587.96875 381.191406 L 591.105469 381.191406 L 591.105469 384.320312 L 591.800781 384.320312 L 591.800781 381.191406 L 595.023438 381.191406 L 595.023438 380.492188 L 591.800781 380.492188 Z M 591.800781 377.277344 "/>
<path style=" stroke:none;fill-rule:nonzero;fill:rgb(7.839966%,23.529053%,23.529053%);fill-opacity:1;" d="M 642.757812 394.238281 L 642.0625 394.238281 L 642.0625 397.457031 L 638.839844 397.457031 L 638.839844 398.152344 L 642.0625 398.152344 L 642.0625 401.28125 L 642.757812 401.28125 L 642.757812 398.152344 L 645.980469 398.152344 L 645.980469 397.457031 L 642.757812 397.457031 Z M 642.757812 394.238281 "/>
<path style=" stroke:none;fill-rule:nonzero;fill:rgb(7.839966%,23.529053%,23.529053%);fill-opacity:1;" d="M 608.789062 394.238281 L 608.089844 394.238281 L 608.089844 397.457031 L 604.957031 397.457031 L 604.957031 398.152344 L 608.089844 398.152344 L 608.089844 401.28125 L 608.789062 401.28125 L 608.789062 398.152344 L 612.011719 398.152344 L 612.011719 397.457031 L 608.789062 397.457031 Z M 608.789062 394.238281 "/>
<path style=" stroke:none;fill-rule:nonzero;fill:rgb(7.839966%,23.529053%,23.529053%);fill-opacity:1;" d="M 625.773438 411.199219 L 625.078125 411.199219 L 625.078125 414.417969 L 621.851562 414.417969 L 621.851562 415.113281 L 625.078125 415.113281 L 625.078125 418.246094 L 625.773438 418.246094 L 625.773438 415.113281 L 628.996094 415.113281 L 628.996094 414.417969 L 625.773438 414.417969 Z M 625.773438 411.199219 "/>
<path style=" stroke:none;fill-rule:nonzero;fill:rgb(7.839966%,23.529053%,23.529053%);fill-opacity:1;" d="M 642.757812 428.160156 L 642.0625 428.160156 L 642.0625 431.292969 L 638.839844 431.292969 L 638.839844 432.074219 L 642.0625 432.074219 L 642.0625 435.207031 L 642.757812 435.207031 L 642.757812 432.074219 L 645.980469 432.074219 L 645.980469 431.292969 L 642.757812 431.292969 Z M 642.757812 428.160156 "/>
<path style=" stroke:none;fill-rule:nonzero;fill:rgb(7.839966%,23.529053%,23.529053%);fill-opacity:1;" d="M 625.773438 445.121094 L 625.078125 445.121094 L 625.078125 448.253906 L 621.851562 448.253906 L 621.851562 448.949219 L 625.078125 448.949219 L 625.078125 452.167969 L 625.773438 452.167969 L 625.773438 448.949219 L 628.996094 448.949219 L 628.996094 448.253906 L 625.773438 448.253906 Z M 625.773438 445.121094 "/>
<path style=" stroke:none;fill-rule:nonzero;fill:rgb(7.839966%,23.529053%,23.529053%);fill-opacity:1;" d="M 642.757812 462.082031 L 642.0625 462.082031 L 642.0625 465.214844 L 638.839844 465.214844 L 638.839844 465.910156 L 642.0625 465.910156 L 642.0625 469.128906 L 642.757812 469.128906 L 642.757812 465.910156 L 645.980469 465.910156 L 645.980469 465.214844 L 642.757812 465.214844 Z M 642.757812 462.082031 "/>
<path style=" stroke:none;fill-rule:nonzero;fill:rgb(7.839966%,23.529053%,23.529053%);fill-opacity:1;" d="M 628.996094 482.175781 C 628.910156 482.4375 628.996094 482.613281 628.996094 482.871094 Z M 628.996094 482.175781 "/>
<path style=" stroke:none;fill-rule:nonzero;fill:rgb(7.839966%,23.529053%,23.529053%);fill-opacity:1;" d="M 642.757812 495.921875 L 642.0625 495.921875 L 642.0625 499.136719 L 638.839844 499.136719 L 638.839844 499.835938 L 642.0625 499.835938 L 642.0625 503.050781 L 642.757812 503.050781 L 642.757812 499.835938 L 645.980469 499.835938 L 645.980469 499.136719 L 642.757812 499.136719 Z M 642.757812 495.921875 "/>
<path style=" stroke:none;fill-rule:nonzero;fill:rgb(7.839966%,23.529053%,23.529053%);fill-opacity:1;" d="M 642.757812 224.707031 L 642.0625 224.707031 L 642.0625 227.925781 L 638.839844 227.925781 L 638.839844 228.621094 L 642.0625 228.621094 L 642.0625 231.753906 L 642.757812 231.753906 L 642.757812 228.621094 L 645.980469 228.621094 L 645.980469 227.925781 L 642.757812 227.925781 Z M 642.757812 224.707031 "/>
<path style=" stroke:none;fill-rule:nonzero;fill:rgb(7.839966%,23.529053%,23.529053%);fill-opacity:1;" d="M 608.789062 231.753906 L 608.789062 230.101562 C 608.527344 230.363281 608.351562 230.621094 608.089844 230.796875 L 608.089844 231.667969 L 608.789062 231.667969 Z M 608.789062 231.753906 "/>
<path style=" stroke:none;fill-rule:nonzero;fill:rgb(7.839966%,23.529053%,23.529053%);fill-opacity:1;" d="M 612.011719 228.621094 L 612.011719 227.925781 L 611.226562 227.925781 C 610.964844 228.1875 610.703125 228.363281 610.441406 228.621094 Z M 612.011719 228.621094 "/>
<path style=" stroke:none;fill-rule:nonzero;fill:rgb(7.839966%,23.529053%,23.529053%);fill-opacity:1;" d="M 625.773438 241.667969 L 625.078125 241.667969 L 625.078125 244.886719 L 621.851562 244.886719 L 621.851562 245.585938 L 625.078125 245.585938 L 625.078125 248.714844 L 625.773438 248.714844 L 625.773438 245.585938 L 628.996094 245.585938 L 628.996094 244.886719 L 625.773438 244.886719 Z M 625.773438 241.667969 "/>
<path style=" stroke:none;fill-rule:nonzero;fill:rgb(7.839966%,23.529053%,23.529053%);fill-opacity:1;" d="M 642.757812 258.632812 L 642.0625 258.632812 L 642.0625 261.761719 L 638.839844 261.761719 L 638.839844 262.546875 L 642.0625 262.546875 L 642.0625 265.675781 L 642.757812 265.675781 L 642.757812 262.546875 L 645.980469 262.546875 L 645.980469 261.761719 L 642.757812 261.761719 Z M 642.757812 258.632812 "/>
<path style=" stroke:none;fill-rule:nonzero;fill:rgb(7.839966%,23.529053%,23.529053%);fill-opacity:1;" d="M 608.789062 258.632812 L 608.089844 258.632812 L 608.089844 261.761719 L 604.957031 261.761719 L 604.957031 262.546875 L 608.089844 262.546875 L 608.089844 265.675781 L 608.789062 265.675781 L 608.789062 262.546875 L 612.011719 262.546875 L 612.011719 261.761719 L 608.789062 261.761719 Z M 608.789062 258.632812 "/>
<path style=" stroke:none;fill-rule:nonzero;fill:rgb(7.839966%,23.529053%,23.529053%);fill-opacity:1;" d="M 625.773438 275.59375 L 625.078125 275.59375 L 625.078125 278.722656 L 621.851562 278.722656 L 621.851562 279.421875 L 625.078125 279.421875 L 625.078125 282.636719 L 625.773438 282.636719 L 625.773438 279.421875 L 628.996094 279.421875 L 628.996094 278.722656 L 625.773438 278.722656 Z M 625.773438 275.59375 "/>
<path style=" stroke:none;fill-rule:nonzero;fill:rgb(7.839966%,23.529053%,23.529053%);fill-opacity:1;" d="M 591.800781 275.59375 L 591.105469 275.59375 L 591.105469 278.722656 L 587.96875 278.722656 L 587.96875 279.421875 L 591.105469 279.421875 L 591.105469 282.636719 L 591.800781 282.636719 L 591.800781 279.421875 L 595.023438 279.421875 L 595.023438 278.722656 L 591.800781 278.722656 Z M 591.800781 275.59375 "/>
<path style=" stroke:none;fill-rule:nonzero;fill:rgb(7.839966%,23.529053%,23.529053%);fill-opacity:1;" d="M 642.757812 292.554688 L 642.0625 292.554688 L 642.0625 295.6875 L 638.839844 295.6875 L 638.839844 296.382812 L 642.0625 296.382812 L 642.0625 299.601562 L 642.757812 299.601562 L 642.757812 296.382812 L 645.980469 296.382812 L 645.980469 295.6875 L 642.757812 295.6875 Z M 642.757812 292.554688 "/>
<path style=" stroke:none;fill-rule:nonzero;fill:rgb(7.839966%,23.529053%,23.529053%);fill-opacity:1;" d="M 608.789062 292.554688 L 608.089844 292.554688 L 608.089844 295.6875 L 604.957031 295.6875 L 604.957031 296.382812 L 608.089844 296.382812 L 608.089844 299.601562 L 608.789062 299.601562 L 608.789062 296.382812 L 612.011719 296.382812 L 612.011719 295.6875 L 608.789062 295.6875 Z M 608.789062 292.554688 "/>
<path style=" stroke:none;fill-rule:nonzero;fill:rgb(7.839966%,23.529053%,23.529053%);fill-opacity:1;" d="M 574.121094 299.601562 L 574.816406 299.601562 L 574.816406 296.382812 L 578.039062 296.382812 L 578.039062 295.6875 L 574.816406 295.6875 L 574.816406 292.46875 L 574.121094 292.46875 L 574.121094 295.6875 L 572.902344 295.6875 C 572.8125 295.945312 572.8125 296.121094 572.726562 296.382812 L 574.121094 296.382812 Z M 574.121094 299.601562 "/>
<path style=" stroke:none;fill-rule:nonzero;fill:rgb(7.839966%,23.529053%,23.529053%);fill-opacity:1;" d="M 625.773438 309.515625 L 625.078125 309.515625 L 625.078125 312.648438 L 621.851562 312.648438 L 621.851562 313.34375 L 625.078125 313.34375 L 625.078125 316.5625 L 625.773438 316.5625 L 625.773438 313.34375 L 628.996094 313.34375 L 628.996094 312.648438 L 625.773438 312.648438 Z M 625.773438 309.515625 "/>
<path style=" stroke:none;fill-rule:nonzero;fill:rgb(7.839966%,23.529053%,23.529053%);fill-opacity:1;" d="M 591.800781 309.515625 L 591.105469 309.515625 L 591.105469 312.648438 L 587.96875 312.648438 L 587.96875 313.34375 L 591.105469 313.34375 L 591.105469 316.5625 L 591.800781 316.5625 L 591.800781 313.34375 L 595.023438 313.34375 L 595.023438 312.648438 L 591.800781 312.648438 Z M 591.800781 309.515625 "/>
<path style=" stroke:none;fill-rule:nonzero;fill:rgb(7.839966%,23.529053%,23.529053%);fill-opacity:1;" d="M 642.757812 326.476562 L 642.0625 326.476562 L 642.0625 329.609375 L 638.839844 329.609375 L 638.839844 330.304688 L 642.0625 330.304688 L 642.0625 333.523438 L 642.757812 333.523438 L 642.757812 330.304688 L 645.980469 330.304688 L 645.980469 329.609375 L 642.757812 329.609375 Z M 642.757812 326.476562 "/>
<path style=" stroke:none;fill-rule:nonzero;fill:rgb(7.839966%,23.529053%,23.529053%);fill-opacity:1;" d="M 608.789062 326.476562 L 608.089844 326.476562 L 608.089844 329.609375 L 604.957031 329.609375 L 604.957031 330.304688 L 608.089844 330.304688 L 608.089844 333.523438 L 608.789062 333.523438 L 608.789062 330.304688 L 612.011719 330.304688 L 612.011719 329.609375 L 608.789062 329.609375 Z M 608.789062 326.476562 "/>
<path style=" stroke:none;fill-rule:nonzero;fill:rgb(7.839966%,23.529053%,23.529053%);fill-opacity:1;" d="M 574.816406 326.476562 L 574.121094 326.476562 L 574.121094 329.609375 L 570.984375 329.609375 L 570.984375 330.304688 L 574.121094 330.304688 L 574.121094 333.523438 L 574.816406 333.523438 L 574.816406 330.304688 L 578.039062 330.304688 L 578.039062 329.609375 L 574.816406 329.609375 Z M 574.816406 326.476562 "/>
<path style=" stroke:none;fill-rule:nonzero;fill:rgb(7.839966%,23.529053%,23.529053%);fill-opacity:1;" d="M 625.773438 343.351562 L 625.078125 343.351562 L 625.078125 346.570312 L 621.851562 346.570312 L 621.851562 347.265625 L 625.078125 347.265625 L 625.078125 350.484375 L 625.773438 350.484375 L 625.773438 347.265625 L 628.996094 347.265625 L 628.996094 346.570312 L 625.773438 346.570312 Z M 625.773438 343.351562 "/>
<path style=" stroke:none;fill-rule:nonzero;fill:rgb(7.839966%,23.529053%,23.529053%);fill-opacity:1;" d="M 591.800781 343.351562 L 591.105469 343.351562 L 591.105469 346.570312 L 587.96875 346.570312 L 587.96875 347.265625 L 591.105469 347.265625 L 591.105469 350.484375 L 591.800781 350.484375 L 591.800781 347.265625 L 595.023438 347.265625 L 595.023438 346.570312 L 591.800781 346.570312 Z M 591.800781 343.351562 "/>
<path style=" stroke:none;fill-rule:nonzero;fill:rgb(88.62915%,37.249756%,86.268616%);fill-opacity:1;" d="M 773.066406 385.453125 C 773.066406 421.984375 743.363281 451.644531 706.78125 451.644531 C 670.195312 451.644531 640.492188 421.984375 640.492188 385.453125 C 640.492188 348.917969 670.195312 319.257812 706.78125 319.257812 C 743.363281 319.257812 773.066406 348.917969 773.066406 385.453125 Z M 773.066406 385.453125 "/>
<g clip-path="url(#clip1)" clip-rule="nonzero">
<path style=" stroke:none;fill-rule:nonzero;fill:rgb(7.839966%,23.529053%,23.529053%);fill-opacity:1;" d="M 787.265625 482.089844 C 790.398438 454.515625 803.640625 430.507812 816.445312 407.371094 C 832.035156 379.1875 848.148438 350.050781 845.886719 314.214844 L 845.886719 313.605469 C 845.710938 311.515625 845.535156 309.34375 845.277344 307.339844 C 835.519531 229.578125 768.277344 188.089844 706.953125 187.394531 C 645.71875 188.089844 578.5625 229.578125 568.71875 307.339844 C 568.457031 309.515625 568.195312 311.691406 568.109375 313.867188 L 568.109375 314.125 C 565.757812 349.964844 581.960938 379.1875 597.550781 407.371094 C 610.355469 430.507812 623.59375 454.515625 626.730469 482.089844 L 626.992188 484.523438 C 627.253906 486.699219 627.429688 488.789062 627.777344 490.960938 C 623.683594 497.050781 621.332031 503.835938 621.15625 510.882812 C 620.980469 516.011719 622.027344 521.058594 624.117188 525.929688 C 622.289062 530.191406 621.332031 534.628906 621.15625 539.148438 C 620.980469 544.28125 622.027344 549.328125 624.117188 554.199219 C 622.289062 558.460938 621.332031 562.898438 621.15625 567.332031 C 620.894531 577.683594 625.164062 587.6875 633.523438 596.472656 C 648.855469 612.390625 675.683594 622.042969 705.300781 622.394531 C 705.820312 622.394531 706.257812 622.394531 706.78125 622.394531 C 753.292969 622.394531 791.53125 598.734375 792.402344 569.332031 C 792.578125 564.203125 791.53125 559.15625 789.441406 554.285156 C 791.183594 550.195312 792.140625 545.933594 792.316406 541.585938 L 792.316406 541.0625 C 792.492188 535.933594 791.445312 530.886719 789.355469 526.015625 C 791.183594 521.753906 792.140625 517.316406 792.316406 512.882812 C 792.492188 505.574219 790.398438 498.355469 786.042969 491.65625 C 786.394531 489.308594 786.65625 486.960938 786.914062 484.699219 Z M 786.480469 531.667969 C 787.351562 534.714844 787.785156 537.84375 787.699219 540.976562 C 787.613281 545.152344 786.566406 549.242188 784.824219 553.242188 C 774.894531 574.898438 742.320312 589.6875 705.472656 589.425781 C 670.023438 589.078125 638.578125 574.203125 628.996094 553.242188 C 626.90625 548.71875 625.945312 544.019531 626.035156 539.410156 L 626.035156 539.148438 C 626.121094 536.628906 626.558594 534.105469 627.253906 531.582031 C 639.796875 551.851562 670.285156 565.417969 705.472656 565.765625 C 705.996094 565.765625 706.429688 565.765625 706.953125 565.765625 C 742.144531 565.855469 773.675781 552.109375 786.480469 531.667969 Z M 706.78125 617.78125 C 706.257812 617.78125 705.820312 617.78125 705.300781 617.78125 C 676.902344 617.433594 651.382812 608.300781 636.921875 593.339844 C 629.429688 585.511719 625.597656 576.640625 625.859375 567.59375 C 625.949219 565.070312 626.382812 562.460938 627.078125 559.9375 C 639.621094 580.207031 670.109375 593.773438 705.300781 594.125 C 705.820312 594.125 706.257812 594.125 706.78125 594.125 C 742.144531 594.125 773.675781 580.378906 786.480469 559.9375 C 787.351562 562.984375 787.785156 566.113281 787.699219 569.246094 C 786.914062 596.210938 750.769531 617.78125 706.78125 617.78125 Z M 787.699219 512.621094 C 787.613281 516.796875 786.566406 520.882812 784.738281 524.972656 L 784.738281 525.058594 C 774.808594 546.71875 742.230469 561.59375 705.386719 561.15625 C 669.933594 560.808594 638.492188 545.933594 628.910156 525.058594 L 628.910156 524.972656 C 626.816406 520.449219 625.859375 515.753906 625.945312 510.96875 C 626.121094 506.359375 627.253906 501.835938 629.429688 497.574219 C 630.042969 499.574219 630.824219 501.488281 631.957031 503.402344 C 635.703125 509.75 642.148438 513.75 647.375 516.621094 C 664.621094 526.015625 684.394531 530.800781 706.171875 530.800781 C 706.867188 530.800781 707.476562 530.800781 708.171875 530.800781 C 729.949219 530.800781 749.722656 526.015625 766.96875 516.621094 C 772.195312 513.75 778.640625 509.664062 782.386719 503.402344 C 783.34375 501.746094 784.128906 500.007812 784.652344 498.269531 C 786.742188 502.964844 787.785156 507.75 787.699219 512.621094 Z M 738.222656 406.152344 C 748.9375 401.023438 755.734375 388.84375 754.511719 377.277344 C 753.816406 370.925781 749.375 363.445312 742.40625 362.140625 C 734.828125 360.660156 729.425781 367.1875 728.035156 374.230469 C 727.164062 378.40625 727.164062 389.628906 727.597656 404.152344 C 721.5 404.675781 715.140625 402.9375 710.175781 399.28125 C 716.1875 392.671875 719.148438 383.363281 717.929688 374.316406 C 717.144531 368.578125 714.359375 364.402344 710.351562 363.011719 C 709.21875 362.574219 708 362.488281 706.691406 362.488281 C 705.472656 362.402344 704.253906 362.574219 703.035156 363.011719 C 699.027344 364.488281 696.328125 368.578125 695.457031 374.316406 C 694.148438 383.363281 697.199219 392.585938 703.207031 399.28125 C 698.242188 403.023438 691.886719 404.675781 685.789062 404.152344 C 686.222656 389.628906 686.222656 378.40625 685.351562 374.230469 C 683.871094 367.097656 678.472656 360.660156 670.980469 362.140625 C 664.011719 363.445312 659.570312 370.925781 658.871094 377.277344 C 657.652344 388.84375 664.535156 401.023438 675.160156 406.152344 C 676.992188 407.023438 678.90625 407.71875 680.910156 408.15625 C 680.472656 418.679688 679.863281 430.769531 679.167969 443.035156 C 657.652344 432.769531 642.757812 410.765625 642.757812 385.453125 C 642.757812 350.222656 671.414062 321.605469 706.691406 321.605469 C 741.96875 321.605469 770.628906 350.222656 770.628906 385.453125 C 770.628906 410.851562 755.734375 432.769531 734.21875 443.035156 C 733.519531 430.769531 732.824219 418.679688 732.476562 408.15625 C 734.480469 407.71875 736.394531 407.023438 738.222656 406.152344 Z M 732.300781 403.371094 C 731.867188 389.539062 731.867188 379.015625 732.648438 375.1875 C 733.347656 371.535156 736.046875 366.664062 740.402344 366.664062 C 740.75 366.664062 741.1875 366.664062 741.535156 366.75 C 745.976562 367.621094 749.375 373.101562 749.808594 377.796875 C 750.855469 387.453125 745.105469 397.628906 736.132812 401.890625 C 735 402.5 733.695312 402.933594 732.300781 403.371094 Z M 706.78125 402.5 C 706.953125 402.675781 707.214844 402.847656 707.390625 403.023438 C 713.226562 407.371094 720.628906 409.371094 727.859375 408.851562 C 728.292969 419.808594 728.90625 432.335938 729.6875 444.949219 C 722.546875 447.644531 714.878906 449.210938 706.78125 449.210938 C 698.765625 449.210938 691.015625 447.730469 683.957031 444.949219 C 684.742188 432.335938 685.351562 419.808594 685.789062 408.851562 C 693.015625 409.371094 700.421875 407.371094 706.257812 403.023438 C 706.34375 402.847656 706.519531 402.675781 706.78125 402.5 Z M 700.246094 375.015625 C 700.421875 374.058594 700.855469 371.621094 702.078125 369.707031 L 702.164062 369.796875 C 703.207031 368.492188 704.949219 367.359375 706.78125 367.273438 C 708.523438 367.445312 710.351562 368.492188 711.398438 369.796875 L 711.484375 369.707031 C 712.703125 371.621094 713.226562 374.058594 713.3125 375.015625 C 714.359375 382.496094 711.832031 390.410156 706.78125 395.976562 C 701.816406 390.324219 699.203125 382.496094 700.246094 375.015625 Z M 681.171875 403.371094 C 679.863281 403.023438 678.558594 402.5 677.339844 401.890625 C 668.367188 397.542969 662.617188 387.453125 663.664062 377.796875 C 664.1875 373.1875 667.496094 367.621094 671.9375 366.75 C 672.375 366.664062 672.722656 366.664062 673.070312 366.664062 C 677.425781 366.664062 680.039062 371.621094 680.824219 375.1875 C 681.605469 378.929688 681.605469 389.539062 681.171875 403.371094 Z M 683.609375 449.90625 C 690.839844 452.515625 698.679688 453.90625 706.78125 453.90625 C 714.878906 453.90625 722.71875 452.515625 729.949219 449.90625 C 731.953125 482.261719 734.652344 514.359375 735.871094 523.144531 C 726.726562 525.144531 717.144531 526.191406 706.953125 526.101562 C 696.675781 526.191406 686.921875 525.144531 677.601562 523.058594 C 678.90625 514.1875 681.605469 482.175781 683.609375 449.90625 Z M 782.648438 481.566406 L 782.386719 484.003906 C 781.777344 489.917969 781.078125 496.09375 778.207031 500.964844 C 775.070312 506.269531 769.320312 509.925781 764.617188 512.445312 C 757.125 516.535156 749.027344 519.667969 740.578125 521.929688 C 739.355469 513.054688 736.65625 480.351562 734.652344 447.992188 C 758.695312 437.292969 775.503906 413.285156 775.503906 385.363281 C 775.503906 347.613281 744.757812 316.824219 706.867188 316.824219 C 669.0625 316.824219 638.230469 347.527344 638.230469 385.363281 C 638.230469 413.285156 655.039062 437.292969 679.082031 447.992188 C 677.078125 480.261719 674.464844 512.707031 673.15625 521.839844 C 664.882812 519.578125 656.957031 516.535156 649.550781 512.445312 C 644.847656 509.925781 639.101562 506.269531 635.964844 500.964844 C 633.089844 496.09375 632.394531 489.917969 631.785156 484.003906 L 631.523438 481.566406 C 628.300781 453.039062 614.796875 428.683594 601.730469 405.109375 C 585.707031 376.144531 570.550781 348.832031 572.726562 314.5625 L 572.726562 314.039062 C 572.726562 313.867188 572.726562 313.777344 572.726562 313.605469 C 572.902344 311.691406 573.074219 309.777344 573.25 307.949219 C 582.917969 232.796875 647.808594 192.785156 706.953125 192.089844 C 766.183594 192.785156 831.078125 232.796875 840.660156 307.949219 C 840.921875 309.949219 841.09375 312.039062 841.269531 314.125 L 841.269531 314.648438 C 843.445312 348.917969 828.289062 376.230469 812.351562 405.109375 C 799.285156 428.683594 785.871094 453.039062 782.648438 481.566406 Z M 782.648438 481.566406 "/>
</g>
</g>
</svg>
