<?xml version="1.0" encoding="UTF-8"?>
<svg xmlns="http://www.w3.org/2000/svg" xmlns:xlink="http://www.w3.org/1999/xlink" width="1440pt" height="809.999993pt" viewBox="0 0 1440 809.999993" version="1.2">
<defs>
<clipPath id="clip1">
  <path d="M 688.582031 319.441406 L 843.855469 319.441406 L 843.855469 473.164062 L 688.582031 473.164062 Z M 688.582031 319.441406 "/>
</clipPath>
<clipPath id="clip2">
  <path d="M 510.191406 394.773438 L 683.476562 394.773438 L 683.476562 567 L 510.191406 567 Z M 510.191406 394.773438 "/>
</clipPath>
</defs>
<g id="surface1">
<g clip-path="url(#clip1)" clip-rule="nonzero">
<path style=" stroke:none;fill-rule:nonzero;fill:rgb(100%,100%,99.609375%);fill-opacity:1;" d="M 823.277344 383.882812 C 830.929688 387.890625 844.632812 389.464844 843.820312 402.289062 C 829.636719 408.652344 810.488281 410.035156 796.359375 416.449219 C 798.84375 425.726562 803.269531 434.746094 806.984375 444.058594 C 810.503906 452.878906 815.785156 463.515625 811.945312 473.085938 C 799.804688 471.886719 793.554688 462.015625 786.445312 455.386719 C 778.898438 448.347656 770.980469 442.367188 762.363281 436.273438 C 753.550781 441.207031 744.503906 445.789062 736.15625 451.847656 C 728.714844 457.246094 721.5 468.207031 709.949219 464.589844 C 709.679688 454.40625 716.066406 445.226562 719.863281 436.273438 C 723.8125 426.964844 726.679688 417.488281 731.199219 408.660156 C 720.394531 395.0625 707.941406 383.988281 697.199219 369.722656 C 693.957031 365.417969 687.925781 361.019531 688.699219 354.148438 C 696.730469 350.148438 707.445312 352.808594 717.035156 354.148438 C 726.492188 355.46875 736.347656 356.746094 744.65625 358.398438 C 756.683594 347.054688 765.765625 332.773438 775.820312 319.460938 L 780.070312 319.460938 C 784.246094 326.300781 784.046875 335.859375 785.734375 344.238281 C 787.476562 352.84375 789.917969 361.097656 791.402344 369.015625 C 803.042969 370.976562 813.28125 378.648438 823.277344 383.882812 Z M 719.15625 383.882812 C 723.132812 388.457031 738.175781 400.285156 738.988281 406.539062 C 739.78125 412.613281 733.335938 423.671875 730.492188 430.609375 C 727.242188 438.53125 722.070312 445.570312 721.988281 453.261719 C 733.925781 443.007812 748.039062 434.933594 761.65625 426.359375 C 778.308594 435.671875 789.707031 450.238281 804.859375 461.050781 C 800.886719 445.894531 792.550781 429 787.15625 412.910156 C 789.800781 408.035156 796.496094 407.644531 802.03125 405.832031 C 807.347656 404.085938 812.855469 401.414062 818.320312 400.164062 C 823.125 399.066406 829.523438 400.519531 832.484375 395.917969 C 816.960938 388.308594 802.324219 379.8125 784.320312 374.679688 C 781.933594 360.382812 779.371094 344.664062 775.820312 333.617188 C 766.050781 340.550781 761.480469 356.699219 751.738281 363.351562 C 746.035156 367.25 740.160156 364.449219 731.90625 363.351562 C 720.199219 361.800781 710.8125 361.398438 700.742188 359.8125 C 704.6875 369.691406 711.65625 375.253906 719.15625 383.882812 "/>
</g>
<path style=" stroke:none;fill-rule:nonzero;fill:rgb(100%,100%,99.609375%);fill-opacity:1;" d="M 674.53125 327.953125 C 668.105469 318.566406 653.726562 310.996094 644.078125 302.46875 C 650.949219 292.113281 661.066406 284.996094 667.449219 274.148438 C 655.234375 274.753906 643.359375 281.640625 629.203125 282.644531 C 620.617188 275.890625 616.730469 264.429688 608.660156 257.160156 C 607.3125 269.511719 609.003906 281.121094 608.660156 291.140625 C 598.285156 295.871094 585.929688 298.628906 576.078125 303.886719 C 586.457031 306.730469 596.625 309.777344 605.828125 313.796875 C 609.71875 327.804688 603.015625 342.285156 602.996094 356.980469 C 612.714844 348.523438 619.394531 337.03125 625.660156 325.125 C 641.769531 318.28125 658.445312 326.425781 674.53125 327.953125 Z M 668.160156 312.378906 C 676.460938 320.054688 684.425781 322.621094 683.03125 335.742188 C 664.632812 341.851562 646.546875 323.589844 631.328125 332.203125 C 627.25 334.507812 627.742188 339.671875 624.953125 344.238281 C 622.015625 349.039062 616.464844 353.882812 612.203125 359.105469 C 608.035156 364.203125 603.648438 371.191406 595.910156 370.429688 C 591.976562 363.875 595.550781 354.539062 596.621094 346.363281 C 597.765625 337.59375 599.355469 328.953125 600.160156 320.875 C 593.210938 318.4375 583.839844 314.339844 575.371094 312.378906 C 568.472656 310.78125 558.503906 311.78125 558.371094 304.589844 C 558.238281 297.375 571.28125 296.191406 578.203125 293.972656 C 586.960938 291.164062 592.375 287.957031 600.160156 286.1875 C 602.296875 273.785156 597.171875 250.222656 604.410156 243 C 615.78125 243.820312 621.652344 272.015625 632.746094 274.148438 C 638.015625 275.164062 646.984375 270.859375 653.992188 269.191406 C 661.035156 267.519531 667.695312 265.253906 675.242188 266.363281 C 675.640625 267.382812 676.347656 268.085938 677.367188 268.488281 C 675.886719 280.328125 668.535156 285.457031 661.074219 293.972656 C 660.410156 294.730469 654.703125 301.039062 654.703125 301.050781 C 654.800781 302.953125 665.914062 310.308594 668.160156 312.378906 "/>
<g clip-path="url(#clip2)" clip-rule="nonzero">
<path style=" stroke:none;fill-rule:nonzero;fill:rgb(100%,100%,99.609375%);fill-opacity:1;" d="M 678.78125 458.925781 C 692.933594 467.199219 670.875 477.316406 662.492188 483 C 652.875 489.515625 645.003906 494.394531 638.410156 497.863281 C 644.722656 507.605469 653.175781 517.605469 659.660156 529.011719 C 663.503906 535.78125 669.710938 545.253906 664.617188 553.792969 C 651.6875 555.046875 642.328125 546.15625 632.746094 541.050781 C 622.632812 535.664062 612.253906 531.183594 602.285156 525.476562 C 586.695312 534.839844 575.222656 548.996094 560.496094 560.164062 C 556.261719 563.375 550.097656 568.589844 543.5 566.535156 C 542.441406 554.820312 547.246094 542.65625 551.289062 531.847656 C 555.433594 520.765625 560.914062 510.324219 565.453125 500.695312 C 555.808594 492.003906 543.765625 488.292969 529.332031 481.582031 C 523.472656 478.855469 509.636719 474.558594 510.207031 467.421875 C 510.652344 461.796875 517.3125 462.703125 522.25 461.757812 C 534.960938 459.320312 556.125 452.539062 573.953125 453.261719 C 584.027344 440.695312 588.894531 413.777344 595.910156 398.042969 C 600.449219 387.875 606.390625 404.738281 607.953125 410.078125 C 612.761719 426.503906 619.582031 443.929688 625.660156 458.21875 C 644.019531 457.804688 660.304688 459.460938 678.78125 458.925781 Z M 549.535156 480.527344 C 549.699219 480.59375 549.859375 480.660156 550.023438 480.730469 C 550.386719 480.882812 550.753906 481.039062 551.125 481.199219 C 551.25 481.253906 551.371094 481.308594 551.496094 481.363281 C 551.664062 481.433594 551.828125 481.507812 551.996094 481.582031 C 554.691406 482.777344 561.488281 486.285156 566.941406 490.003906 C 567.164062 490.15625 567.386719 490.308594 567.605469 490.460938 C 567.679688 490.515625 567.753906 490.566406 567.824219 490.617188 C 567.96875 490.71875 568.113281 490.820312 568.257812 490.921875 C 568.328125 490.976562 568.398438 491.027344 568.46875 491.078125 C 568.609375 491.179688 568.75 491.28125 568.886719 491.382812 C 569.027344 491.488281 569.160156 491.589844 569.296875 491.691406 C 569.363281 491.742188 569.429688 491.792969 569.5 491.84375 C 569.699219 492 569.894531 492.152344 570.085938 492.304688 C 570.597656 492.710938 571.082031 493.113281 571.527344 493.515625 C 571.582031 493.5625 571.636719 493.613281 571.695312 493.664062 C 571.800781 493.761719 571.910156 493.863281 572.011719 493.960938 C 572.066406 494.011719 572.117188 494.058594 572.167969 494.109375 C 572.21875 494.15625 572.269531 494.207031 572.320312 494.253906 C 572.367188 494.304688 572.417969 494.351562 572.464844 494.402344 C 573.726562 495.667969 574.539062 496.851562 574.664062 497.863281 C 575.066406 501.144531 570.105469 507.617188 568.289062 511.316406 C 560.972656 526.191406 556.265625 539.8125 551.996094 555.207031 C 569.96875 542.730469 584.476562 526.785156 602.996094 514.855469 C 620.097656 526.316406 639.746094 535.230469 658.242188 545.296875 C 658.460938 543.859375 658.351562 542.5625 658.023438 541.359375 C 657.957031 541.117188 657.882812 540.878906 657.800781 540.648438 C 657.746094 540.488281 657.683594 540.328125 657.621094 540.171875 C 657.585938 540.085938 657.550781 540 657.511719 539.914062 C 657.160156 539.105469 656.722656 538.339844 656.234375 537.59375 C 656.164062 537.480469 656.089844 537.371094 656.015625 537.257812 C 655.789062 536.925781 655.554688 536.597656 655.316406 536.269531 C 655.195312 536.109375 655.074219 535.945312 654.957031 535.785156 L 654.953125 535.78125 C 654.832031 535.621094 654.710938 535.460938 654.589844 535.296875 C 654.507812 535.191406 654.429688 535.085938 654.347656 534.976562 C 654.28125 534.894531 654.21875 534.808594 654.15625 534.722656 C 653.609375 534.003906 653.070312 533.289062 652.578125 532.554688 C 648.488281 526.457031 645.808594 519.535156 641.953125 513.441406 C 638.226562 507.554688 630.566406 504.355469 628.496094 497.15625 C 640.910156 485.023438 658.542969 478.105469 671.699219 466.714844 C 651.023438 466.542969 638.765625 466.578125 619.285156 465.300781 C 618.953125 464.472656 618.625 463.640625 618.296875 462.800781 C 618.082031 462.246094 617.867188 461.683594 617.652344 461.125 C 617.441406 460.5625 617.230469 459.996094 617.019531 459.433594 C 616.917969 459.148438 616.8125 458.867188 616.707031 458.585938 C 616.5 458.015625 616.292969 457.449219 616.089844 456.878906 C 615.886719 456.308594 615.683594 455.738281 615.480469 455.164062 C 615.078125 454.019531 614.679688 452.867188 614.285156 451.714844 C 614.089844 451.136719 613.890625 450.558594 613.699219 449.980469 C 613.503906 449.398438 613.308594 448.820312 613.117188 448.238281 C 612.824219 447.367188 612.539062 446.492188 612.25 445.617188 C 612.0625 445.03125 611.871094 444.449219 611.679688 443.863281 C 611.492188 443.28125 611.300781 442.695312 611.113281 442.109375 C 607.617188 431.277344 604.246094 420.324219 600.160156 410.078125 C 592.515625 426.746094 589.414062 447.949219 578.910156 461.757812 C 560.53125 460.722656 541.546875 464.828125 525.082031 469.546875 C 529.296875 472.660156 533.761719 474.554688 538.6875 476.40625 C 538.828125 476.460938 538.972656 476.511719 539.113281 476.566406 C 539.679688 476.777344 540.25 476.988281 540.828125 477.199219 C 541.261719 477.359375 541.699219 477.519531 542.140625 477.683594 C 542.433594 477.789062 542.730469 477.898438 543.027344 478.007812 C 543.472656 478.171875 543.921875 478.339844 544.378906 478.507812 C 544.527344 478.566406 544.679688 478.625 544.832031 478.679688 C 545.289062 478.851562 545.75 479.027344 546.214844 479.203125 C 546.988281 479.503906 547.777344 479.8125 548.574219 480.132812 C 548.890625 480.261719 549.214844 480.394531 549.535156 480.527344 "/>
</g>
<path style=" stroke:none;fill-rule:nonzero;fill:rgb(100%,100%,100%);fill-opacity:1;" d="M 719.949219 509.839844 L 802.082031 559.425781 C 815.039062 567.246094 831.023438 555.621094 827.585938 540.890625 L 805.785156 447.425781 L 878.363281 384.53125 C 889.800781 374.628906 883.683594 355.828125 868.609375 354.554688 L 773.074219 346.453125 L 735.699219 258.246094 C 729.800781 244.34375 710.097656 244.34375 704.195312 258.246094 L 666.824219 346.453125 L 571.285156 354.554688 C 556.210938 355.828125 550.09375 374.628906 561.53125 384.53125 L 634.113281 447.425781 L 612.308594 540.890625 C 608.871094 555.621094 624.855469 567.246094 637.816406 559.425781 Z M 719.949219 509.839844 "/>
</g>
</svg>
