<?xml version="1.0" encoding="UTF-8"?>
<svg xmlns="http://www.w3.org/2000/svg" xmlns:xlink="http://www.w3.org/1999/xlink" width="1440pt" height="809.999993pt" viewBox="0 0 1440 809.999993" version="1.2">
<defs>
<clipPath id="clip1">
  <path d="M 582 267 L 896 267 L 896 536 L 582 536 Z M 582 267 "/>
</clipPath>
<clipPath id="clip2">
  <path d="M 638.527344 283.777344 C 604.421875 310.214844 569.703125 392.285156 586.988281 467.632812 C 602.585938 536.253906 652.902344 538.238281 669.269531 534.878906 C 730.136719 522.34375 721.421875 493.613281 761.183594 500.03125 C 800.949219 506.449219 898.984375 493.613281 895.007812 384.796875 C 891.183594 275.984375 822.207031 283.011719 786.421875 279.039062 C 745.585938 274.453125 677.222656 253.667969 638.527344 283.777344 Z M 638.527344 283.777344 "/>
</clipPath>
<linearGradient id="linear0" gradientUnits="userSpaceOnUse" x1="20.099984" y1="113.110001" x2="235.399975" y2="113.110001" gradientTransform="matrix(1.529395,0,0,1.528302,538.964232,228.910968)">
<stop offset="0" style="stop-color:rgb(0%,76.899719%,79.998779%);stop-opacity:1;"/>
<stop offset="0.03125" style="stop-color:rgb(0%,76.899719%,79.998779%);stop-opacity:1;"/>
<stop offset="0.0390625" style="stop-color:rgb(0.0289917%,76.885986%,80.000305%);stop-opacity:1;"/>
<stop offset="0.0429688" style="stop-color:rgb(0.422668%,76.708984%,80.029297%);stop-opacity:1;"/>
<stop offset="0.046875" style="stop-color:rgb(0.787354%,76.547241%,80.055237%);stop-opacity:1;"/>
<stop offset="0.0507813" style="stop-color:rgb(1.152039%,76.383972%,80.081177%);stop-opacity:1;"/>
<stop offset="0.0546875" style="stop-color:rgb(1.516724%,76.220703%,80.107117%);stop-opacity:1;"/>
<stop offset="0.0585938" style="stop-color:rgb(1.881409%,76.057434%,80.133057%);stop-opacity:1;"/>
<stop offset="0.0625" style="stop-color:rgb(2.246094%,75.895691%,80.158997%);stop-opacity:1;"/>
<stop offset="0.0664062" style="stop-color:rgb(2.609253%,75.732422%,80.184937%);stop-opacity:1;"/>
<stop offset="0.0703125" style="stop-color:rgb(2.973938%,75.569153%,80.210876%);stop-opacity:1;"/>
<stop offset="0.0742188" style="stop-color:rgb(3.338623%,75.405884%,80.236816%);stop-opacity:1;"/>
<stop offset="0.078125" style="stop-color:rgb(3.703308%,75.244141%,80.262756%);stop-opacity:1;"/>
<stop offset="0.0820313" style="stop-color:rgb(4.067993%,75.080872%,80.288696%);stop-opacity:1;"/>
<stop offset="0.0859375" style="stop-color:rgb(4.432678%,74.917603%,80.314636%);stop-opacity:1;"/>
<stop offset="0.0898438" style="stop-color:rgb(4.795837%,74.754333%,80.340576%);stop-opacity:1;"/>
<stop offset="0.09375" style="stop-color:rgb(5.160522%,74.59259%,80.366516%);stop-opacity:1;"/>
<stop offset="0.0976562" style="stop-color:rgb(5.525208%,74.429321%,80.392456%);stop-opacity:1;"/>
<stop offset="0.101563" style="stop-color:rgb(5.889893%,74.266052%,80.418396%);stop-opacity:1;"/>
<stop offset="0.105469" style="stop-color:rgb(6.254578%,74.102783%,80.444336%);stop-opacity:1;"/>
<stop offset="0.109375" style="stop-color:rgb(6.619263%,73.94104%,80.470276%);stop-opacity:1;"/>
<stop offset="0.113281" style="stop-color:rgb(6.983948%,73.777771%,80.496216%);stop-opacity:1;"/>
<stop offset="0.117188" style="stop-color:rgb(7.348633%,73.614502%,80.522156%);stop-opacity:1;"/>
<stop offset="0.121094" style="stop-color:rgb(7.711792%,73.451233%,80.548096%);stop-opacity:1;"/>
<stop offset="0.125" style="stop-color:rgb(8.076477%,73.28949%,80.574036%);stop-opacity:1;"/>
<stop offset="0.128906" style="stop-color:rgb(8.441162%,73.126221%,80.599976%);stop-opacity:1;"/>
<stop offset="0.132812" style="stop-color:rgb(8.805847%,72.962952%,80.625916%);stop-opacity:1;"/>
<stop offset="0.136719" style="stop-color:rgb(9.170532%,72.799683%,80.651855%);stop-opacity:1;"/>
<stop offset="0.140625" style="stop-color:rgb(9.535217%,72.637939%,80.677795%);stop-opacity:1;"/>
<stop offset="0.144531" style="stop-color:rgb(9.898376%,72.47467%,80.703735%);stop-opacity:1;"/>
<stop offset="0.148438" style="stop-color:rgb(10.263062%,72.311401%,80.729675%);stop-opacity:1;"/>
<stop offset="0.152344" style="stop-color:rgb(10.627747%,72.148132%,80.755615%);stop-opacity:1;"/>
<stop offset="0.15625" style="stop-color:rgb(10.992432%,71.986389%,80.781555%);stop-opacity:1;"/>
<stop offset="0.160156" style="stop-color:rgb(11.357117%,71.82312%,80.807495%);stop-opacity:1;"/>
<stop offset="0.164063" style="stop-color:rgb(11.721802%,71.659851%,80.833435%);stop-opacity:1;"/>
<stop offset="0.167969" style="stop-color:rgb(12.086487%,71.496582%,80.859375%);stop-opacity:1;"/>
<stop offset="0.171875" style="stop-color:rgb(12.451172%,71.334839%,80.885315%);stop-opacity:1;"/>
<stop offset="0.175781" style="stop-color:rgb(12.814331%,71.17157%,80.909729%);stop-opacity:1;"/>
<stop offset="0.179688" style="stop-color:rgb(13.179016%,71.008301%,80.935669%);stop-opacity:1;"/>
<stop offset="0.183594" style="stop-color:rgb(13.543701%,70.845032%,80.961609%);stop-opacity:1;"/>
<stop offset="0.1875" style="stop-color:rgb(13.908386%,70.681763%,80.987549%);stop-opacity:1;"/>
<stop offset="0.191406" style="stop-color:rgb(14.273071%,70.518494%,81.013489%);stop-opacity:1;"/>
<stop offset="0.195313" style="stop-color:rgb(14.637756%,70.35675%,81.039429%);stop-opacity:1;"/>
<stop offset="0.199219" style="stop-color:rgb(15.000916%,70.193481%,81.065369%);stop-opacity:1;"/>
<stop offset="0.203125" style="stop-color:rgb(15.365601%,70.030212%,81.091309%);stop-opacity:1;"/>
<stop offset="0.207031" style="stop-color:rgb(15.730286%,69.866943%,81.117249%);stop-opacity:1;"/>
<stop offset="0.210938" style="stop-color:rgb(16.094971%,69.7052%,81.143188%);stop-opacity:1;"/>
<stop offset="0.214844" style="stop-color:rgb(16.459656%,69.541931%,81.169128%);stop-opacity:1;"/>
<stop offset="0.21875" style="stop-color:rgb(16.824341%,69.378662%,81.195068%);stop-opacity:1;"/>
<stop offset="0.222656" style="stop-color:rgb(17.189026%,69.215393%,81.221008%);stop-opacity:1;"/>
<stop offset="0.226563" style="stop-color:rgb(17.553711%,69.05365%,81.246948%);stop-opacity:1;"/>
<stop offset="0.230469" style="stop-color:rgb(17.91687%,68.890381%,81.272888%);stop-opacity:1;"/>
<stop offset="0.234375" style="stop-color:rgb(18.281555%,68.727112%,81.298828%);stop-opacity:1;"/>
<stop offset="0.238281" style="stop-color:rgb(18.64624%,68.563843%,81.324768%);stop-opacity:1;"/>
<stop offset="0.242188" style="stop-color:rgb(19.010925%,68.4021%,81.350708%);stop-opacity:1;"/>
<stop offset="0.246094" style="stop-color:rgb(19.37561%,68.238831%,81.376648%);stop-opacity:1;"/>
<stop offset="0.25" style="stop-color:rgb(19.740295%,68.075562%,81.402588%);stop-opacity:1;"/>
<stop offset="0.253906" style="stop-color:rgb(20.103455%,67.912292%,81.428528%);stop-opacity:1;"/>
<stop offset="0.257813" style="stop-color:rgb(20.46814%,67.750549%,81.454468%);stop-opacity:1;"/>
<stop offset="0.261719" style="stop-color:rgb(20.832825%,67.58728%,81.480408%);stop-opacity:1;"/>
<stop offset="0.265625" style="stop-color:rgb(21.19751%,67.424011%,81.506348%);stop-opacity:1;"/>
<stop offset="0.269531" style="stop-color:rgb(21.562195%,67.260742%,81.532288%);stop-opacity:1;"/>
<stop offset="0.273438" style="stop-color:rgb(21.92688%,67.098999%,81.558228%);stop-opacity:1;"/>
<stop offset="0.277344" style="stop-color:rgb(22.291565%,66.93573%,81.584167%);stop-opacity:1;"/>
<stop offset="0.28125" style="stop-color:rgb(22.65625%,66.772461%,81.610107%);stop-opacity:1;"/>
<stop offset="0.285156" style="stop-color:rgb(23.019409%,66.609192%,81.636047%);stop-opacity:1;"/>
<stop offset="0.289062" style="stop-color:rgb(23.384094%,66.447449%,81.661987%);stop-opacity:1;"/>
<stop offset="0.292969" style="stop-color:rgb(23.748779%,66.28418%,81.687927%);stop-opacity:1;"/>
<stop offset="0.296875" style="stop-color:rgb(24.113464%,66.120911%,81.713867%);stop-opacity:1;"/>
<stop offset="0.300781" style="stop-color:rgb(24.478149%,65.957642%,81.739807%);stop-opacity:1;"/>
<stop offset="0.304688" style="stop-color:rgb(24.842834%,65.795898%,81.765747%);stop-opacity:1;"/>
<stop offset="0.308594" style="stop-color:rgb(25.205994%,65.632629%,81.791687%);stop-opacity:1;"/>
<stop offset="0.3125" style="stop-color:rgb(25.570679%,65.46936%,81.817627%);stop-opacity:1;"/>
<stop offset="0.316406" style="stop-color:rgb(25.935364%,65.306091%,81.843567%);stop-opacity:1;"/>
<stop offset="0.320312" style="stop-color:rgb(26.300049%,65.144348%,81.869507%);stop-opacity:1;"/>
<stop offset="0.324219" style="stop-color:rgb(26.664734%,64.981079%,81.895447%);stop-opacity:1;"/>
<stop offset="0.328125" style="stop-color:rgb(27.029419%,64.81781%,81.921387%);stop-opacity:1;"/>
<stop offset="0.332031" style="stop-color:rgb(27.394104%,64.654541%,81.947327%);stop-opacity:1;"/>
<stop offset="0.335938" style="stop-color:rgb(27.758789%,64.492798%,81.973267%);stop-opacity:1;"/>
<stop offset="0.339844" style="stop-color:rgb(28.121948%,64.329529%,81.999207%);stop-opacity:1;"/>
<stop offset="0.34375" style="stop-color:rgb(28.486633%,64.16626%,82.025146%);stop-opacity:1;"/>
<stop offset="0.347656" style="stop-color:rgb(28.851318%,64.002991%,82.051086%);stop-opacity:1;"/>
<stop offset="0.351563" style="stop-color:rgb(29.216003%,63.841248%,82.077026%);stop-opacity:1;"/>
<stop offset="0.355469" style="stop-color:rgb(29.580688%,63.677979%,82.102966%);stop-opacity:1;"/>
<stop offset="0.359375" style="stop-color:rgb(29.945374%,63.514709%,82.128906%);stop-opacity:1;"/>
<stop offset="0.363281" style="stop-color:rgb(30.308533%,63.35144%,82.154846%);stop-opacity:1;"/>
<stop offset="0.367188" style="stop-color:rgb(30.673218%,63.189697%,82.180786%);stop-opacity:1;"/>
<stop offset="0.371094" style="stop-color:rgb(31.037903%,63.026428%,82.206726%);stop-opacity:1;"/>
<stop offset="0.375" style="stop-color:rgb(31.402588%,62.863159%,82.232666%);stop-opacity:1;"/>
<stop offset="0.378906" style="stop-color:rgb(31.767273%,62.69989%,82.258606%);stop-opacity:1;"/>
<stop offset="0.382813" style="stop-color:rgb(32.131958%,62.538147%,82.284546%);stop-opacity:1;"/>
<stop offset="0.386719" style="stop-color:rgb(32.496643%,62.374878%,82.310486%);stop-opacity:1;"/>
<stop offset="0.390625" style="stop-color:rgb(32.861328%,62.211609%,82.336426%);stop-opacity:1;"/>
<stop offset="0.394531" style="stop-color:rgb(33.224487%,62.04834%,82.362366%);stop-opacity:1;"/>
<stop offset="0.398438" style="stop-color:rgb(33.589172%,61.886597%,82.388306%);stop-opacity:1;"/>
<stop offset="0.402344" style="stop-color:rgb(33.953857%,61.723328%,82.414246%);stop-opacity:1;"/>
<stop offset="0.40625" style="stop-color:rgb(34.318542%,61.560059%,82.440186%);stop-opacity:1;"/>
<stop offset="0.410156" style="stop-color:rgb(34.683228%,61.39679%,82.466125%);stop-opacity:1;"/>
<stop offset="0.414063" style="stop-color:rgb(35.047913%,61.235046%,82.492065%);stop-opacity:1;"/>
<stop offset="0.417969" style="stop-color:rgb(35.411072%,61.071777%,82.518005%);stop-opacity:1;"/>
<stop offset="0.421875" style="stop-color:rgb(35.775757%,60.908508%,82.543945%);stop-opacity:1;"/>
<stop offset="0.425781" style="stop-color:rgb(36.140442%,60.745239%,82.568359%);stop-opacity:1;"/>
<stop offset="0.429688" style="stop-color:rgb(36.505127%,60.583496%,82.594299%);stop-opacity:1;"/>
<stop offset="0.433594" style="stop-color:rgb(36.869812%,60.420227%,82.620239%);stop-opacity:1;"/>
<stop offset="0.4375" style="stop-color:rgb(37.234497%,60.256958%,82.646179%);stop-opacity:1;"/>
<stop offset="0.441406" style="stop-color:rgb(37.599182%,60.093689%,82.672119%);stop-opacity:1;"/>
<stop offset="0.445313" style="stop-color:rgb(37.963867%,59.93042%,82.698059%);stop-opacity:1;"/>
<stop offset="0.449219" style="stop-color:rgb(38.327026%,59.767151%,82.723999%);stop-opacity:1;"/>
<stop offset="0.453125" style="stop-color:rgb(38.691711%,59.605408%,82.749939%);stop-opacity:1;"/>
<stop offset="0.457031" style="stop-color:rgb(39.056396%,59.442139%,82.775879%);stop-opacity:1;"/>
<stop offset="0.460938" style="stop-color:rgb(39.421082%,59.27887%,82.801819%);stop-opacity:1;"/>
<stop offset="0.464844" style="stop-color:rgb(39.785767%,59.115601%,82.827759%);stop-opacity:1;"/>
<stop offset="0.46875" style="stop-color:rgb(40.150452%,58.953857%,82.853699%);stop-opacity:1;"/>
<stop offset="0.472656" style="stop-color:rgb(40.513611%,58.790588%,82.879639%);stop-opacity:1;"/>
<stop offset="0.476562" style="stop-color:rgb(40.878296%,58.627319%,82.905579%);stop-opacity:1;"/>
<stop offset="0.480469" style="stop-color:rgb(41.242981%,58.46405%,82.931519%);stop-opacity:1;"/>
<stop offset="0.484375" style="stop-color:rgb(41.607666%,58.302307%,82.957458%);stop-opacity:1;"/>
<stop offset="0.488281" style="stop-color:rgb(41.972351%,58.139038%,82.983398%);stop-opacity:1;"/>
<stop offset="0.492188" style="stop-color:rgb(42.337036%,57.975769%,83.009338%);stop-opacity:1;"/>
<stop offset="0.496094" style="stop-color:rgb(42.701721%,57.8125%,83.035278%);stop-opacity:1;"/>
<stop offset="0.5" style="stop-color:rgb(43.066406%,57.650757%,83.061218%);stop-opacity:1;"/>
<stop offset="0.503906" style="stop-color:rgb(43.429565%,57.487488%,83.087158%);stop-opacity:1;"/>
<stop offset="0.507812" style="stop-color:rgb(43.79425%,57.324219%,83.113098%);stop-opacity:1;"/>
<stop offset="0.511719" style="stop-color:rgb(44.158936%,57.16095%,83.139038%);stop-opacity:1;"/>
<stop offset="0.515625" style="stop-color:rgb(44.523621%,56.999207%,83.164978%);stop-opacity:1;"/>
<stop offset="0.519531" style="stop-color:rgb(44.888306%,56.835938%,83.190918%);stop-opacity:1;"/>
<stop offset="0.523438" style="stop-color:rgb(45.252991%,56.672668%,83.216858%);stop-opacity:1;"/>
<stop offset="0.527344" style="stop-color:rgb(45.61615%,56.509399%,83.242798%);stop-opacity:1;"/>
<stop offset="0.53125" style="stop-color:rgb(45.980835%,56.347656%,83.268738%);stop-opacity:1;"/>
<stop offset="0.535156" style="stop-color:rgb(46.34552%,56.184387%,83.294678%);stop-opacity:1;"/>
<stop offset="0.539062" style="stop-color:rgb(46.710205%,56.021118%,83.320618%);stop-opacity:1;"/>
<stop offset="0.542969" style="stop-color:rgb(47.07489%,55.857849%,83.346558%);stop-opacity:1;"/>
<stop offset="0.546875" style="stop-color:rgb(47.439575%,55.696106%,83.372498%);stop-opacity:1;"/>
<stop offset="0.550781" style="stop-color:rgb(47.802734%,55.532837%,83.398438%);stop-opacity:1;"/>
<stop offset="0.554688" style="stop-color:rgb(48.167419%,55.369568%,83.424377%);stop-opacity:1;"/>
<stop offset="0.558594" style="stop-color:rgb(48.532104%,55.206299%,83.450317%);stop-opacity:1;"/>
<stop offset="0.5625" style="stop-color:rgb(48.89679%,55.044556%,83.476257%);stop-opacity:1;"/>
<stop offset="0.566406" style="stop-color:rgb(49.261475%,54.881287%,83.502197%);stop-opacity:1;"/>
<stop offset="0.570313" style="stop-color:rgb(49.62616%,54.718018%,83.528137%);stop-opacity:1;"/>
<stop offset="0.574219" style="stop-color:rgb(49.990845%,54.554749%,83.554077%);stop-opacity:1;"/>
<stop offset="0.578125" style="stop-color:rgb(50.35553%,54.393005%,83.580017%);stop-opacity:1;"/>
<stop offset="0.582031" style="stop-color:rgb(50.718689%,54.229736%,83.605957%);stop-opacity:1;"/>
<stop offset="0.585938" style="stop-color:rgb(51.083374%,54.066467%,83.631897%);stop-opacity:1;"/>
<stop offset="0.589844" style="stop-color:rgb(51.448059%,53.903198%,83.657837%);stop-opacity:1;"/>
<stop offset="0.59375" style="stop-color:rgb(51.812744%,53.741455%,83.683777%);stop-opacity:1;"/>
<stop offset="0.597656" style="stop-color:rgb(52.177429%,53.578186%,83.709717%);stop-opacity:1;"/>
<stop offset="0.601563" style="stop-color:rgb(52.542114%,53.414917%,83.735657%);stop-opacity:1;"/>
<stop offset="0.605469" style="stop-color:rgb(52.905273%,53.251648%,83.761597%);stop-opacity:1;"/>
<stop offset="0.609375" style="stop-color:rgb(53.269958%,53.089905%,83.787537%);stop-opacity:1;"/>
<stop offset="0.613281" style="stop-color:rgb(53.634644%,52.926636%,83.813477%);stop-opacity:1;"/>
<stop offset="0.617188" style="stop-color:rgb(53.999329%,52.763367%,83.839417%);stop-opacity:1;"/>
<stop offset="0.621094" style="stop-color:rgb(54.364014%,52.600098%,83.865356%);stop-opacity:1;"/>
<stop offset="0.625" style="stop-color:rgb(54.728699%,52.438354%,83.891296%);stop-opacity:1;"/>
<stop offset="0.628906" style="stop-color:rgb(55.093384%,52.275085%,83.917236%);stop-opacity:1;"/>
<stop offset="0.632813" style="stop-color:rgb(55.458069%,52.111816%,83.943176%);stop-opacity:1;"/>
<stop offset="0.636719" style="stop-color:rgb(55.821228%,51.948547%,83.969116%);stop-opacity:1;"/>
<stop offset="0.640625" style="stop-color:rgb(56.185913%,51.786804%,83.995056%);stop-opacity:1;"/>
<stop offset="0.644531" style="stop-color:rgb(56.550598%,51.623535%,84.020996%);stop-opacity:1;"/>
<stop offset="0.648438" style="stop-color:rgb(56.915283%,51.460266%,84.046936%);stop-opacity:1;"/>
<stop offset="0.652344" style="stop-color:rgb(57.279968%,51.296997%,84.072876%);stop-opacity:1;"/>
<stop offset="0.65625" style="stop-color:rgb(57.644653%,51.135254%,84.098816%);stop-opacity:1;"/>
<stop offset="0.660156" style="stop-color:rgb(58.007812%,50.971985%,84.124756%);stop-opacity:1;"/>
<stop offset="0.664063" style="stop-color:rgb(58.372498%,50.808716%,84.150696%);stop-opacity:1;"/>
<stop offset="0.667969" style="stop-color:rgb(58.737183%,50.645447%,84.176636%);stop-opacity:1;"/>
<stop offset="0.671875" style="stop-color:rgb(59.101868%,50.483704%,84.202576%);stop-opacity:1;"/>
<stop offset="0.675781" style="stop-color:rgb(59.466553%,50.320435%,84.22699%);stop-opacity:1;"/>
<stop offset="0.679688" style="stop-color:rgb(59.831238%,50.157166%,84.25293%);stop-opacity:1;"/>
<stop offset="0.683594" style="stop-color:rgb(60.195923%,49.993896%,84.27887%);stop-opacity:1;"/>
<stop offset="0.6875" style="stop-color:rgb(60.560608%,49.832153%,84.30481%);stop-opacity:1;"/>
<stop offset="0.691406" style="stop-color:rgb(60.923767%,49.668884%,84.33075%);stop-opacity:1;"/>
<stop offset="0.695312" style="stop-color:rgb(61.288452%,49.505615%,84.356689%);stop-opacity:1;"/>
<stop offset="0.699219" style="stop-color:rgb(61.653137%,49.342346%,84.382629%);stop-opacity:1;"/>
<stop offset="0.703125" style="stop-color:rgb(62.017822%,49.180603%,84.408569%);stop-opacity:1;"/>
<stop offset="0.707031" style="stop-color:rgb(62.382507%,49.017334%,84.434509%);stop-opacity:1;"/>
<stop offset="0.710938" style="stop-color:rgb(62.747192%,48.854065%,84.460449%);stop-opacity:1;"/>
<stop offset="0.714844" style="stop-color:rgb(63.110352%,48.690796%,84.486389%);stop-opacity:1;"/>
<stop offset="0.71875" style="stop-color:rgb(63.475037%,48.527527%,84.512329%);stop-opacity:1;"/>
<stop offset="0.722656" style="stop-color:rgb(63.839722%,48.364258%,84.538269%);stop-opacity:1;"/>
<stop offset="0.726563" style="stop-color:rgb(64.204407%,48.202515%,84.564209%);stop-opacity:1;"/>
<stop offset="0.730469" style="stop-color:rgb(64.569092%,48.039246%,84.590149%);stop-opacity:1;"/>
<stop offset="0.734375" style="stop-color:rgb(64.933777%,47.875977%,84.616089%);stop-opacity:1;"/>
<stop offset="0.738281" style="stop-color:rgb(65.298462%,47.712708%,84.642029%);stop-opacity:1;"/>
<stop offset="0.742188" style="stop-color:rgb(65.663147%,47.550964%,84.667969%);stop-opacity:1;"/>
<stop offset="0.746094" style="stop-color:rgb(66.026306%,47.387695%,84.693909%);stop-opacity:1;"/>
<stop offset="0.75" style="stop-color:rgb(66.390991%,47.224426%,84.719849%);stop-opacity:1;"/>
<stop offset="0.753906" style="stop-color:rgb(66.755676%,47.061157%,84.745789%);stop-opacity:1;"/>
<stop offset="0.757813" style="stop-color:rgb(67.120361%,46.899414%,84.771729%);stop-opacity:1;"/>
<stop offset="0.761719" style="stop-color:rgb(67.485046%,46.736145%,84.797668%);stop-opacity:1;"/>
<stop offset="0.765625" style="stop-color:rgb(67.849731%,46.572876%,84.823608%);stop-opacity:1;"/>
<stop offset="0.769531" style="stop-color:rgb(68.212891%,46.409607%,84.849548%);stop-opacity:1;"/>
<stop offset="0.773438" style="stop-color:rgb(68.577576%,46.247864%,84.875488%);stop-opacity:1;"/>
<stop offset="0.777344" style="stop-color:rgb(68.942261%,46.084595%,84.901428%);stop-opacity:1;"/>
<stop offset="0.78125" style="stop-color:rgb(69.306946%,45.921326%,84.927368%);stop-opacity:1;"/>
<stop offset="0.785156" style="stop-color:rgb(69.671631%,45.758057%,84.953308%);stop-opacity:1;"/>
<stop offset="0.789062" style="stop-color:rgb(70.036316%,45.596313%,84.979248%);stop-opacity:1;"/>
<stop offset="0.792969" style="stop-color:rgb(70.401001%,45.433044%,85.005188%);stop-opacity:1;"/>
<stop offset="0.796875" style="stop-color:rgb(70.765686%,45.269775%,85.031128%);stop-opacity:1;"/>
<stop offset="0.800781" style="stop-color:rgb(71.128845%,45.106506%,85.057068%);stop-opacity:1;"/>
<stop offset="0.804688" style="stop-color:rgb(71.49353%,44.944763%,85.083008%);stop-opacity:1;"/>
<stop offset="0.808594" style="stop-color:rgb(71.858215%,44.781494%,85.108948%);stop-opacity:1;"/>
<stop offset="0.8125" style="stop-color:rgb(72.2229%,44.618225%,85.134888%);stop-opacity:1;"/>
<stop offset="0.816406" style="stop-color:rgb(72.587585%,44.454956%,85.160828%);stop-opacity:1;"/>
<stop offset="0.820312" style="stop-color:rgb(72.952271%,44.293213%,85.186768%);stop-opacity:1;"/>
<stop offset="0.824219" style="stop-color:rgb(73.31543%,44.129944%,85.212708%);stop-opacity:1;"/>
<stop offset="0.828125" style="stop-color:rgb(73.680115%,43.966675%,85.238647%);stop-opacity:1;"/>
<stop offset="0.832031" style="stop-color:rgb(74.0448%,43.803406%,85.264587%);stop-opacity:1;"/>
<stop offset="0.835938" style="stop-color:rgb(74.409485%,43.641663%,85.290527%);stop-opacity:1;"/>
<stop offset="0.839844" style="stop-color:rgb(74.77417%,43.478394%,85.316467%);stop-opacity:1;"/>
<stop offset="0.84375" style="stop-color:rgb(75.138855%,43.315125%,85.342407%);stop-opacity:1;"/>
<stop offset="0.847656" style="stop-color:rgb(75.50354%,43.151855%,85.368347%);stop-opacity:1;"/>
<stop offset="0.851562" style="stop-color:rgb(75.868225%,42.990112%,85.394287%);stop-opacity:1;"/>
<stop offset="0.855469" style="stop-color:rgb(76.231384%,42.826843%,85.420227%);stop-opacity:1;"/>
<stop offset="0.859375" style="stop-color:rgb(76.596069%,42.663574%,85.446167%);stop-opacity:1;"/>
<stop offset="0.863281" style="stop-color:rgb(76.960754%,42.500305%,85.472107%);stop-opacity:1;"/>
<stop offset="0.867188" style="stop-color:rgb(77.325439%,42.338562%,85.498047%);stop-opacity:1;"/>
<stop offset="0.871094" style="stop-color:rgb(77.690125%,42.175293%,85.523987%);stop-opacity:1;"/>
<stop offset="0.875" style="stop-color:rgb(78.05481%,42.012024%,85.549927%);stop-opacity:1;"/>
<stop offset="0.878906" style="stop-color:rgb(78.417969%,41.848755%,85.575867%);stop-opacity:1;"/>
<stop offset="0.882813" style="stop-color:rgb(78.782654%,41.687012%,85.601807%);stop-opacity:1;"/>
<stop offset="0.886719" style="stop-color:rgb(79.147339%,41.523743%,85.627747%);stop-opacity:1;"/>
<stop offset="0.890625" style="stop-color:rgb(79.512024%,41.360474%,85.653687%);stop-opacity:1;"/>
<stop offset="0.894531" style="stop-color:rgb(79.876709%,41.197205%,85.679626%);stop-opacity:1;"/>
<stop offset="0.898438" style="stop-color:rgb(80.241394%,41.035461%,85.705566%);stop-opacity:1;"/>
<stop offset="0.902344" style="stop-color:rgb(80.606079%,40.872192%,85.731506%);stop-opacity:1;"/>
<stop offset="0.90625" style="stop-color:rgb(80.970764%,40.708923%,85.757446%);stop-opacity:1;"/>
<stop offset="0.910156" style="stop-color:rgb(81.333923%,40.545654%,85.783386%);stop-opacity:1;"/>
<stop offset="0.914063" style="stop-color:rgb(81.698608%,40.383911%,85.809326%);stop-opacity:1;"/>
<stop offset="0.917969" style="stop-color:rgb(82.063293%,40.220642%,85.83374%);stop-opacity:1;"/>
<stop offset="0.921875" style="stop-color:rgb(82.427979%,40.057373%,85.85968%);stop-opacity:1;"/>
<stop offset="0.925781" style="stop-color:rgb(82.792664%,39.894104%,85.88562%);stop-opacity:1;"/>
<stop offset="0.929688" style="stop-color:rgb(83.157349%,39.732361%,85.91156%);stop-opacity:1;"/>
<stop offset="0.933594" style="stop-color:rgb(83.520508%,39.569092%,85.9375%);stop-opacity:1;"/>
<stop offset="0.9375" style="stop-color:rgb(83.885193%,39.405823%,85.96344%);stop-opacity:1;"/>
<stop offset="0.941406" style="stop-color:rgb(84.249878%,39.242554%,85.98938%);stop-opacity:1;"/>
<stop offset="0.945313" style="stop-color:rgb(84.614563%,39.080811%,86.01532%);stop-opacity:1;"/>
<stop offset="0.949219" style="stop-color:rgb(84.979248%,38.917542%,86.04126%);stop-opacity:1;"/>
<stop offset="0.953125" style="stop-color:rgb(85.343933%,38.754272%,86.0672%);stop-opacity:1;"/>
<stop offset="0.957031" style="stop-color:rgb(85.708618%,38.591003%,86.09314%);stop-opacity:1;"/>
<stop offset="0.960938" style="stop-color:rgb(86.073303%,38.42926%,86.11908%);stop-opacity:1;"/>
<stop offset="0.964844" style="stop-color:rgb(86.436462%,38.265991%,86.14502%);stop-opacity:1;"/>
<stop offset="0.96875" style="stop-color:rgb(86.801147%,38.102722%,86.170959%);stop-opacity:1;"/>
<stop offset="0.972656" style="stop-color:rgb(87.165833%,37.939453%,86.196899%);stop-opacity:1;"/>
<stop offset="0.976562" style="stop-color:rgb(87.530518%,37.776184%,86.222839%);stop-opacity:1;"/>
<stop offset="0.980469" style="stop-color:rgb(87.895203%,37.612915%,86.248779%);stop-opacity:1;"/>
<stop offset="0.984375" style="stop-color:rgb(88.259888%,37.451172%,86.274719%);stop-opacity:1;"/>
<stop offset="1" style="stop-color:rgb(88.42926%,37.374878%,86.286926%);stop-opacity:1;"/>
</linearGradient>
<clipPath id="clip3">
  <path d="M 564 254 L 915 254 L 915 552.910156 L 564 552.910156 Z M 564 254 "/>
</clipPath>
<clipPath id="clip4">
  <path d="M 859 513 L 900 513 L 900 552.910156 L 859 552.910156 Z M 859 513 "/>
</clipPath>
<clipPath id="clip5">
  <path d="M 919 480 L 980.828125 480 L 980.828125 542 L 919 542 Z M 919 480 "/>
</clipPath>
<clipPath id="clip6">
  <path d="M 538.328125 347 L 560 347 L 560 369 L 538.328125 369 Z M 538.328125 347 "/>
</clipPath>
<clipPath id="clip7">
  <path d="M 776 228.910156 L 798 228.910156 L 798 250 L 776 250 Z M 776 228.910156 "/>
</clipPath>
</defs>
<g id="surface1">
<g clip-path="url(#clip1)" clip-rule="nonzero">
<g clip-path="url(#clip2)" clip-rule="nonzero">
<path style=" stroke:none;fill-rule:nonzero;fill:url(#linear0);" d="M 569.703125 253.667969 L 569.703125 538.238281 L 898.984375 538.238281 L 898.984375 253.667969 Z M 569.703125 253.667969 "/>
</g>
</g>
<g clip-path="url(#clip3)" clip-rule="nonzero">
<path style=" stroke:none;fill-rule:nonzero;fill:rgb(100%,100%,100%);fill-opacity:1;" d="M 662.386719 552.605469 C 661.621094 552.605469 660.855469 551.992188 660.855469 551.230469 C 660.855469 550.3125 661.46875 549.703125 662.234375 549.546875 C 665.292969 549.394531 668.199219 548.9375 671.105469 548.324219 C 671.867188 548.171875 672.785156 548.632812 672.9375 549.546875 C 673.09375 550.3125 672.632812 551.230469 671.714844 551.382812 C 668.808594 551.992188 665.75 552.453125 662.386719 552.605469 C 662.539062 552.605469 662.539062 552.605469 662.386719 552.605469 Z M 650.304688 552.605469 C 650.152344 552.605469 650.152344 552.605469 650.304688 552.605469 C 647.09375 552.300781 644.035156 551.839844 640.976562 551.230469 C 640.210938 551.078125 639.597656 550.3125 639.75 549.394531 C 639.90625 548.632812 640.667969 548.019531 641.585938 548.171875 C 644.492188 548.785156 647.550781 549.242188 650.457031 549.394531 C 651.375 549.394531 651.988281 550.160156 651.832031 551.078125 C 651.679688 551.992188 651.070312 552.605469 650.304688 552.605469 Z M 629.351562 548.019531 C 629.199219 548.019531 629.046875 548.019531 628.894531 547.867188 C 625.988281 546.796875 623.082031 545.574219 620.328125 544.199219 C 619.5625 543.894531 619.257812 542.976562 619.5625 542.210938 C 619.871094 541.449219 620.785156 541.144531 621.550781 541.449219 C 624.304688 542.671875 627.058594 543.894531 629.808594 544.964844 C 630.574219 545.269531 631.035156 546.1875 630.726562 546.949219 C 630.574219 547.5625 629.964844 548.019531 629.351562 548.019531 Z M 683.1875 547.867188 C 682.574219 547.867188 681.960938 547.5625 681.808594 546.949219 C 681.503906 546.1875 681.960938 545.269531 682.726562 544.964844 C 685.480469 543.894531 688.386719 542.671875 691.140625 541.449219 C 691.902344 541.144531 692.820312 541.449219 693.128906 542.210938 C 693.433594 542.976562 693.128906 543.894531 692.363281 544.199219 C 689.609375 545.421875 686.703125 546.644531 683.796875 547.714844 C 683.644531 547.867188 683.492188 547.867188 683.1875 547.867188 Z M 702.761719 539.003906 C 702.152344 539.003906 701.691406 538.699219 701.386719 538.238281 C 700.925781 537.476562 701.234375 536.558594 701.996094 536.101562 C 704.445312 534.722656 706.890625 533.347656 709.949219 531.667969 C 710.714844 531.210938 711.632812 531.515625 712.089844 532.277344 C 712.550781 533.042969 712.246094 533.960938 711.480469 534.417969 C 708.421875 536.253906 705.972656 537.628906 703.527344 539.003906 Z M 610.234375 538.390625 C 609.929688 538.390625 609.621094 538.238281 609.316406 538.085938 C 606.714844 536.40625 604.269531 534.417969 601.824219 532.585938 C 601.210938 531.972656 601.058594 531.054688 601.667969 530.445312 C 602.28125 529.832031 603.199219 529.679688 603.8125 530.292969 C 606.105469 532.277344 608.550781 533.960938 611 535.640625 C 611.761719 536.101562 611.917969 537.015625 611.457031 537.78125 C 611.304688 538.238281 610.847656 538.390625 610.234375 538.390625 Z M 721.113281 528.304688 C 720.65625 528.304688 720.042969 528 719.738281 527.542969 C 719.28125 526.777344 719.585938 525.859375 720.351562 525.402344 C 723.410156 523.566406 726.007812 522.191406 728.457031 520.96875 C 729.222656 520.664062 730.136719 520.96875 730.445312 521.734375 C 730.75 522.496094 730.445312 523.414062 729.679688 523.71875 C 727.234375 524.941406 724.785156 526.320312 721.726562 528 C 721.726562 528.152344 721.421875 528.304688 721.113281 528.304688 Z M 594.023438 524.484375 C 593.5625 524.484375 593.257812 524.332031 592.953125 524.027344 C 590.8125 521.734375 588.824219 519.289062 586.988281 516.84375 C 586.527344 516.230469 586.679688 515.160156 587.292969 514.703125 C 587.90625 514.246094 588.976562 514.398438 589.433594 515.007812 C 591.269531 517.453125 593.257812 519.746094 595.246094 521.886719 C 595.859375 522.496094 595.703125 523.414062 595.09375 524.027344 C 594.789062 524.332031 594.480469 524.484375 594.023438 524.484375 Z M 740.539062 519.289062 C 739.925781 519.289062 739.316406 518.828125 739.007812 518.21875 C 738.703125 517.453125 739.160156 516.539062 740.078125 516.230469 C 742.984375 515.316406 746.042969 514.550781 749.101562 514.09375 C 749.867188 513.9375 750.785156 514.550781 750.9375 515.316406 C 751.089844 516.078125 750.480469 516.996094 749.714844 517.148438 C 746.65625 517.605469 743.902344 518.371094 740.996094 519.289062 Z M 792.078125 517.605469 C 789.019531 517.605469 785.808594 517.300781 782.75 517.148438 C 781.832031 517.148438 781.21875 516.382812 781.375 515.46875 C 781.375 514.550781 782.136719 513.9375 783.054688 514.09375 C 786.113281 514.398438 789.171875 514.550781 792.078125 514.550781 C 792.996094 514.550781 793.609375 515.316406 793.609375 516.078125 C 793.609375 516.84375 792.996094 517.605469 792.078125 517.605469 Z M 804.3125 517.300781 C 803.550781 517.300781 802.785156 516.691406 802.785156 515.925781 C 802.785156 515.007812 803.398438 514.398438 804.160156 514.246094 C 807.21875 514.09375 810.277344 513.785156 813.183594 513.328125 C 814.101562 513.175781 814.714844 513.785156 814.867188 514.703125 C 815.019531 515.46875 814.410156 516.230469 813.492188 516.382812 C 810.585938 516.84375 807.527344 517.148438 804.3125 517.300781 C 804.46875 517.300781 804.3125 517.300781 804.3125 517.300781 Z M 770.820312 516.078125 C 770.667969 516.078125 770.667969 516.078125 770.820312 516.078125 C 767.609375 515.925781 764.550781 515.925781 761.644531 516.078125 C 760.878906 516.078125 760.113281 515.46875 760.113281 514.550781 C 760.113281 513.632812 760.726562 513.023438 761.644531 513.023438 C 764.550781 512.871094 767.761719 513.023438 770.972656 513.023438 C 771.890625 513.023438 772.503906 513.785156 772.503906 514.550781 C 772.195312 515.46875 771.585938 516.078125 770.820312 516.078125 Z M 825.574219 514.246094 C 824.808594 514.246094 824.195312 513.785156 824.042969 513.023438 C 823.890625 512.257812 824.347656 511.339844 825.265625 511.1875 C 828.171875 510.578125 831.230469 509.660156 833.984375 508.894531 C 834.75 508.589844 835.667969 509.046875 835.972656 509.964844 C 836.277344 510.730469 835.820312 511.648438 834.902344 511.953125 C 831.996094 512.871094 828.9375 513.632812 825.878906 514.398438 C 825.726562 514.246094 825.574219 514.246094 825.574219 514.246094 Z M 845.914062 507.671875 C 845.300781 507.671875 844.691406 507.367188 844.539062 506.757812 C 844.230469 505.992188 844.539062 505.074219 845.300781 504.769531 C 848.054688 503.546875 850.808594 502.171875 853.40625 500.796875 C 854.171875 500.335938 855.089844 500.644531 855.550781 501.40625 C 856.007812 502.171875 855.703125 503.089844 854.9375 503.546875 C 852.183594 505.074219 849.429688 506.449219 846.527344 507.671875 Z M 581.480469 507.214844 C 581.023438 507.214844 580.410156 506.910156 580.105469 506.449219 C 578.574219 503.851562 577.199219 500.949219 575.824219 498.199219 C 575.515625 497.433594 575.824219 496.515625 576.585938 496.210938 C 577.351562 495.90625 578.269531 496.210938 578.574219 496.976562 C 579.800781 499.726562 581.175781 502.476562 582.703125 504.921875 C 583.164062 505.6875 582.859375 506.601562 582.09375 507.0625 C 582.09375 507.214844 581.789062 507.214844 581.480469 507.214844 Z M 864.417969 497.128906 C 863.960938 497.128906 863.5 496.976562 863.195312 496.515625 C 862.738281 495.90625 862.890625 494.835938 863.5 494.378906 C 865.949219 492.695312 868.242188 490.710938 870.539062 488.722656 C 871.148438 488.109375 872.066406 488.265625 872.679688 488.875 C 873.289062 489.488281 873.136719 490.402344 872.523438 491.015625 C 870.230469 493 867.785156 494.988281 865.183594 496.824219 C 865.03125 496.976562 864.726562 497.128906 864.417969 497.128906 Z M 572.765625 487.804688 C 572.152344 487.804688 571.539062 487.347656 571.386719 486.734375 C 570.46875 483.832031 569.550781 480.929688 568.789062 477.871094 C 568.632812 477.105469 569.09375 476.191406 569.859375 476.039062 C 570.621094 475.882812 571.539062 476.34375 571.691406 477.105469 C 572.457031 480.011719 573.222656 482.914062 574.292969 485.820312 C 574.597656 486.582031 574.140625 487.5 573.375 487.804688 Z M 880.324219 482.761719 C 880.019531 482.761719 879.5625 482.609375 879.253906 482.304688 C 878.644531 481.691406 878.644531 480.773438 879.101562 480.164062 C 881.089844 478.023438 882.925781 475.578125 884.761719 473.132812 C 885.21875 472.523438 886.289062 472.371094 886.902344 472.828125 C 887.511719 473.285156 887.667969 474.355469 887.207031 474.96875 C 885.371094 477.414062 883.382812 479.859375 881.394531 482.152344 C 881.089844 482.609375 880.632812 482.761719 880.324219 482.761719 Z M 567.71875 467.019531 C 566.953125 467.019531 566.339844 466.410156 566.1875 465.796875 C 565.730469 462.742188 565.269531 459.683594 564.964844 456.628906 C 564.8125 455.863281 565.574219 455.097656 566.339844 454.945312 C 567.257812 454.792969 567.871094 455.558594 568.023438 456.320312 C 568.328125 459.378906 568.632812 462.433594 569.09375 465.339844 C 569.246094 466.101562 568.632812 467.019531 567.871094 467.019531 Z M 892.867188 465.492188 C 892.558594 465.492188 892.40625 465.492188 892.101562 465.339844 C 891.335938 464.878906 891.183594 463.964844 891.488281 463.199219 C 893.019531 460.601562 894.394531 458.003906 895.773438 455.253906 C 896.078125 454.488281 896.996094 454.183594 897.761719 454.488281 C 898.523438 454.792969 898.832031 455.710938 898.523438 456.476562 C 897.148438 459.226562 895.621094 461.976562 894.089844 464.574219 C 893.785156 465.1875 893.324219 465.492188 892.867188 465.492188 Z M 902.042969 446.234375 C 901.890625 446.234375 901.738281 446.234375 901.429688 446.082031 C 900.667969 445.777344 900.207031 444.859375 900.511719 444.097656 C 901.582031 441.34375 902.5 438.441406 903.417969 435.539062 C 903.726562 434.773438 904.488281 434.316406 905.40625 434.46875 C 906.171875 434.773438 906.632812 435.539062 906.476562 436.453125 C 905.558594 439.511719 904.488281 442.414062 903.417969 445.164062 C 903.113281 445.929688 902.65625 446.234375 902.042969 446.234375 Z M 565.882812 445.777344 C 565.117188 445.777344 564.351562 445.164062 564.351562 444.25 C 564.199219 441.652344 564.199219 438.898438 564.199219 436.148438 L 564.199219 435.078125 C 564.199219 434.160156 564.8125 433.550781 565.730469 433.550781 C 566.644531 433.550781 567.257812 434.316406 567.257812 435.078125 L 567.257812 436.148438 C 567.257812 438.746094 567.257812 441.496094 567.410156 444.097656 C 567.5625 445.011719 566.800781 445.777344 565.882812 445.777344 C 566.035156 445.777344 566.035156 445.777344 565.882812 445.777344 Z M 908.160156 425.757812 L 907.855469 425.757812 C 907.089844 425.601562 906.476562 424.6875 906.785156 423.921875 C 907.394531 421.019531 908.007812 418.113281 908.621094 415.058594 C 908.773438 414.292969 909.535156 413.683594 910.453125 413.835938 C 911.21875 413.988281 911.832031 414.753906 911.679688 415.667969 C 911.066406 418.726562 910.453125 421.78125 909.84375 424.6875 C 909.382812 425.296875 908.773438 425.757812 908.160156 425.757812 Z M 566.1875 424.378906 C 566.1875 424.378906 566.035156 424.378906 566.1875 424.378906 C 565.269531 424.378906 564.65625 423.617188 564.65625 422.851562 C 564.8125 419.796875 564.964844 416.738281 565.269531 413.683594 C 565.269531 412.917969 566.035156 412.152344 566.953125 412.308594 C 567.871094 412.308594 568.480469 413.070312 568.328125 413.988281 C 568.023438 417.042969 567.871094 420.101562 567.71875 423.15625 C 567.5625 423.769531 566.953125 424.378906 566.1875 424.378906 Z M 911.832031 404.664062 L 911.679688 404.664062 C 910.914062 404.511719 910.300781 403.75 910.300781 402.984375 C 910.605469 400.082031 910.914062 397.023438 911.21875 393.96875 C 911.21875 393.203125 911.984375 392.4375 912.902344 392.59375 C 913.820312 392.59375 914.429688 393.355469 914.277344 394.273438 L 913.359375 403.441406 C 913.207031 404.207031 912.59375 404.664062 911.832031 404.664062 Z M 568.023438 402.984375 L 567.871094 402.984375 C 567.105469 402.832031 566.492188 402.066406 566.492188 401.304688 C 566.800781 398.246094 567.257812 395.191406 567.71875 392.132812 C 567.871094 391.371094 568.632812 390.757812 569.398438 390.910156 C 570.164062 391.0625 570.777344 391.828125 570.621094 392.59375 C 570.164062 395.648438 569.707031 398.550781 569.398438 401.609375 C 569.398438 402.527344 568.789062 402.984375 568.023438 402.984375 Z M 913.359375 383.421875 C 912.441406 383.421875 911.832031 382.65625 911.832031 381.894531 L 911.832031 372.875 C 911.832031 371.960938 912.441406 371.347656 913.359375 371.347656 C 914.125 371.347656 914.890625 371.960938 914.890625 372.875 L 914.890625 382.199219 C 914.890625 382.8125 914.125 383.421875 913.359375 383.421875 Z M 571.386719 381.894531 L 571.082031 381.894531 C 570.316406 381.742188 569.707031 380.976562 569.859375 380.058594 C 570.46875 377.003906 571.082031 374.097656 571.847656 371.042969 C 572 370.277344 572.917969 369.667969 573.679688 369.972656 C 574.445312 370.125 575.058594 371.042969 574.753906 371.808594 C 573.988281 374.710938 573.375 377.765625 572.765625 380.671875 C 572.765625 381.433594 572.152344 381.894531 571.386719 381.894531 Z M 912.59375 362.027344 C 911.832031 362.027344 911.21875 361.414062 911.066406 360.652344 C 910.761719 357.59375 910.453125 354.539062 909.996094 351.632812 C 909.84375 350.871094 910.453125 349.953125 911.21875 349.953125 C 911.984375 349.800781 912.902344 350.410156 912.902344 351.175781 C 913.359375 354.078125 913.820312 357.289062 913.972656 360.34375 C 914.277344 361.261719 913.667969 362.027344 912.59375 362.027344 C 912.75 362.027344 912.75 362.027344 912.59375 362.027344 Z M 576.433594 361.109375 L 575.976562 361.109375 C 575.210938 360.804688 574.753906 360.039062 574.90625 359.273438 C 575.667969 356.371094 576.585938 353.316406 577.65625 350.410156 C 577.964844 349.648438 578.730469 349.1875 579.644531 349.492188 C 580.410156 349.800781 580.871094 350.5625 580.5625 351.480469 C 579.644531 354.382812 578.730469 357.289062 577.964844 360.191406 C 577.65625 360.652344 577.046875 361.109375 576.433594 361.109375 Z M 909.078125 341.089844 C 908.464844 341.089844 907.703125 340.628906 907.546875 339.867188 C 906.785156 336.960938 905.867188 334.058594 904.949219 331.152344 C 904.644531 330.390625 905.101562 329.472656 905.867188 329.167969 C 906.632812 328.863281 907.546875 329.320312 907.855469 330.085938 C 908.773438 332.988281 909.691406 335.890625 910.453125 338.949219 C 910.605469 339.710938 910.148438 340.628906 909.382812 340.78125 C 909.382812 340.933594 909.230469 341.089844 909.078125 341.089844 Z M 583.164062 340.78125 C 583.011719 340.78125 582.859375 340.78125 582.550781 340.628906 C 581.789062 340.324219 581.328125 339.40625 581.632812 338.644531 C 582.703125 335.738281 583.929688 332.835938 585 330.085938 C 585.304688 329.320312 586.222656 329.015625 586.988281 329.320312 C 587.753906 329.625 588.058594 330.542969 587.753906 331.308594 C 586.527344 334.058594 585.457031 336.960938 584.386719 339.710938 C 584.386719 340.476562 583.777344 340.78125 583.164062 340.78125 Z M 591.574219 321.21875 C 591.421875 321.21875 591.117188 321.21875 590.964844 321.066406 C 590.199219 320.761719 589.894531 319.84375 590.199219 319.082031 C 591.574219 316.328125 592.953125 313.578125 594.480469 310.828125 C 594.941406 310.0625 595.859375 309.757812 596.621094 310.214844 C 597.386719 310.675781 597.691406 311.59375 597.234375 312.355469 C 595.859375 314.953125 594.328125 317.707031 592.953125 320.457031 C 592.800781 320.914062 592.1875 321.21875 591.574219 321.21875 Z M 901.890625 320.914062 C 901.277344 320.914062 900.820312 320.609375 900.511719 319.996094 C 899.136719 317.246094 897.761719 314.648438 896.230469 312.050781 C 895.773438 311.285156 896.078125 310.371094 896.691406 309.910156 C 897.453125 309.453125 898.371094 309.757812 898.832031 310.371094 C 900.359375 312.96875 901.890625 315.71875 903.265625 318.46875 C 903.570312 319.234375 903.265625 320.152344 902.5 320.457031 C 902.347656 320.914062 902.042969 320.914062 901.890625 320.914062 Z M 890.417969 302.878906 C 889.960938 302.878906 889.5 302.726562 889.195312 302.269531 C 887.359375 299.976562 885.21875 297.683594 883.078125 295.699219 C 882.464844 295.085938 882.464844 294.167969 883.078125 293.558594 C 883.691406 292.945312 884.609375 292.945312 885.21875 293.558594 C 887.359375 295.699219 889.5 297.988281 891.488281 300.433594 C 891.949219 301.046875 891.949219 302.117188 891.335938 302.574219 C 891.183594 302.878906 890.878906 302.878906 890.417969 302.878906 Z M 602.128906 302.574219 C 601.824219 302.574219 601.515625 302.421875 601.363281 302.269531 C 600.597656 301.8125 600.445312 300.894531 600.90625 300.128906 C 602.585938 297.53125 604.421875 294.933594 606.257812 292.488281 C 606.714844 291.875 607.785156 291.722656 608.398438 292.183594 C 609.011719 292.640625 609.164062 293.710938 608.703125 294.320312 C 607.023438 296.613281 605.1875 299.210938 603.503906 301.8125 C 603.199219 302.269531 602.738281 302.574219 602.128906 302.574219 Z M 874.972656 288.210938 C 874.667969 288.210938 874.359375 288.054688 874.054688 287.902344 C 871.609375 286.070312 869.160156 284.386719 866.5625 282.859375 C 865.796875 282.402344 865.644531 281.484375 866.101562 280.71875 C 866.5625 279.957031 867.476562 279.804688 868.242188 280.261719 C 870.996094 281.789062 873.597656 283.625 876.042969 285.457031 C 876.65625 285.917969 876.808594 286.988281 876.347656 287.597656 C 875.890625 288.054688 875.429688 288.210938 874.972656 288.210938 Z M 615.128906 285.609375 C 614.820312 285.609375 614.363281 285.457031 614.058594 285.152344 C 613.445312 284.542969 613.445312 283.625 613.90625 283.011719 C 616.046875 280.71875 618.339844 278.429688 620.480469 276.441406 C 621.09375 275.828125 622.011719 275.984375 622.621094 276.59375 C 623.234375 277.207031 623.082031 278.121094 622.46875 278.734375 C 620.328125 280.71875 618.1875 282.859375 616.046875 285.152344 C 616.046875 285.457031 615.585938 285.609375 615.128906 285.609375 Z M 856.464844 277.511719 C 856.3125 277.511719 856.007812 277.511719 855.855469 277.359375 C 853.101562 276.136719 850.347656 275.066406 847.441406 273.996094 C 846.679688 273.691406 846.21875 272.925781 846.527344 272.007812 C 846.832031 271.246094 847.597656 270.785156 848.515625 271.09375 C 851.417969 272.160156 854.324219 273.230469 857.230469 274.453125 C 857.996094 274.761719 858.300781 275.675781 857.996094 276.441406 C 857.691406 277.207031 857.078125 277.511719 856.464844 277.511719 Z M 631.339844 271.550781 C 630.882812 271.550781 630.421875 271.246094 630.117188 270.785156 C 629.65625 270.023438 629.808594 269.105469 630.574219 268.648438 C 633.328125 266.8125 636.082031 265.4375 638.832031 264.214844 C 640.667969 263.449219 642.65625 262.6875 644.644531 261.921875 C 645.410156 261.617188 646.328125 262.074219 646.632812 262.839844 C 646.941406 263.601562 646.480469 264.519531 645.714844 264.824219 C 643.574219 265.589844 641.738281 266.355469 639.90625 267.117188 C 637.304688 268.1875 634.703125 269.714844 632.105469 271.398438 C 631.953125 271.550781 631.644531 271.550781 631.339844 271.550781 Z M 836.125 270.785156 L 835.820312 270.785156 C 832.914062 270.175781 829.855469 269.5625 826.949219 268.953125 C 826.183594 268.800781 825.574219 268.035156 825.726562 267.269531 C 825.878906 266.507812 826.644531 265.894531 827.410156 266.046875 C 830.46875 266.507812 833.527344 267.117188 836.585938 267.882812 C 837.347656 268.035156 837.960938 268.953125 837.65625 269.714844 C 837.503906 270.328125 836.890625 270.785156 836.125 270.785156 Z M 815.019531 267.578125 C 815.019531 267.578125 814.867188 267.578125 815.019531 267.578125 C 814.101562 267.578125 813.183594 267.425781 812.421875 267.425781 C 810.433594 267.269531 808.136719 267.117188 805.691406 266.964844 C 804.925781 266.8125 804.160156 266.203125 804.3125 265.285156 C 804.46875 264.519531 805.078125 263.757812 805.996094 263.910156 C 808.445312 264.214844 810.585938 264.367188 812.574219 264.367188 C 813.335938 264.367188 814.253906 264.519531 815.019531 264.519531 C 815.9375 264.519531 816.550781 265.285156 816.398438 266.203125 C 816.550781 266.964844 815.785156 267.578125 815.019531 267.578125 Z M 793.761719 265.589844 L 793.609375 265.589844 C 790.703125 265.285156 787.644531 264.824219 784.433594 264.519531 C 783.667969 264.367188 783.054688 263.601562 783.054688 262.839844 C 783.207031 262.074219 783.972656 261.464844 784.738281 261.464844 C 787.949219 261.921875 790.855469 262.226562 793.914062 262.535156 C 794.679688 262.6875 795.289062 263.449219 795.289062 264.214844 C 795.136719 264.980469 794.527344 265.589844 793.761719 265.589844 Z M 772.503906 262.839844 L 772.351562 262.839844 C 769.445312 262.535156 766.386719 262.074219 763.171875 261.769531 C 762.410156 261.617188 761.796875 260.851562 761.796875 260.089844 C 761.949219 259.324219 762.714844 258.710938 763.480469 258.710938 C 766.539062 259.019531 769.597656 259.476562 772.65625 259.78125 C 773.421875 259.933594 774.03125 260.699219 774.03125 261.464844 C 773.878906 262.378906 773.269531 262.839844 772.503906 262.839844 Z M 656.726562 261.464844 C 655.964844 261.464844 655.351562 261.003906 655.199219 260.242188 C 655.046875 259.476562 655.503906 258.558594 656.269531 258.40625 C 659.175781 257.796875 662.234375 257.183594 665.292969 256.574219 C 666.058594 256.421875 666.976562 257.03125 666.976562 257.796875 C 667.128906 258.558594 666.515625 259.476562 665.75 259.476562 C 662.691406 259.933594 659.632812 260.546875 656.878906 261.3125 C 657.035156 261.464844 656.878906 261.464844 656.726562 261.464844 Z M 751.246094 260.394531 L 751.089844 260.394531 L 741.914062 259.476562 C 741.148438 259.324219 740.386719 258.710938 740.539062 257.796875 C 740.691406 256.878906 741.304688 256.421875 742.222656 256.421875 L 751.398438 257.335938 C 752.160156 257.488281 752.773438 258.253906 752.773438 259.019531 C 752.621094 259.78125 752.007812 260.394531 751.246094 260.394531 Z M 729.832031 258.40625 C 726.621094 258.101562 723.5625 257.949219 720.65625 257.796875 C 719.738281 257.796875 719.128906 257.03125 719.28125 256.113281 C 719.28125 255.199219 720.042969 254.585938 720.960938 254.738281 C 724.019531 254.890625 727.078125 255.042969 730.140625 255.351562 C 731.054688 255.351562 731.667969 256.113281 731.515625 257.03125 C 731.363281 257.796875 730.597656 258.40625 729.832031 258.40625 Z M 677.832031 258.253906 C 677.070312 258.253906 676.457031 257.644531 676.304688 256.878906 C 676.152344 256.113281 676.914062 255.351562 677.679688 255.199219 C 680.585938 254.890625 683.796875 254.738281 686.855469 254.585938 C 687.773438 254.585938 688.386719 255.199219 688.386719 255.960938 C 688.386719 256.878906 687.773438 257.488281 687.007812 257.488281 C 683.949219 257.644531 680.890625 257.949219 677.832031 258.253906 C 677.984375 258.253906 677.984375 258.253906 677.832031 258.253906 Z M 708.421875 257.335938 C 705.820312 257.335938 703.222656 257.183594 700.621094 257.183594 L 699.246094 257.183594 C 698.480469 257.183594 697.714844 256.574219 697.714844 255.65625 C 697.714844 254.738281 698.328125 254.128906 699.246094 254.128906 L 700.621094 254.128906 C 703.222656 254.128906 705.820312 254.128906 708.421875 254.28125 C 709.339844 254.28125 709.949219 255.042969 709.949219 255.808594 C 709.949219 256.574219 709.339844 257.335938 708.421875 257.335938 Z M 708.421875 257.335938 "/>
</g>
<g clip-path="url(#clip4)" clip-rule="nonzero">
<path style=" stroke:none;fill-rule:nonzero;fill:rgb(100%,100%,100%);fill-opacity:1;" d="M 879.5625 552.910156 C 868.703125 552.910156 859.984375 544.199219 859.984375 533.347656 C 859.984375 522.496094 868.703125 513.785156 879.5625 513.785156 C 890.417969 513.785156 899.136719 522.496094 899.136719 533.347656 C 899.136719 544.199219 890.265625 552.910156 879.5625 552.910156 Z M 879.5625 516.84375 C 870.382812 516.84375 863.042969 524.179688 863.042969 533.347656 C 863.042969 542.519531 870.382812 549.855469 879.5625 549.855469 C 888.738281 549.855469 896.078125 542.519531 896.078125 533.347656 C 896.078125 524.179688 888.585938 516.84375 879.5625 516.84375 Z M 879.5625 516.84375 "/>
</g>
<path style=" stroke:none;fill-rule:nonzero;fill:rgb(100%,100%,100%);fill-opacity:1;" d="M 938.902344 430.800781 C 938.902344 431.25 938.855469 431.699219 938.769531 432.140625 C 938.679688 432.585938 938.550781 433.015625 938.378906 433.429688 C 938.203125 433.847656 937.992188 434.246094 937.742188 434.621094 C 937.488281 434.996094 937.203125 435.34375 936.886719 435.664062 C 936.566406 435.980469 936.21875 436.265625 935.84375 436.519531 C 935.464844 436.769531 935.070312 436.980469 934.652344 437.152344 C 934.234375 437.328125 933.804688 437.457031 933.363281 437.542969 C 932.917969 437.632812 932.472656 437.675781 932.019531 437.675781 C 931.566406 437.675781 931.121094 437.632812 930.675781 437.542969 C 930.234375 437.457031 929.800781 437.328125 929.386719 437.152344 C 928.96875 436.980469 928.570312 436.769531 928.195312 436.519531 C 927.820312 436.265625 927.472656 435.980469 927.152344 435.664062 C 926.832031 435.34375 926.546875 434.996094 926.296875 434.621094 C 926.046875 434.246094 925.832031 433.847656 925.660156 433.429688 C 925.488281 433.015625 925.355469 432.585938 925.269531 432.140625 C 925.179688 431.699219 925.136719 431.25 925.136719 430.800781 C 925.136719 430.347656 925.179688 429.902344 925.269531 429.457031 C 925.355469 429.015625 925.488281 428.585938 925.660156 428.167969 C 925.832031 427.75 926.046875 427.355469 926.296875 426.980469 C 926.546875 426.601562 926.832031 426.257812 927.152344 425.9375 C 927.472656 425.617188 927.820312 425.332031 928.195312 425.082031 C 928.570312 424.832031 928.96875 424.617188 929.386719 424.445312 C 929.800781 424.273438 930.234375 424.140625 930.675781 424.054688 C 931.121094 423.964844 931.566406 423.921875 932.019531 423.921875 C 932.472656 423.921875 932.917969 423.964844 933.363281 424.054688 C 933.804688 424.140625 934.234375 424.273438 934.652344 424.445312 C 935.070312 424.617188 935.464844 424.832031 935.84375 425.082031 C 936.21875 425.332031 936.566406 425.617188 936.886719 425.9375 C 937.203125 426.257812 937.488281 426.601562 937.742188 426.980469 C 937.992188 427.355469 938.203125 427.75 938.378906 428.167969 C 938.550781 428.585938 938.679688 429.015625 938.769531 429.457031 C 938.855469 429.902344 938.902344 430.347656 938.902344 430.800781 Z M 938.902344 430.800781 "/>
<g clip-path="url(#clip5)" clip-rule="nonzero">
<path style=" stroke:none;fill-rule:nonzero;fill:rgb(100%,100%,100%);fill-opacity:1;" d="M 977.136719 507.824219 L 952.972656 507.824219 L 952.972656 483.679688 C 952.972656 481.996094 951.59375 480.621094 949.914062 480.621094 C 948.230469 480.621094 946.855469 481.996094 946.855469 483.679688 L 946.855469 507.824219 L 922.691406 507.824219 C 921.007812 507.824219 919.628906 509.203125 919.628906 510.882812 C 919.628906 512.5625 921.007812 513.9375 922.691406 513.9375 L 946.855469 513.9375 L 946.855469 538.085938 C 946.855469 539.765625 948.230469 541.144531 949.914062 541.144531 C 951.59375 541.144531 952.972656 539.765625 952.972656 538.085938 L 952.972656 513.9375 L 977.136719 513.9375 C 978.816406 513.9375 980.195312 512.5625 980.195312 510.882812 C 980.195312 509.203125 978.816406 507.824219 977.136719 507.824219 Z M 977.136719 507.824219 "/>
</g>
<g clip-path="url(#clip6)" clip-rule="nonzero">
<path style=" stroke:none;fill-rule:nonzero;fill:rgb(100%,100%,100%);fill-opacity:1;" d="M 558.847656 356.675781 L 550.433594 356.675781 L 550.433594 348.425781 C 550.433594 347.8125 549.976562 347.355469 549.363281 347.355469 C 548.753906 347.355469 548.292969 347.8125 548.292969 348.425781 L 548.292969 356.675781 L 540.035156 356.675781 C 539.421875 356.675781 538.964844 357.136719 538.964844 357.746094 C 538.964844 358.359375 539.421875 358.816406 540.035156 358.816406 L 548.292969 358.816406 L 548.292969 367.070312 C 548.292969 367.679688 548.753906 368.140625 549.363281 368.140625 C 549.976562 368.140625 550.433594 367.679688 550.433594 367.070312 L 550.433594 358.816406 L 558.847656 358.816406 C 559.457031 358.816406 559.917969 358.359375 559.917969 357.746094 C 559.917969 357.136719 559.457031 356.675781 558.847656 356.675781 Z M 558.847656 356.675781 "/>
</g>
<g clip-path="url(#clip7)" clip-rule="nonzero">
<path style=" stroke:none;fill-rule:nonzero;fill:rgb(100%,100%,100%);fill-opacity:1;" d="M 796.667969 238.234375 L 788.253906 238.234375 L 788.253906 229.980469 C 788.253906 229.371094 787.796875 228.910156 787.183594 228.910156 C 786.574219 228.910156 786.113281 229.371094 786.113281 229.980469 L 786.113281 238.234375 L 777.855469 238.234375 C 777.242188 238.234375 776.785156 238.691406 776.785156 239.304688 C 776.785156 239.914062 777.242188 240.375 777.855469 240.375 L 786.113281 240.375 L 786.113281 248.777344 C 786.113281 249.390625 786.574219 249.847656 787.183594 249.847656 C 787.796875 249.847656 788.253906 249.390625 788.253906 248.777344 L 788.253906 240.375 L 796.515625 240.375 C 797.125 240.375 797.585938 239.914062 797.585938 239.304688 C 797.738281 238.84375 797.277344 238.234375 796.667969 238.234375 Z M 796.667969 238.234375 "/>
</g>
<path style=" stroke:none;fill-rule:nonzero;fill:rgb(100%,100%,100%);fill-opacity:1;" d="M 563.433594 315.414062 C 563.433594 315.875 563.390625 316.332031 563.300781 316.785156 C 563.210938 317.238281 563.074219 317.675781 562.898438 318.101562 C 562.722656 318.53125 562.503906 318.933594 562.25 319.320312 C 561.992188 319.703125 561.699219 320.058594 561.375 320.382812 C 561.046875 320.710938 560.691406 321 560.308594 321.257812 C 559.921875 321.515625 559.519531 321.730469 559.089844 321.90625 C 558.664062 322.085938 558.226562 322.21875 557.773438 322.308594 C 557.320312 322.398438 556.859375 322.441406 556.398438 322.441406 C 555.9375 322.441406 555.480469 322.398438 555.027344 322.308594 C 554.574219 322.21875 554.132812 322.085938 553.707031 321.90625 C 553.28125 321.730469 552.875 321.515625 552.492188 321.257812 C 552.105469 321 551.75 320.710938 551.425781 320.382812 C 551.097656 320.058594 550.804688 319.703125 550.550781 319.320312 C 550.292969 318.933594 550.078125 318.53125 549.898438 318.101562 C 549.722656 317.675781 549.589844 317.238281 549.5 316.785156 C 549.410156 316.332031 549.363281 315.875 549.363281 315.414062 C 549.363281 314.953125 549.410156 314.492188 549.5 314.042969 C 549.589844 313.589844 549.722656 313.148438 549.898438 312.722656 C 550.078125 312.296875 550.292969 311.890625 550.550781 311.507812 C 550.804688 311.125 551.097656 310.769531 551.425781 310.441406 C 551.75 310.117188 552.105469 309.824219 552.492188 309.566406 C 552.875 309.3125 553.28125 309.09375 553.707031 308.917969 C 554.132812 308.742188 554.574219 308.609375 555.027344 308.519531 C 555.480469 308.425781 555.9375 308.382812 556.398438 308.382812 C 556.859375 308.382812 557.320312 308.425781 557.773438 308.519531 C 558.226562 308.609375 558.664062 308.742188 559.089844 308.917969 C 559.519531 309.09375 559.921875 309.3125 560.308594 309.566406 C 560.691406 309.824219 561.046875 310.117188 561.375 310.441406 C 561.699219 310.769531 561.992188 311.125 562.25 311.507812 C 562.503906 311.890625 562.722656 312.296875 562.898438 312.722656 C 563.074219 313.148438 563.210938 313.589844 563.300781 314.042969 C 563.390625 314.492188 563.433594 314.953125 563.433594 315.414062 Z M 563.433594 315.414062 "/>
</g>
</svg>
