<?xml version="1.0" encoding="UTF-8"?>
<svg xmlns="http://www.w3.org/2000/svg" xmlns:xlink="http://www.w3.org/1999/xlink" width="1440pt" height="809.999993pt" viewBox="0 0 1440 809.999993" version="1.2">
<defs>
<clipPath id="clip1">
  <path d="M 478.320312 266.964844 L 1018.320312 266.964844 L 1018.320312 590.964844 L 478.320312 590.964844 Z M 478.320312 266.964844 "/>
</clipPath>
</defs>
<g id="surface1">
<path style=" stroke:none;fill-rule:nonzero;fill:rgb(30.589294%,4.309082%,82.749939%);fill-opacity:1;" d="M 1016.574219 419.511719 C 1016.140625 423.398438 1012.902344 427.398438 1007.605469 430.421875 L 741.621094 583.941406 C 735.574219 587.398438 727.578125 589.453125 719.691406 589.453125 C 713.210938 589.453125 707.265625 588.046875 703.054688 585.671875 L 486.980469 460.996094 C 483.308594 458.835938 481.253906 456.136719 480.929688 453.109375 L 480.824219 452.460938 L 480.824219 440.253906 C 481.039062 443.386719 483.199219 446.195312 486.980469 448.464844 L 702.945312 573.03125 C 707.160156 575.515625 713.101562 576.8125 719.582031 576.8125 C 727.46875 576.8125 735.464844 574.867188 741.515625 571.300781 L 1007.5 417.890625 C 1013.007812 414.757812 1016.140625 410.761719 1016.464844 406.761719 L 1016.464844 419.617188 Z M 1016.574219 419.511719 "/>
<path style=" stroke:none;fill-rule:nonzero;fill:rgb(88.62915%,37.249756%,86.268616%);fill-opacity:1;" d="M 1010.417969 397.253906 L 794.453125 272.582031 C 790.238281 270.097656 784.296875 268.800781 777.816406 268.800781 C 769.929688 268.800781 761.933594 270.746094 755.882812 274.308594 L 489.789062 427.828125 C 484.066406 431.179688 480.714844 435.390625 480.714844 439.605469 C 480.714844 442.953125 482.875 445.980469 486.875 448.355469 L 702.945312 572.921875 C 707.160156 575.40625 713.101562 576.703125 719.582031 576.703125 C 727.46875 576.703125 735.464844 574.757812 741.515625 571.191406 L 1007.5 417.78125 C 1013.226562 414.433594 1016.574219 410.21875 1016.574219 406.007812 C 1016.574219 402.65625 1014.414062 399.523438 1010.417969 397.253906 Z M 985.675781 414.324219 L 733.519531 559.957031 C 726.390625 564.0625 715.695312 564.496094 709.644531 560.929688 L 510.425781 445.980469 C 504.265625 442.414062 505.023438 436.257812 512.152344 432.152344 L 764.308594 286.625 C 771.441406 282.519531 782.136719 282.089844 788.1875 285.652344 L 987.296875 400.605469 C 993.453125 404.0625 992.699219 410.21875 985.675781 414.324219 Z M 985.675781 414.324219 "/>
<path style=" stroke:none;fill-rule:nonzero;fill:rgb(0%,76.858521%,79.998779%);fill-opacity:1;" d="M 709.535156 561.039062 L 510.425781 445.980469 C 504.265625 442.414062 505.023438 436.257812 512.152344 432.152344 L 764.308594 286.625 C 771.441406 282.519531 782.136719 282.089844 788.1875 285.652344 L 987.296875 400.605469 C 993.453125 404.167969 992.699219 410.328125 985.566406 414.433594 L 733.519531 559.957031 C 726.390625 563.953125 715.695312 564.386719 709.535156 561.039062 Z M 709.535156 561.039062 "/>
<g clip-path="url(#clip1)" clip-rule="nonzero">
<path style=" stroke:none;fill-rule:nonzero;fill:rgb(7.839966%,23.529053%,23.529053%);fill-opacity:1;" d="M 667.292969 520.09375 C 666.753906 521.066406 665.671875 521.710938 664.59375 521.710938 C 664.050781 521.710938 663.511719 521.605469 662.972656 521.28125 L 645.578125 511.234375 L 645.578125 512.53125 L 645.144531 512.53125 L 645.144531 510.910156 L 644.28125 510.367188 L 643.09375 510.367188 L 643.09375 509.9375 L 643.527344 509.9375 L 589.832031 478.929688 L 589.398438 478.929688 L 589.398438 478.605469 L 571.464844 468.234375 C 569.953125 467.371094 569.414062 465.425781 570.277344 463.914062 C 571.140625 462.402344 573.085938 461.859375 574.597656 462.726562 L 578.273438 464.777344 L 578.273438 463.050781 L 578.703125 463.050781 L 578.703125 465.101562 L 578.8125 465.210938 L 580.757812 465.210938 L 580.757812 465.640625 L 579.570312 465.640625 L 634.019531 497.082031 L 634.019531 496.648438 L 634.449219 496.648438 L 634.449219 497.40625 L 666.214844 515.769531 C 667.617188 516.636719 668.15625 518.578125 667.292969 520.09375 Z M 1018.085938 419.726562 C 1018.085938 420.160156 1018.085938 420.914062 1018.085938 420.914062 C 1018.085938 420.914062 1018.085938 420.914062 1018.085938 420.808594 L 1018.085938 419.511719 C 1018.085938 419.617188 1018.085938 419.726562 1018.085938 419.726562 Z M 985.785156 413.675781 L 732.871094 559.742188 C 728.980469 561.902344 724.011719 563.089844 719.257812 563.089844 C 715.371094 563.089844 711.695312 562.335938 708.886719 560.714844 L 509.128906 445.332031 C 502.972656 441.765625 503.726562 435.609375 510.859375 431.503906 L 763.769531 285.4375 C 767.660156 283.277344 772.628906 282.089844 777.382812 282.089844 C 781.273438 282.089844 784.945312 282.953125 787.753906 284.574219 L 987.511719 399.847656 C 993.671875 403.414062 992.914062 409.570312 985.785156 413.675781 Z M 880.234375 342.371094 L 881.527344 342.371094 L 880.234375 341.617188 Z M 633.046875 364.738281 L 633.910156 364.738281 L 633.910156 364.195312 Z M 667.402344 532.839844 L 666.863281 532.839844 L 667.402344 533.164062 Z M 792.398438 521.710938 L 790.886719 521.710938 L 790.886719 522.578125 Z M 988.484375 405.898438 C 988.484375 404.386719 986.863281 403.199219 985.890625 402.65625 L 980.921875 399.738281 L 980.921875 400.820312 L 980.488281 400.820312 L 980.488281 399.417969 L 979.300781 398.660156 L 978.328125 398.660156 L 978.328125 398.226562 L 978.4375 398.226562 L 936.195312 373.917969 L 936.195312 375.972656 L 938.246094 375.972656 L 938.246094 376.40625 L 936.195312 376.40625 L 936.195312 378.457031 L 935.761719 378.457031 L 935.761719 376.40625 L 933.710938 376.40625 L 933.710938 375.863281 L 935.761719 375.863281 L 935.761719 373.8125 L 936.085938 373.8125 L 924.742188 367.328125 L 924.527344 367.328125 L 924.527344 367.222656 L 882.394531 342.914062 L 880.339844 342.914062 L 880.339844 344.964844 L 879.910156 344.964844 L 879.910156 342.914062 L 877.855469 342.914062 L 877.855469 342.371094 L 879.910156 342.371094 L 879.910156 341.402344 L 824.484375 309.421875 L 824.484375 311.476562 L 824.054688 311.476562 L 824.054688 309.421875 L 822 309.421875 L 822 308.882812 L 823.621094 308.882812 L 786.242188 287.273438 C 784.511719 286.300781 782.242188 285.652344 779.652344 285.4375 L 779.652344 286.410156 L 781.703125 286.410156 L 781.703125 286.84375 L 779.652344 286.84375 L 779.652344 288.894531 L 779.21875 288.894531 L 779.21875 286.84375 L 777.167969 286.84375 L 777.167969 286.410156 L 779.21875 286.410156 L 779.21875 285.328125 C 778.570312 285.328125 778.03125 285.222656 777.382812 285.222656 C 773.0625 285.222656 768.632812 286.300781 765.390625 288.140625 L 746.160156 299.265625 L 746.160156 300.132812 L 745.726562 300.132812 L 745.726562 299.589844 L 691.167969 331.136719 L 692.359375 331.136719 L 692.359375 331.570312 L 690.304688 331.570312 L 690.304688 333.621094 L 689.875 333.621094 L 689.875 331.785156 L 634.34375 363.980469 L 634.34375 364.738281 L 636.394531 364.738281 L 636.394531 365.167969 L 634.34375 365.167969 L 634.34375 367.222656 L 633.910156 367.222656 L 633.910156 365.167969 L 632.289062 365.167969 L 578.488281 396.175781 L 578.488281 398.226562 L 580.539062 398.226562 L 580.539062 398.660156 L 578.488281 398.660156 L 578.488281 400.710938 L 578.054688 400.710938 L 578.054688 398.660156 L 576.003906 398.660156 L 576.003906 398.226562 L 578.054688 398.226562 L 578.054688 396.5 L 535.921875 420.808594 L 535.921875 421.023438 L 535.488281 421.023438 L 533.761719 421.996094 L 533.761719 423.074219 L 533.328125 423.074219 L 533.328125 422.320312 L 512.476562 434.3125 C 509.777344 435.824219 508.15625 437.769531 508.15625 439.390625 C 508.15625 440.902344 509.777344 442.089844 510.75 442.628906 L 510.964844 442.738281 L 510.964844 440.792969 L 511.398438 440.792969 L 511.398438 442.847656 L 513.449219 442.847656 L 513.449219 443.277344 L 512.046875 443.277344 L 566.820312 474.933594 L 566.820312 474.285156 L 567.253906 474.285156 L 567.253906 475.257812 L 569.304688 476.445312 L 569.414062 476.445312 L 611.546875 500.753906 L 611.546875 499.242188 L 609.496094 499.242188 L 609.496094 498.808594 L 611.546875 498.808594 L 611.546875 496.757812 L 611.980469 496.757812 L 611.980469 498.808594 L 614.03125 498.808594 L 614.03125 499.242188 L 611.980469 499.242188 L 611.980469 501.078125 L 666.105469 532.300781 L 667.402344 532.300781 L 667.402344 530.246094 L 667.832031 530.246094 L 667.832031 532.300781 L 669.886719 532.300781 L 669.886719 532.734375 L 667.832031 532.734375 L 667.832031 533.273438 L 710.292969 557.796875 C 712.5625 559.09375 715.695312 559.742188 719.152344 559.742188 C 723.472656 559.742188 727.902344 558.660156 731.144531 556.824219 L 734.167969 555.097656 L 732.222656 555.097656 L 732.222656 554.664062 L 734.277344 554.664062 L 734.277344 552.609375 L 734.707031 552.609375 L 734.707031 554.664062 L 734.816406 554.664062 L 790.347656 522.792969 L 790.347656 521.710938 L 788.292969 521.710938 L 788.292969 521.28125 L 790.347656 521.28125 L 790.347656 519.226562 L 790.777344 519.226562 L 790.777344 521.28125 L 792.832031 521.28125 L 792.832031 521.390625 L 834.964844 497.082031 L 834.964844 496.863281 L 835.398438 496.863281 L 888.984375 465.859375 L 888.765625 465.859375 L 888.765625 465.425781 L 889.847656 465.425781 L 890.929688 464.777344 L 890.929688 463.265625 L 891.359375 463.265625 L 891.359375 464.453125 L 946.78125 432.476562 L 946.78125 432.257812 L 944.839844 432.257812 L 944.839844 431.828125 L 946.890625 431.828125 L 946.890625 429.773438 L 947.324219 429.773438 L 947.324219 431.828125 L 947.972656 431.828125 L 984.164062 410.976562 C 986.863281 409.355469 988.484375 407.410156 988.484375 405.898438 Z M 1017.980469 419.292969 C 1017.980469 419.292969 1018.085938 419.402344 1018.085938 419.726562 C 1017.4375 423.832031 1014.199219 428.261719 1008.253906 431.609375 L 793.371094 555.636719 L 777.492188 564.820312 L 777.492188 564.925781 L 777.273438 564.925781 L 761.5 574.003906 L 761.5 574.21875 L 761.175781 574.21875 L 742.054688 585.238281 C 735.464844 589.019531 727.144531 590.964844 719.257812 590.964844 C 712.667969 590.964844 706.402344 589.667969 701.757812 586.964844 L 485.578125 462.292969 C 481.253906 459.917969 478.988281 456.675781 478.664062 453.21875 L 478.554688 453.21875 L 478.554688 438.523438 L 478.664062 438.523438 C 479.203125 434.203125 482.445312 429.882812 488.492188 426.425781 L 754.585938 272.691406 C 761.175781 268.910156 769.496094 266.964844 777.382812 266.964844 C 783.972656 266.964844 790.238281 268.261719 794.882812 270.960938 L 1011.0625 395.742188 C 1015.386719 398.226562 1017.65625 401.359375 1017.980469 404.816406 L 1017.980469 405.035156 C 1017.980469 405.683594 1017.980469 406.222656 1017.980469 406.761719 Z M 758.367188 563.308594 L 742.054688 572.707031 C 735.464844 576.488281 727.144531 578.433594 719.257812 578.433594 C 712.667969 578.433594 706.402344 577.136719 701.757812 574.433594 L 485.46875 449.4375 C 483.957031 448.574219 482.660156 447.601562 481.6875 446.519531 L 481.6875 452.03125 L 481.796875 452.679688 C 482.121094 455.917969 484.929688 458.078125 487.089844 459.375 L 703.378906 584.375 C 707.375 586.640625 712.992188 587.9375 719.257812 587.9375 C 726.929688 587.9375 734.601562 585.996094 740.433594 582.644531 L 758.367188 572.273438 Z M 774.140625 554.125 L 761.394531 561.46875 L 761.394531 570.4375 L 774.140625 563.089844 Z M 790.128906 544.941406 L 777.382812 552.285156 L 777.382812 561.253906 L 790.128906 553.90625 Z M 806.121094 535.757812 L 793.371094 543.105469 L 793.371094 552.070312 L 806.121094 544.722656 Z M 1014.738281 413.675781 C 1013.117188 415.621094 1010.957031 417.457031 1008.148438 419.078125 L 809.253906 533.8125 L 809.253906 542.78125 L 1006.636719 428.800781 C 1011.496094 426.101562 1014.414062 422.535156 1014.738281 419.1875 Z M 1014.84375 405.789062 C 1014.84375 402.332031 1011.929688 399.847656 1009.445312 398.445312 L 793.265625 273.554688 C 789.265625 271.285156 783.648438 269.988281 777.382812 269.988281 C 769.710938 269.988281 762.042969 271.933594 756.207031 275.28125 L 490.007812 429.019531 C 484.820312 432.042969 481.796875 435.824219 481.6875 439.390625 C 481.6875 442.847656 484.605469 445.332031 487.089844 446.734375 L 703.378906 571.625 C 707.375 573.894531 712.992188 575.191406 719.257812 575.191406 C 726.929688 575.191406 734.601562 573.246094 740.433594 569.898438 L 1006.527344 416.054688 C 1011.820312 413.136719 1014.84375 409.355469 1014.84375 405.789062 Z M 556.125 463.265625 L 555.691406 463.265625 L 555.691406 465.316406 L 553.640625 465.316406 L 553.640625 465.75 L 555.691406 465.75 L 555.691406 467.804688 L 556.125 467.804688 L 556.125 465.75 L 558.175781 465.75 L 558.175781 465.316406 L 556.125 465.316406 Z M 544.996094 452.03125 L 544.566406 452.03125 L 544.566406 454.082031 L 542.511719 454.082031 L 542.511719 454.515625 L 544.566406 454.515625 L 544.566406 456.566406 L 544.996094 456.566406 L 544.996094 454.515625 L 547.050781 454.515625 L 547.050781 454.082031 L 544.996094 454.082031 Z M 533.761719 440.902344 L 533.328125 440.902344 L 533.328125 442.953125 L 531.277344 442.953125 L 531.277344 443.386719 L 533.328125 443.386719 L 533.328125 445.4375 L 533.761719 445.4375 L 533.761719 443.386719 L 535.8125 443.386719 L 535.8125 442.953125 L 533.761719 442.953125 Z M 556.125 440.902344 L 555.691406 440.902344 L 555.691406 442.953125 L 553.640625 442.953125 L 553.640625 443.386719 L 555.691406 443.386719 L 555.691406 445.4375 L 556.125 445.4375 L 556.125 443.386719 L 558.175781 443.386719 L 558.175781 442.953125 L 556.125 442.953125 Z M 522.632812 429.667969 L 522.203125 429.667969 L 522.203125 431.71875 L 520.148438 431.71875 L 520.148438 432.152344 L 522.203125 432.152344 L 522.203125 434.203125 L 522.632812 434.203125 L 522.632812 432.152344 L 524.6875 432.152344 L 524.6875 431.71875 L 522.632812 431.71875 Z M 544.996094 429.667969 L 544.566406 429.667969 L 544.566406 431.71875 L 542.511719 431.71875 L 542.511719 432.152344 L 544.566406 432.152344 L 544.566406 434.203125 L 544.996094 434.203125 L 544.996094 432.152344 L 547.050781 432.152344 L 547.050781 431.71875 L 544.996094 431.71875 Z M 556.125 418.539062 L 555.691406 418.539062 L 555.691406 420.589844 L 553.640625 420.589844 L 553.640625 421.023438 L 555.691406 421.023438 L 555.691406 423.074219 L 556.125 423.074219 L 556.125 421.023438 L 558.175781 421.023438 L 558.175781 420.589844 L 556.125 420.589844 Z M 600.851562 485.628906 L 600.417969 485.628906 L 600.417969 487.679688 L 598.367188 487.679688 L 598.367188 488.113281 L 600.417969 488.113281 L 600.417969 490.167969 L 600.851562 490.167969 L 600.851562 488.113281 L 602.902344 488.113281 L 602.902344 487.679688 L 600.851562 487.679688 Z M 622.675781 490.273438 L 623.105469 490.273438 L 623.105469 488.222656 L 625.160156 488.222656 L 625.160156 487.789062 L 623.105469 487.789062 L 623.105469 485.738281 L 622.675781 485.738281 L 622.675781 487.789062 L 620.621094 487.789062 L 620.621094 488.222656 L 622.675781 488.222656 Z M 645.039062 490.273438 L 645.46875 490.273438 L 645.46875 488.222656 L 647.523438 488.222656 L 647.523438 487.789062 L 645.578125 487.789062 L 645.578125 485.738281 L 645.144531 485.738281 L 645.144531 487.789062 L 643.09375 487.789062 L 643.09375 488.222656 L 645.144531 488.222656 L 645.144531 490.273438 Z M 611.546875 479.039062 L 611.980469 479.039062 L 611.980469 476.984375 L 614.03125 476.984375 L 614.03125 476.554688 L 611.980469 476.554688 L 611.980469 474.5 L 611.546875 474.5 L 611.546875 476.554688 L 609.496094 476.554688 L 609.496094 476.984375 L 611.546875 476.984375 Z M 633.910156 479.039062 L 634.34375 479.039062 L 634.34375 476.984375 L 636.394531 476.984375 L 636.394531 476.554688 L 634.34375 476.554688 L 634.34375 474.5 L 633.910156 474.5 L 633.910156 476.554688 L 631.859375 476.554688 L 631.859375 476.984375 L 633.910156 476.984375 Z M 600.417969 467.910156 L 600.851562 467.910156 L 600.851562 465.859375 L 602.902344 465.859375 L 602.902344 465.425781 L 600.851562 465.425781 L 600.851562 463.375 L 600.417969 463.375 L 600.417969 465.425781 L 598.367188 465.425781 L 598.367188 465.859375 L 600.417969 465.859375 Z M 622.675781 467.910156 L 623.105469 467.910156 L 623.105469 465.859375 L 625.160156 465.859375 L 625.160156 465.425781 L 623.105469 465.425781 L 623.105469 463.375 L 622.675781 463.375 L 622.675781 465.425781 L 620.621094 465.425781 L 620.621094 465.859375 L 622.675781 465.859375 Z M 645.039062 467.910156 L 645.46875 467.910156 L 645.46875 465.859375 L 647.523438 465.859375 L 647.523438 465.425781 L 645.578125 465.425781 L 645.578125 463.375 L 645.144531 463.375 L 645.144531 465.425781 L 643.09375 465.425781 L 643.09375 465.859375 L 645.144531 465.859375 L 645.144531 467.910156 Z M 567.253906 452.03125 L 566.820312 452.03125 L 566.820312 454.082031 L 564.765625 454.082031 L 564.765625 454.515625 L 566.820312 454.515625 L 566.820312 456.566406 L 567.253906 456.566406 L 567.253906 454.515625 L 569.304688 454.515625 L 569.304688 454.082031 L 567.253906 454.082031 Z M 589.183594 456.675781 L 589.617188 456.675781 L 589.617188 454.621094 L 591.667969 454.621094 L 591.667969 454.191406 L 589.617188 454.191406 L 589.617188 452.136719 L 589.183594 452.136719 L 589.183594 454.191406 L 587.132812 454.191406 L 587.132812 454.621094 L 589.183594 454.621094 Z M 611.546875 456.675781 L 611.980469 456.675781 L 611.980469 454.621094 L 614.03125 454.621094 L 614.03125 454.191406 L 611.980469 454.191406 L 611.980469 452.136719 L 611.546875 452.136719 L 611.546875 454.191406 L 609.496094 454.191406 L 609.496094 454.621094 L 611.546875 454.621094 Z M 633.910156 456.675781 L 634.34375 456.675781 L 634.34375 454.621094 L 636.394531 454.621094 L 636.394531 454.191406 L 634.34375 454.191406 L 634.34375 452.136719 L 633.910156 452.136719 L 633.910156 454.191406 L 631.859375 454.191406 L 631.859375 454.621094 L 633.910156 454.621094 Z M 578.054688 445.546875 L 578.488281 445.546875 L 578.488281 443.496094 L 580.539062 443.496094 L 580.539062 443.0625 L 578.488281 443.0625 L 578.488281 441.011719 L 578.054688 441.011719 L 578.054688 443.0625 L 576.003906 443.0625 L 576.003906 443.496094 L 578.054688 443.496094 Z M 600.417969 445.546875 L 600.851562 445.546875 L 600.851562 443.496094 L 602.902344 443.496094 L 602.902344 443.0625 L 600.851562 443.0625 L 600.851562 441.011719 L 600.417969 441.011719 L 600.417969 443.0625 L 598.367188 443.0625 L 598.367188 443.496094 L 600.417969 443.496094 Z M 622.675781 445.546875 L 623.105469 445.546875 L 623.105469 443.496094 L 625.160156 443.496094 L 625.160156 443.0625 L 623.105469 443.0625 L 623.105469 441.011719 L 622.675781 441.011719 L 622.675781 443.0625 L 620.621094 443.0625 L 620.621094 443.496094 L 622.675781 443.496094 Z M 645.039062 445.546875 L 645.46875 445.546875 L 645.46875 443.496094 L 647.523438 443.496094 L 647.523438 443.0625 L 645.578125 443.0625 L 645.578125 441.011719 L 645.144531 441.011719 L 645.144531 443.0625 L 643.09375 443.0625 L 643.09375 443.496094 L 645.144531 443.496094 L 645.144531 445.546875 Z M 567.253906 429.667969 L 566.820312 429.667969 L 566.820312 431.71875 L 564.765625 431.71875 L 564.765625 432.152344 L 566.820312 432.152344 L 566.820312 434.203125 L 567.253906 434.203125 L 567.253906 432.152344 L 569.304688 432.152344 L 569.304688 431.71875 L 567.253906 431.71875 Z M 589.183594 434.3125 L 589.617188 434.3125 L 589.617188 432.257812 L 591.667969 432.257812 L 591.667969 431.828125 L 589.617188 431.828125 L 589.617188 429.773438 L 589.183594 429.773438 L 589.183594 431.828125 L 587.132812 431.828125 L 587.132812 432.257812 L 589.183594 432.257812 Z M 611.546875 434.3125 L 611.980469 434.3125 L 611.980469 432.257812 L 614.03125 432.257812 L 614.03125 431.828125 L 611.980469 431.828125 L 611.980469 429.773438 L 611.546875 429.773438 L 611.546875 431.828125 L 609.496094 431.828125 L 609.496094 432.257812 L 611.546875 432.257812 Z M 633.910156 434.3125 L 634.34375 434.3125 L 634.34375 432.257812 L 636.394531 432.257812 L 636.394531 431.828125 L 634.34375 431.828125 L 634.34375 429.773438 L 633.910156 429.773438 L 633.910156 431.828125 L 631.859375 431.828125 L 631.859375 432.257812 L 633.910156 432.257812 Z M 578.054688 423.183594 L 578.488281 423.183594 L 578.488281 421.132812 L 580.539062 421.132812 L 580.539062 420.699219 L 578.488281 420.699219 L 578.488281 418.648438 L 578.054688 418.648438 L 578.054688 420.699219 L 576.003906 420.699219 L 576.003906 421.132812 L 578.054688 421.132812 Z M 600.417969 423.183594 L 600.851562 423.183594 L 600.851562 421.132812 L 602.902344 421.132812 L 602.902344 420.699219 L 600.851562 420.699219 L 600.851562 418.648438 L 600.417969 418.648438 L 600.417969 420.699219 L 598.367188 420.699219 L 598.367188 421.132812 L 600.417969 421.132812 Z M 622.675781 423.183594 L 623.105469 423.183594 L 623.105469 421.132812 L 625.160156 421.132812 L 625.160156 420.699219 L 623.105469 420.699219 L 623.105469 418.648438 L 622.675781 418.648438 L 622.675781 420.699219 L 620.621094 420.699219 L 620.621094 421.132812 L 622.675781 421.132812 Z M 645.039062 423.183594 L 645.46875 423.183594 L 645.46875 421.132812 L 647.523438 421.132812 L 647.523438 420.699219 L 645.578125 420.699219 L 645.578125 418.648438 L 645.144531 418.648438 L 645.144531 420.699219 L 643.09375 420.699219 L 643.09375 421.132812 L 645.144531 421.132812 L 645.144531 423.183594 Z M 567.253906 407.300781 L 566.820312 407.300781 L 566.820312 409.355469 L 564.765625 409.355469 L 564.765625 409.789062 L 566.820312 409.789062 L 566.820312 411.839844 L 567.253906 411.839844 L 567.253906 409.789062 L 569.304688 409.789062 L 569.304688 409.355469 L 567.253906 409.355469 Z M 589.183594 412.054688 L 589.617188 412.054688 L 589.617188 410.003906 L 591.667969 410.003906 L 591.667969 409.570312 L 589.617188 409.570312 L 589.617188 407.519531 L 589.183594 407.519531 L 589.183594 409.570312 L 587.132812 409.570312 L 587.132812 410.003906 L 589.183594 410.003906 Z M 611.546875 412.054688 L 611.980469 412.054688 L 611.980469 410.003906 L 614.03125 410.003906 L 614.03125 409.570312 L 611.980469 409.570312 L 611.980469 407.519531 L 611.546875 407.519531 L 611.546875 409.570312 L 609.496094 409.570312 L 609.496094 410.003906 L 611.546875 410.003906 Z M 633.910156 412.054688 L 634.34375 412.054688 L 634.34375 410.003906 L 636.394531 410.003906 L 636.394531 409.570312 L 634.34375 409.570312 L 634.34375 407.519531 L 633.910156 407.519531 L 633.910156 409.570312 L 631.859375 409.570312 L 631.859375 410.003906 L 633.910156 410.003906 Z M 600.417969 400.820312 L 600.851562 400.820312 L 600.851562 398.769531 L 602.902344 398.769531 L 602.902344 398.335938 L 600.851562 398.335938 L 600.851562 396.28125 L 600.417969 396.28125 L 600.417969 398.335938 L 598.367188 398.335938 L 598.367188 398.769531 L 600.417969 398.769531 Z M 622.675781 400.820312 L 623.105469 400.820312 L 623.105469 398.769531 L 625.160156 398.769531 L 625.160156 398.335938 L 623.105469 398.335938 L 623.105469 396.28125 L 622.675781 396.28125 L 622.675781 398.335938 L 620.621094 398.335938 L 620.621094 398.769531 L 622.675781 398.769531 Z M 645.039062 400.820312 L 645.46875 400.820312 L 645.46875 398.769531 L 647.523438 398.769531 L 647.523438 398.335938 L 645.578125 398.335938 L 645.578125 396.28125 L 645.144531 396.28125 L 645.144531 398.335938 L 643.09375 398.335938 L 643.09375 398.769531 L 645.144531 398.769531 L 645.144531 400.820312 Z M 611.546875 389.691406 L 611.980469 389.691406 L 611.980469 387.640625 L 614.03125 387.640625 L 614.03125 387.207031 L 611.980469 387.207031 L 611.980469 385.15625 L 611.546875 385.15625 L 611.546875 387.207031 L 609.496094 387.207031 L 609.496094 387.640625 L 611.546875 387.640625 Z M 633.910156 389.691406 L 634.34375 389.691406 L 634.34375 387.640625 L 636.394531 387.640625 L 636.394531 387.207031 L 634.34375 387.207031 L 634.34375 385.15625 L 633.910156 385.15625 L 633.910156 387.207031 L 631.859375 387.207031 L 631.859375 387.640625 L 633.910156 387.640625 Z M 622.675781 378.457031 L 623.105469 378.457031 L 623.105469 376.40625 L 625.160156 376.40625 L 625.160156 375.863281 L 623.105469 375.863281 L 623.105469 373.8125 L 622.675781 373.8125 L 622.675781 375.863281 L 620.621094 375.863281 L 620.621094 376.296875 L 622.675781 376.296875 Z M 645.039062 378.457031 L 645.46875 378.457031 L 645.46875 376.40625 L 647.523438 376.40625 L 647.523438 375.863281 L 645.578125 375.863281 L 645.578125 373.8125 L 645.144531 373.8125 L 645.144531 375.863281 L 643.09375 375.863281 L 643.09375 376.296875 L 645.144531 376.296875 L 645.144531 378.457031 Z M 712.667969 552.609375 L 712.238281 552.609375 L 712.238281 554.664062 L 710.183594 554.664062 L 710.183594 555.097656 L 712.238281 555.097656 L 712.238281 557.148438 L 712.667969 557.148438 L 712.667969 555.203125 L 714.722656 555.203125 L 714.722656 554.773438 L 712.667969 554.773438 Z M 701.433594 541.484375 L 701 541.484375 L 701 543.535156 L 698.949219 543.535156 L 698.949219 543.96875 L 701 543.96875 L 701 546.019531 L 701.433594 546.019531 L 701.433594 543.96875 L 703.484375 543.96875 L 703.484375 543.535156 L 701.433594 543.535156 Z M 723.796875 541.484375 L 723.363281 541.484375 L 723.363281 543.535156 L 721.203125 543.535156 L 721.203125 543.96875 L 723.257812 543.96875 L 723.257812 546.019531 L 723.6875 546.019531 L 723.6875 543.96875 L 725.742188 543.96875 L 725.742188 543.535156 L 723.6875 543.535156 L 723.6875 541.484375 Z M 690.304688 530.246094 L 689.875 530.246094 L 689.875 532.300781 L 687.710938 532.300781 L 687.710938 532.734375 L 689.765625 532.734375 L 689.765625 534.785156 L 690.199219 534.785156 L 690.199219 532.734375 L 692.25 532.734375 L 692.25 532.300781 L 690.199219 532.300781 L 690.199219 530.246094 Z M 712.667969 530.246094 L 712.238281 530.246094 L 712.238281 532.300781 L 710.183594 532.300781 L 710.183594 532.734375 L 712.238281 532.734375 L 712.238281 534.785156 L 712.667969 534.785156 L 712.667969 532.734375 L 714.722656 532.734375 L 714.722656 532.300781 L 712.667969 532.300781 Z M 734.925781 530.246094 L 734.492188 530.246094 L 734.492188 532.300781 L 732.4375 532.300781 L 732.4375 532.734375 L 734.492188 532.734375 L 734.492188 534.785156 L 734.925781 534.785156 L 734.925781 532.734375 L 736.976562 532.734375 L 736.976562 532.300781 L 734.925781 532.300781 Z M 656.707031 519.121094 L 656.273438 519.121094 L 656.273438 521.171875 L 654.222656 521.171875 L 654.222656 521.605469 L 656.273438 521.605469 L 656.273438 523.65625 L 656.707031 523.65625 L 656.707031 521.710938 L 658.757812 521.710938 L 658.757812 521.28125 L 656.707031 521.28125 Z M 679.070312 519.121094 L 678.636719 519.121094 L 678.636719 521.171875 L 676.585938 521.171875 L 676.585938 521.605469 L 678.636719 521.605469 L 678.636719 523.65625 L 679.070312 523.65625 L 679.070312 521.710938 L 681.121094 521.710938 L 681.121094 521.28125 L 679.070312 521.28125 Z M 701.433594 519.121094 L 701 519.121094 L 701 521.171875 L 698.949219 521.171875 L 698.949219 521.605469 L 701 521.605469 L 701 523.65625 L 701.433594 523.65625 L 701.433594 521.710938 L 703.484375 521.710938 L 703.484375 521.28125 L 701.433594 521.28125 Z M 723.796875 519.121094 L 723.363281 519.121094 L 723.363281 521.171875 L 721.203125 521.171875 L 721.203125 521.605469 L 723.257812 521.605469 L 723.257812 523.65625 L 723.6875 523.65625 L 723.6875 521.710938 L 725.742188 521.710938 L 725.742188 521.28125 L 723.6875 521.28125 L 723.6875 519.121094 Z M 667.941406 507.992188 L 667.511719 507.992188 L 667.511719 510.042969 L 665.457031 510.042969 L 665.457031 510.476562 L 667.511719 510.476562 L 667.511719 512.53125 L 667.941406 512.53125 L 667.941406 510.476562 L 669.996094 510.476562 L 669.996094 510.042969 L 667.941406 510.042969 Z M 690.304688 507.992188 L 689.875 507.992188 L 689.875 510.042969 L 687.710938 510.042969 L 687.710938 510.476562 L 689.765625 510.476562 L 689.765625 512.53125 L 690.199219 512.53125 L 690.199219 510.476562 L 692.25 510.476562 L 692.25 510.042969 L 690.199219 510.042969 L 690.199219 507.992188 Z M 712.667969 507.992188 L 712.238281 507.992188 L 712.238281 510.042969 L 710.183594 510.042969 L 710.183594 510.476562 L 712.238281 510.476562 L 712.238281 512.53125 L 712.667969 512.53125 L 712.667969 510.476562 L 714.722656 510.476562 L 714.722656 510.042969 L 712.667969 510.042969 Z M 734.925781 507.992188 L 734.492188 507.992188 L 734.492188 510.042969 L 732.4375 510.042969 L 732.4375 510.476562 L 734.492188 510.476562 L 734.492188 512.53125 L 734.925781 512.53125 L 734.925781 510.476562 L 736.976562 510.476562 L 736.976562 510.042969 L 734.925781 510.042969 Z M 656.273438 501.402344 L 656.707031 501.402344 L 656.707031 499.347656 L 658.757812 499.347656 L 658.757812 498.917969 L 656.707031 498.917969 L 656.707031 496.863281 L 656.273438 496.863281 L 656.273438 498.917969 L 654.222656 498.917969 L 654.222656 499.347656 L 656.273438 499.347656 Z M 679.070312 496.757812 L 678.636719 496.757812 L 678.636719 498.808594 L 676.585938 498.808594 L 676.585938 499.242188 L 678.636719 499.242188 L 678.636719 501.292969 L 679.070312 501.292969 L 679.070312 499.242188 L 681.121094 499.242188 L 681.121094 498.808594 L 679.070312 498.808594 Z M 701.433594 496.757812 L 701 496.757812 L 701 498.808594 L 698.949219 498.808594 L 698.949219 499.242188 L 701 499.242188 L 701 501.292969 L 701.433594 501.292969 L 701.433594 499.242188 L 703.484375 499.242188 L 703.484375 498.808594 L 701.433594 498.808594 Z M 723.796875 496.757812 L 723.363281 496.757812 L 723.363281 498.808594 L 721.203125 498.808594 L 721.203125 499.242188 L 723.257812 499.242188 L 723.257812 501.292969 L 723.6875 501.292969 L 723.6875 499.242188 L 725.742188 499.242188 L 725.742188 498.808594 L 723.6875 498.808594 L 723.6875 496.757812 Z M 667.941406 485.628906 L 667.511719 485.628906 L 667.511719 487.679688 L 665.457031 487.679688 L 665.457031 488.113281 L 667.511719 488.113281 L 667.511719 490.167969 L 667.941406 490.167969 L 667.941406 488.113281 L 669.996094 488.113281 L 669.996094 487.679688 L 667.941406 487.679688 Z M 690.304688 485.628906 L 689.875 485.628906 L 689.875 487.679688 L 687.710938 487.679688 L 687.710938 488.113281 L 689.765625 488.113281 L 689.765625 490.167969 L 690.199219 490.167969 L 690.199219 488.113281 L 692.25 488.113281 L 692.25 487.679688 L 690.199219 487.679688 L 690.199219 485.628906 Z M 712.667969 485.628906 L 712.238281 485.628906 L 712.238281 487.679688 L 710.183594 487.679688 L 710.183594 488.113281 L 712.238281 488.113281 L 712.238281 490.167969 L 712.667969 490.167969 L 712.667969 488.113281 L 714.722656 488.113281 L 714.722656 487.679688 L 712.667969 487.679688 Z M 734.925781 485.628906 L 734.492188 485.628906 L 734.492188 487.679688 L 732.4375 487.679688 L 732.4375 488.113281 L 734.492188 488.113281 L 734.492188 490.167969 L 734.925781 490.167969 L 734.925781 488.113281 L 736.976562 488.113281 L 736.976562 487.679688 L 734.925781 487.679688 Z M 656.273438 479.039062 L 656.707031 479.039062 L 656.707031 476.984375 L 658.757812 476.984375 L 658.757812 476.554688 L 656.707031 476.554688 L 656.707031 474.5 L 656.273438 474.5 L 656.273438 476.554688 L 654.222656 476.554688 L 654.222656 476.984375 L 656.273438 476.984375 Z M 679.070312 474.394531 L 678.636719 474.394531 L 678.636719 476.445312 L 676.585938 476.445312 L 676.585938 476.878906 L 678.636719 476.878906 L 678.636719 478.929688 L 679.070312 478.929688 L 679.070312 476.878906 L 681.121094 476.878906 L 681.121094 476.445312 L 679.070312 476.445312 Z M 701.433594 474.394531 L 701 474.394531 L 701 476.445312 L 698.949219 476.445312 L 698.949219 476.878906 L 701 476.878906 L 701 478.929688 L 701.433594 478.929688 L 701.433594 476.878906 L 703.484375 476.878906 L 703.484375 476.445312 L 701.433594 476.445312 Z M 723.796875 474.394531 L 723.363281 474.394531 L 723.363281 476.445312 L 721.203125 476.445312 L 721.203125 476.878906 L 723.257812 476.878906 L 723.257812 478.929688 L 723.6875 478.929688 L 723.6875 476.878906 L 725.742188 476.878906 L 725.742188 476.445312 L 723.6875 476.445312 L 723.6875 474.394531 Z M 667.941406 463.265625 L 667.511719 463.265625 L 667.511719 465.316406 L 665.457031 465.316406 L 665.457031 465.75 L 667.511719 465.75 L 667.511719 467.804688 L 667.941406 467.804688 L 667.941406 465.75 L 669.996094 465.75 L 669.996094 465.316406 L 667.941406 465.316406 Z M 690.304688 463.265625 L 689.875 463.265625 L 689.875 465.316406 L 687.710938 465.316406 L 687.710938 465.75 L 689.765625 465.75 L 689.765625 467.804688 L 690.199219 467.804688 L 690.199219 465.75 L 692.25 465.75 L 692.25 465.316406 L 690.199219 465.316406 L 690.199219 463.265625 Z M 712.667969 463.265625 L 712.238281 463.265625 L 712.238281 465.316406 L 710.183594 465.316406 L 710.183594 465.75 L 712.238281 465.75 L 712.238281 467.804688 L 712.667969 467.804688 L 712.667969 465.75 L 714.722656 465.75 L 714.722656 465.316406 L 712.667969 465.316406 Z M 734.925781 463.265625 L 734.492188 463.265625 L 734.492188 465.316406 L 732.4375 465.316406 L 732.4375 465.75 L 734.492188 465.75 L 734.492188 467.804688 L 734.925781 467.804688 L 734.925781 465.75 L 736.976562 465.75 L 736.976562 465.316406 L 734.925781 465.316406 Z M 656.273438 456.675781 L 656.707031 456.675781 L 656.707031 454.621094 L 658.757812 454.621094 L 658.757812 454.191406 L 656.707031 454.191406 L 656.707031 452.136719 L 656.273438 452.136719 L 656.273438 454.191406 L 654.222656 454.191406 L 654.222656 454.621094 L 656.273438 454.621094 Z M 679.070312 452.03125 L 678.636719 452.03125 L 678.636719 454.082031 L 676.585938 454.082031 L 676.585938 454.515625 L 678.636719 454.515625 L 678.636719 456.566406 L 679.070312 456.566406 L 679.070312 454.515625 L 681.121094 454.515625 L 681.121094 454.082031 L 679.070312 454.082031 Z M 701.433594 452.03125 L 701 452.03125 L 701 454.082031 L 698.949219 454.082031 L 698.949219 454.515625 L 701 454.515625 L 701 456.566406 L 701.433594 456.566406 L 701.433594 454.515625 L 703.484375 454.515625 L 703.484375 454.082031 L 701.433594 454.082031 Z M 723.796875 452.03125 L 723.363281 452.03125 L 723.363281 454.082031 L 721.203125 454.082031 L 721.203125 454.515625 L 723.257812 454.515625 L 723.257812 456.566406 L 723.6875 456.566406 L 723.6875 454.515625 L 725.742188 454.515625 L 725.742188 454.082031 L 723.6875 454.082031 L 723.6875 452.03125 Z M 667.941406 440.902344 L 667.511719 440.902344 L 667.511719 442.953125 L 665.457031 442.953125 L 665.457031 443.386719 L 667.511719 443.386719 L 667.511719 445.4375 L 667.941406 445.4375 L 667.941406 443.386719 L 669.996094 443.386719 L 669.996094 442.953125 L 667.941406 442.953125 Z M 690.304688 440.902344 L 689.875 440.902344 L 689.875 442.953125 L 687.710938 442.953125 L 687.710938 443.386719 L 689.765625 443.386719 L 689.765625 445.4375 L 690.199219 445.4375 L 690.199219 443.386719 L 692.25 443.386719 L 692.25 442.953125 L 690.199219 442.953125 L 690.199219 440.902344 Z M 712.667969 440.902344 L 712.238281 440.902344 L 712.238281 442.953125 L 710.183594 442.953125 L 710.183594 443.386719 L 712.238281 443.386719 L 712.238281 445.4375 L 712.667969 445.4375 L 712.667969 443.386719 L 714.722656 443.386719 L 714.722656 442.953125 L 712.667969 442.953125 Z M 734.925781 440.902344 L 734.492188 440.902344 L 734.492188 442.953125 L 732.4375 442.953125 L 732.4375 443.386719 L 734.492188 443.386719 L 734.492188 445.4375 L 734.925781 445.4375 L 734.925781 443.386719 L 736.976562 443.386719 L 736.976562 442.953125 L 734.925781 442.953125 Z M 656.273438 434.3125 L 656.707031 434.3125 L 656.707031 432.257812 L 658.757812 432.257812 L 658.757812 431.828125 L 656.707031 431.828125 L 656.707031 429.773438 L 656.273438 429.773438 L 656.273438 431.828125 L 654.222656 431.828125 L 654.222656 432.257812 L 656.273438 432.257812 Z M 679.070312 429.667969 L 678.636719 429.667969 L 678.636719 431.71875 L 676.585938 431.71875 L 676.585938 432.152344 L 678.636719 432.152344 L 678.636719 434.203125 L 679.070312 434.203125 L 679.070312 432.152344 L 681.121094 432.152344 L 681.121094 431.71875 L 679.070312 431.71875 Z M 701.433594 429.667969 L 701 429.667969 L 701 431.71875 L 698.949219 431.71875 L 698.949219 432.152344 L 701 432.152344 L 701 434.203125 L 701.433594 434.203125 L 701.433594 432.152344 L 703.484375 432.152344 L 703.484375 431.71875 L 701.433594 431.71875 Z M 723.796875 429.667969 L 723.363281 429.667969 L 723.363281 431.71875 L 721.203125 431.71875 L 721.203125 432.152344 L 723.257812 432.152344 L 723.257812 434.203125 L 723.6875 434.203125 L 723.6875 432.152344 L 725.742188 432.152344 L 725.742188 431.71875 L 723.6875 431.71875 L 723.6875 429.667969 Z M 667.941406 418.539062 L 667.511719 418.539062 L 667.511719 420.589844 L 665.457031 420.589844 L 665.457031 421.023438 L 667.511719 421.023438 L 667.511719 423.074219 L 667.941406 423.074219 L 667.941406 421.023438 L 669.996094 421.023438 L 669.996094 420.589844 L 667.941406 420.589844 Z M 690.304688 418.539062 L 689.875 418.539062 L 689.875 420.589844 L 687.710938 420.589844 L 687.710938 421.023438 L 689.765625 421.023438 L 689.765625 423.074219 L 690.199219 423.074219 L 690.199219 421.023438 L 692.25 421.023438 L 692.25 420.589844 L 690.199219 420.589844 L 690.199219 418.539062 Z M 712.667969 418.539062 L 712.238281 418.539062 L 712.238281 420.589844 L 710.183594 420.589844 L 710.183594 421.023438 L 712.238281 421.023438 L 712.238281 423.074219 L 712.667969 423.074219 L 712.667969 421.023438 L 714.722656 421.023438 L 714.722656 420.589844 L 712.667969 420.589844 Z M 734.925781 418.539062 L 734.492188 418.539062 L 734.492188 420.589844 L 732.4375 420.589844 L 732.4375 421.023438 L 734.492188 421.023438 L 734.492188 423.074219 L 734.925781 423.074219 L 734.925781 421.023438 L 736.976562 421.023438 L 736.976562 420.589844 L 734.925781 420.589844 Z M 656.273438 412.054688 L 656.707031 412.054688 L 656.707031 410.003906 L 658.757812 410.003906 L 658.757812 409.570312 L 656.707031 409.570312 L 656.707031 407.519531 L 656.273438 407.519531 L 656.273438 409.570312 L 654.222656 409.570312 L 654.222656 410.003906 L 656.273438 410.003906 Z M 679.070312 407.300781 L 678.636719 407.300781 L 678.636719 409.355469 L 676.585938 409.355469 L 676.585938 409.789062 L 678.636719 409.789062 L 678.636719 411.839844 L 679.070312 411.839844 L 679.070312 409.789062 L 681.121094 409.789062 L 681.121094 409.355469 L 679.070312 409.355469 Z M 701.433594 407.300781 L 701 407.300781 L 701 409.355469 L 698.949219 409.355469 L 698.949219 409.789062 L 701 409.789062 L 701 411.839844 L 701.433594 411.839844 L 701.433594 409.789062 L 703.484375 409.789062 L 703.484375 409.355469 L 701.433594 409.355469 Z M 723.796875 407.300781 L 723.363281 407.300781 L 723.363281 409.355469 L 721.203125 409.355469 L 721.203125 409.789062 L 723.257812 409.789062 L 723.257812 411.839844 L 723.6875 411.839844 L 723.6875 409.789062 L 725.742188 409.789062 L 725.742188 409.355469 L 723.6875 409.355469 L 723.6875 407.300781 Z M 667.941406 396.175781 L 667.511719 396.175781 L 667.511719 398.226562 L 665.457031 398.226562 L 665.457031 398.660156 L 667.511719 398.660156 L 667.511719 400.710938 L 667.941406 400.710938 L 667.941406 398.660156 L 669.996094 398.660156 L 669.996094 398.226562 L 667.941406 398.226562 Z M 690.304688 396.175781 L 689.875 396.175781 L 689.875 398.226562 L 687.710938 398.226562 L 687.710938 398.660156 L 689.765625 398.660156 L 689.765625 400.710938 L 690.199219 400.710938 L 690.199219 398.660156 L 692.25 398.660156 L 692.25 398.226562 L 690.199219 398.226562 L 690.199219 396.175781 Z M 712.667969 396.175781 L 712.238281 396.175781 L 712.238281 398.226562 L 710.183594 398.226562 L 710.183594 398.660156 L 712.238281 398.660156 L 712.238281 400.710938 L 712.667969 400.710938 L 712.667969 398.660156 L 714.722656 398.660156 L 714.722656 398.226562 L 712.667969 398.226562 Z M 734.925781 396.175781 L 734.492188 396.175781 L 734.492188 398.226562 L 732.4375 398.226562 L 732.4375 398.660156 L 734.492188 398.660156 L 734.492188 400.710938 L 734.925781 400.710938 L 734.925781 398.660156 L 736.976562 398.660156 L 736.976562 398.226562 L 734.925781 398.226562 Z M 656.273438 389.691406 L 656.707031 389.691406 L 656.707031 387.640625 L 658.757812 387.640625 L 658.757812 387.207031 L 656.707031 387.207031 L 656.707031 385.15625 L 656.273438 385.15625 L 656.273438 387.207031 L 654.222656 387.207031 L 654.222656 387.640625 L 656.273438 387.640625 Z M 679.070312 384.9375 L 678.636719 384.9375 L 678.636719 386.992188 L 676.585938 386.992188 L 676.585938 387.425781 L 678.636719 387.425781 L 678.636719 389.476562 L 679.070312 389.476562 L 679.070312 387.425781 L 681.121094 387.425781 L 681.121094 386.992188 L 679.070312 386.992188 Z M 701.433594 384.9375 L 701 384.9375 L 701 386.992188 L 698.949219 386.992188 L 698.949219 387.425781 L 701 387.425781 L 701 389.476562 L 701.433594 389.476562 L 701.433594 387.425781 L 703.484375 387.425781 L 703.484375 386.992188 L 701.433594 386.992188 Z M 723.796875 384.9375 L 723.363281 384.9375 L 723.363281 386.992188 L 721.203125 386.992188 L 721.203125 387.425781 L 723.257812 387.425781 L 723.257812 389.476562 L 723.6875 389.476562 L 723.6875 387.425781 L 725.742188 387.425781 L 725.742188 386.992188 L 723.6875 386.992188 L 723.6875 384.9375 Z M 667.941406 373.8125 L 667.511719 373.8125 L 667.511719 375.863281 L 665.457031 375.863281 L 665.457031 376.296875 L 667.511719 376.296875 L 667.511719 378.347656 L 667.941406 378.347656 L 667.941406 376.296875 L 669.996094 376.296875 L 669.996094 375.863281 L 667.941406 375.863281 Z M 690.304688 373.8125 L 689.875 373.8125 L 689.875 375.863281 L 687.710938 375.863281 L 687.710938 376.296875 L 689.765625 376.296875 L 689.765625 378.347656 L 690.199219 378.347656 L 690.199219 376.296875 L 692.25 376.296875 L 692.25 375.863281 L 690.199219 375.863281 L 690.199219 373.8125 Z M 712.667969 373.8125 L 712.238281 373.8125 L 712.238281 375.863281 L 710.183594 375.863281 L 710.183594 376.296875 L 712.238281 376.296875 L 712.238281 378.347656 L 712.667969 378.347656 L 712.667969 376.296875 L 714.722656 376.296875 L 714.722656 375.863281 L 712.667969 375.863281 Z M 734.925781 373.8125 L 734.492188 373.8125 L 734.492188 375.863281 L 732.4375 375.863281 L 732.4375 376.296875 L 734.492188 376.296875 L 734.492188 378.347656 L 734.925781 378.347656 L 734.925781 376.296875 L 736.976562 376.296875 L 736.976562 375.863281 L 734.925781 375.863281 Z M 656.273438 367.328125 L 656.707031 367.328125 L 656.707031 365.277344 L 658.757812 365.277344 L 658.757812 364.84375 L 656.707031 364.84375 L 656.707031 362.792969 L 656.273438 362.792969 L 656.273438 364.84375 L 654.222656 364.84375 L 654.222656 365.277344 L 656.273438 365.277344 Z M 679.070312 362.683594 L 678.636719 362.683594 L 678.636719 364.738281 L 676.585938 364.738281 L 676.585938 365.167969 L 678.636719 365.167969 L 678.636719 367.222656 L 679.070312 367.222656 L 679.070312 365.167969 L 681.121094 365.167969 L 681.121094 364.738281 L 679.070312 364.738281 Z M 701.433594 362.683594 L 701 362.683594 L 701 364.738281 L 698.949219 364.738281 L 698.949219 365.167969 L 701 365.167969 L 701 367.222656 L 701.433594 367.222656 L 701.433594 365.167969 L 703.484375 365.167969 L 703.484375 364.738281 L 701.433594 364.738281 Z M 723.796875 362.683594 L 723.363281 362.683594 L 723.363281 364.738281 L 721.203125 364.738281 L 721.203125 365.167969 L 723.257812 365.167969 L 723.257812 367.222656 L 723.6875 367.222656 L 723.6875 365.167969 L 725.742188 365.167969 L 725.742188 364.738281 L 723.6875 364.738281 L 723.6875 362.683594 Z M 667.941406 351.449219 L 667.511719 351.449219 L 667.511719 353.5 L 665.457031 353.5 L 665.457031 353.933594 L 667.511719 353.933594 L 667.511719 355.984375 L 667.941406 355.984375 L 667.941406 353.933594 L 669.996094 353.933594 L 669.996094 353.5 L 667.941406 353.5 Z M 690.304688 351.449219 L 689.875 351.449219 L 689.875 353.5 L 687.710938 353.5 L 687.710938 353.933594 L 689.765625 353.933594 L 689.765625 355.984375 L 690.199219 355.984375 L 690.199219 353.933594 L 692.25 353.933594 L 692.25 353.5 L 690.199219 353.5 L 690.199219 351.449219 Z M 712.667969 351.449219 L 712.238281 351.449219 L 712.238281 353.5 L 710.183594 353.5 L 710.183594 353.933594 L 712.238281 353.933594 L 712.238281 355.984375 L 712.667969 355.984375 L 712.667969 353.933594 L 714.722656 353.933594 L 714.722656 353.5 L 712.667969 353.5 Z M 734.925781 351.449219 L 734.492188 351.449219 L 734.492188 353.5 L 732.4375 353.5 L 732.4375 353.933594 L 734.492188 353.933594 L 734.492188 355.984375 L 734.925781 355.984375 L 734.925781 353.933594 L 736.976562 353.933594 L 736.976562 353.5 L 734.925781 353.5 Z M 679.070312 340.320312 L 678.636719 340.320312 L 678.636719 342.371094 L 676.585938 342.371094 L 676.585938 342.804688 L 678.636719 342.804688 L 678.636719 344.859375 L 679.070312 344.859375 L 679.070312 342.804688 L 681.121094 342.804688 L 681.121094 342.371094 L 679.070312 342.371094 Z M 701.433594 340.320312 L 701 340.320312 L 701 342.371094 L 698.949219 342.371094 L 698.949219 342.804688 L 701 342.804688 L 701 344.859375 L 701.433594 344.859375 L 701.433594 342.804688 L 703.484375 342.804688 L 703.484375 342.371094 L 701.433594 342.371094 Z M 723.796875 340.320312 L 723.363281 340.320312 L 723.363281 342.371094 L 721.203125 342.371094 L 721.203125 342.804688 L 723.257812 342.804688 L 723.257812 344.859375 L 723.6875 344.859375 L 723.6875 342.804688 L 725.742188 342.804688 L 725.742188 342.371094 L 723.6875 342.371094 L 723.6875 340.320312 Z M 712.667969 329.085938 L 712.238281 329.085938 L 712.238281 331.136719 L 710.183594 331.136719 L 710.183594 331.570312 L 712.238281 331.570312 L 712.238281 333.621094 L 712.667969 333.621094 L 712.667969 331.570312 L 714.722656 331.570312 L 714.722656 331.136719 L 712.667969 331.136719 Z M 734.925781 329.085938 L 734.492188 329.085938 L 734.492188 331.136719 L 732.4375 331.136719 L 732.4375 331.570312 L 734.492188 331.570312 L 734.492188 333.621094 L 734.925781 333.621094 L 734.925781 331.570312 L 736.976562 331.570312 L 736.976562 331.136719 L 734.925781 331.136719 Z M 723.796875 317.957031 L 723.363281 317.957031 L 723.363281 320.007812 L 721.203125 320.007812 L 721.203125 320.441406 L 723.257812 320.441406 L 723.257812 322.496094 L 723.6875 322.496094 L 723.6875 320.441406 L 725.742188 320.441406 L 725.742188 320.007812 L 723.6875 320.007812 L 723.6875 317.957031 Z M 734.925781 306.722656 L 734.492188 306.722656 L 734.492188 308.773438 L 732.4375 308.773438 L 732.4375 309.207031 L 734.492188 309.207031 L 734.492188 311.257812 L 734.925781 311.257812 L 734.925781 309.207031 L 736.976562 309.207031 L 736.976562 308.882812 L 734.925781 308.882812 Z M 746.160156 541.484375 L 745.726562 541.484375 L 745.726562 543.535156 L 743.675781 543.535156 L 743.675781 543.96875 L 745.726562 543.96875 L 745.726562 546.019531 L 746.160156 546.019531 L 746.160156 543.96875 L 748.210938 543.96875 L 748.210938 543.535156 L 746.160156 543.535156 Z M 757.289062 530.246094 L 756.855469 530.246094 L 756.855469 532.300781 L 754.804688 532.300781 L 754.804688 532.734375 L 756.855469 532.734375 L 756.855469 534.785156 L 757.289062 534.785156 L 757.289062 532.734375 L 759.339844 532.734375 L 759.339844 532.300781 L 757.289062 532.300781 Z M 746.160156 519.121094 L 745.726562 519.121094 L 745.726562 521.171875 L 743.675781 521.171875 L 743.675781 521.605469 L 745.726562 521.605469 L 745.726562 523.65625 L 746.160156 523.65625 L 746.160156 521.710938 L 748.210938 521.710938 L 748.210938 521.28125 L 746.160156 521.28125 Z M 768.523438 519.121094 L 768.089844 519.121094 L 768.089844 521.171875 L 766.039062 521.171875 L 766.039062 521.605469 L 768.089844 521.605469 L 768.089844 523.65625 L 768.523438 523.65625 L 768.523438 521.710938 L 770.574219 521.710938 L 770.574219 521.28125 L 768.523438 521.28125 Z M 757.289062 507.992188 L 756.855469 507.992188 L 756.855469 510.042969 L 754.804688 510.042969 L 754.804688 510.476562 L 756.855469 510.476562 L 756.855469 512.53125 L 757.289062 512.53125 L 757.289062 510.476562 L 759.339844 510.476562 L 759.339844 510.042969 L 757.289062 510.042969 Z M 779.652344 507.992188 L 779.21875 507.992188 L 779.21875 510.042969 L 777.167969 510.042969 L 777.167969 510.476562 L 779.21875 510.476562 L 779.21875 512.53125 L 779.652344 512.53125 L 779.652344 510.476562 L 781.703125 510.476562 L 781.703125 510.042969 L 779.652344 510.042969 Z M 802.015625 507.992188 L 801.582031 507.992188 L 801.582031 510.042969 L 799.53125 510.042969 L 799.53125 510.476562 L 801.582031 510.476562 L 801.582031 512.53125 L 802.015625 512.53125 L 802.015625 510.476562 L 804.066406 510.476562 L 804.066406 510.042969 L 802.015625 510.042969 Z M 746.160156 496.757812 L 745.726562 496.757812 L 745.726562 498.808594 L 743.675781 498.808594 L 743.675781 499.242188 L 745.726562 499.242188 L 745.726562 501.292969 L 746.160156 501.292969 L 746.160156 499.242188 L 748.210938 499.242188 L 748.210938 498.808594 L 746.160156 498.808594 Z M 768.523438 496.757812 L 768.089844 496.757812 L 768.089844 498.808594 L 766.039062 498.808594 L 766.039062 499.242188 L 768.089844 499.242188 L 768.089844 501.292969 L 768.523438 501.292969 L 768.523438 499.242188 L 770.574219 499.242188 L 770.574219 498.808594 L 768.523438 498.808594 Z M 790.886719 496.757812 L 790.347656 496.757812 L 790.347656 498.808594 L 788.292969 498.808594 L 788.292969 499.242188 L 790.347656 499.242188 L 790.347656 501.292969 L 790.777344 501.292969 L 790.777344 499.242188 L 792.832031 499.242188 L 792.832031 498.808594 L 790.777344 498.808594 L 790.777344 496.757812 Z M 813.25 496.757812 L 812.816406 496.757812 L 812.816406 498.808594 L 810.765625 498.808594 L 810.765625 499.242188 L 812.816406 499.242188 L 812.816406 501.292969 L 813.25 501.292969 L 813.25 499.242188 L 815.304688 499.242188 L 815.304688 498.808594 L 813.25 498.808594 Z M 757.289062 485.628906 L 756.855469 485.628906 L 756.855469 487.679688 L 754.804688 487.679688 L 754.804688 488.113281 L 756.855469 488.113281 L 756.855469 490.167969 L 757.289062 490.167969 L 757.289062 488.113281 L 759.339844 488.113281 L 759.339844 487.679688 L 757.289062 487.679688 Z M 779.652344 485.628906 L 779.21875 485.628906 L 779.21875 487.679688 L 777.167969 487.679688 L 777.167969 488.113281 L 779.21875 488.113281 L 779.21875 490.167969 L 779.652344 490.167969 L 779.652344 488.113281 L 781.703125 488.113281 L 781.703125 487.679688 L 779.652344 487.679688 Z M 802.015625 485.628906 L 801.582031 485.628906 L 801.582031 487.679688 L 799.53125 487.679688 L 799.53125 488.113281 L 801.582031 488.113281 L 801.582031 490.167969 L 802.015625 490.167969 L 802.015625 488.113281 L 804.066406 488.113281 L 804.066406 487.679688 L 802.015625 487.679688 Z M 824.378906 485.628906 L 823.945312 485.628906 L 823.945312 487.679688 L 821.894531 487.679688 L 821.894531 488.113281 L 823.945312 488.113281 L 823.945312 490.167969 L 824.378906 490.167969 L 824.378906 488.113281 L 826.429688 488.113281 L 826.429688 487.679688 L 824.378906 487.679688 Z M 746.160156 474.394531 L 745.726562 474.394531 L 745.726562 476.445312 L 743.675781 476.445312 L 743.675781 476.878906 L 745.726562 476.878906 L 745.726562 478.929688 L 746.160156 478.929688 L 746.160156 476.878906 L 748.210938 476.878906 L 748.210938 476.445312 L 746.160156 476.445312 Z M 768.523438 474.394531 L 768.089844 474.394531 L 768.089844 476.445312 L 766.039062 476.445312 L 766.039062 476.878906 L 768.089844 476.878906 L 768.089844 478.929688 L 768.523438 478.929688 L 768.523438 476.878906 L 770.574219 476.878906 L 770.574219 476.445312 L 768.523438 476.445312 Z M 790.886719 474.394531 L 790.347656 474.394531 L 790.347656 476.445312 L 788.292969 476.445312 L 788.292969 476.878906 L 790.347656 476.878906 L 790.347656 478.929688 L 790.777344 478.929688 L 790.777344 476.878906 L 792.832031 476.878906 L 792.832031 476.445312 L 790.777344 476.445312 L 790.777344 474.394531 Z M 813.25 474.394531 L 812.816406 474.394531 L 812.816406 476.445312 L 810.765625 476.445312 L 810.765625 476.878906 L 812.816406 476.878906 L 812.816406 478.929688 L 813.25 478.929688 L 813.25 476.878906 L 815.304688 476.878906 L 815.304688 476.445312 L 813.25 476.445312 Z M 757.289062 463.265625 L 756.855469 463.265625 L 756.855469 465.316406 L 754.804688 465.316406 L 754.804688 465.75 L 756.855469 465.75 L 756.855469 467.804688 L 757.289062 467.804688 L 757.289062 465.75 L 759.339844 465.75 L 759.339844 465.316406 L 757.289062 465.316406 Z M 779.652344 463.265625 L 779.21875 463.265625 L 779.21875 465.316406 L 777.167969 465.316406 L 777.167969 465.75 L 779.21875 465.75 L 779.21875 467.804688 L 779.652344 467.804688 L 779.652344 465.75 L 781.703125 465.75 L 781.703125 465.316406 L 779.652344 465.316406 Z M 802.015625 463.265625 L 801.582031 463.265625 L 801.582031 465.316406 L 799.53125 465.316406 L 799.53125 465.75 L 801.582031 465.75 L 801.582031 467.804688 L 802.015625 467.804688 L 802.015625 465.75 L 804.066406 465.75 L 804.066406 465.316406 L 802.015625 465.316406 Z M 824.378906 463.265625 L 823.945312 463.265625 L 823.945312 465.316406 L 821.894531 465.316406 L 821.894531 465.75 L 823.945312 465.75 L 823.945312 467.804688 L 824.378906 467.804688 L 824.378906 465.75 L 826.429688 465.75 L 826.429688 465.316406 L 824.378906 465.316406 Z M 746.160156 452.03125 L 745.726562 452.03125 L 745.726562 454.082031 L 743.675781 454.082031 L 743.675781 454.515625 L 745.726562 454.515625 L 745.726562 456.566406 L 746.160156 456.566406 L 746.160156 454.515625 L 748.210938 454.515625 L 748.210938 454.082031 L 746.160156 454.082031 Z M 768.523438 452.03125 L 768.089844 452.03125 L 768.089844 454.082031 L 766.039062 454.082031 L 766.039062 454.515625 L 768.089844 454.515625 L 768.089844 456.566406 L 768.523438 456.566406 L 768.523438 454.515625 L 770.574219 454.515625 L 770.574219 454.082031 L 768.523438 454.082031 Z M 790.886719 452.03125 L 790.347656 452.03125 L 790.347656 454.082031 L 788.292969 454.082031 L 788.292969 454.515625 L 790.347656 454.515625 L 790.347656 456.566406 L 790.777344 456.566406 L 790.777344 454.515625 L 792.832031 454.515625 L 792.832031 454.082031 L 790.777344 454.082031 L 790.777344 452.03125 Z M 813.25 452.03125 L 812.816406 452.03125 L 812.816406 454.082031 L 810.765625 454.082031 L 810.765625 454.515625 L 812.816406 454.515625 L 812.816406 456.566406 L 813.25 456.566406 L 813.25 454.515625 L 815.304688 454.515625 L 815.304688 454.082031 L 813.25 454.082031 Z M 757.289062 440.902344 L 756.855469 440.902344 L 756.855469 442.953125 L 754.804688 442.953125 L 754.804688 443.386719 L 756.855469 443.386719 L 756.855469 445.4375 L 757.289062 445.4375 L 757.289062 443.386719 L 759.339844 443.386719 L 759.339844 442.953125 L 757.289062 442.953125 Z M 779.652344 440.902344 L 779.21875 440.902344 L 779.21875 442.953125 L 777.167969 442.953125 L 777.167969 443.386719 L 779.21875 443.386719 L 779.21875 445.4375 L 779.652344 445.4375 L 779.652344 443.386719 L 781.703125 443.386719 L 781.703125 442.953125 L 779.652344 442.953125 Z M 802.015625 440.902344 L 801.582031 440.902344 L 801.582031 442.953125 L 799.53125 442.953125 L 799.53125 443.386719 L 801.582031 443.386719 L 801.582031 445.4375 L 802.015625 445.4375 L 802.015625 443.386719 L 804.066406 443.386719 L 804.066406 442.953125 L 802.015625 442.953125 Z M 824.378906 440.902344 L 823.945312 440.902344 L 823.945312 442.953125 L 821.894531 442.953125 L 821.894531 443.386719 L 823.945312 443.386719 L 823.945312 445.4375 L 824.378906 445.4375 L 824.378906 443.386719 L 826.429688 443.386719 L 826.429688 442.953125 L 824.378906 442.953125 Z M 746.160156 429.667969 L 745.726562 429.667969 L 745.726562 431.71875 L 743.675781 431.71875 L 743.675781 432.152344 L 745.726562 432.152344 L 745.726562 434.203125 L 746.160156 434.203125 L 746.160156 432.152344 L 748.210938 432.152344 L 748.210938 431.71875 L 746.160156 431.71875 Z M 768.523438 429.667969 L 768.089844 429.667969 L 768.089844 431.71875 L 766.039062 431.71875 L 766.039062 432.152344 L 768.089844 432.152344 L 768.089844 434.203125 L 768.523438 434.203125 L 768.523438 432.152344 L 770.574219 432.152344 L 770.574219 431.71875 L 768.523438 431.71875 Z M 790.886719 429.667969 L 790.347656 429.667969 L 790.347656 431.71875 L 788.292969 431.71875 L 788.292969 432.152344 L 790.347656 432.152344 L 790.347656 434.203125 L 790.777344 434.203125 L 790.777344 432.152344 L 792.832031 432.152344 L 792.832031 431.71875 L 790.777344 431.71875 L 790.777344 429.667969 Z M 813.25 429.667969 L 812.816406 429.667969 L 812.816406 431.71875 L 810.765625 431.71875 L 810.765625 432.152344 L 812.816406 432.152344 L 812.816406 434.203125 L 813.25 434.203125 L 813.25 432.152344 L 815.304688 432.152344 L 815.304688 431.71875 L 813.25 431.71875 Z M 757.289062 418.539062 L 756.855469 418.539062 L 756.855469 420.589844 L 754.804688 420.589844 L 754.804688 421.023438 L 756.855469 421.023438 L 756.855469 423.074219 L 757.289062 423.074219 L 757.289062 421.023438 L 759.339844 421.023438 L 759.339844 420.589844 L 757.289062 420.589844 Z M 779.652344 418.539062 L 779.21875 418.539062 L 779.21875 420.589844 L 777.167969 420.589844 L 777.167969 421.023438 L 779.21875 421.023438 L 779.21875 423.074219 L 779.652344 423.074219 L 779.652344 421.023438 L 781.703125 421.023438 L 781.703125 420.589844 L 779.652344 420.589844 Z M 802.015625 418.539062 L 801.582031 418.539062 L 801.582031 420.589844 L 799.53125 420.589844 L 799.53125 421.023438 L 801.582031 421.023438 L 801.582031 423.074219 L 802.015625 423.074219 L 802.015625 421.023438 L 804.066406 421.023438 L 804.066406 420.589844 L 802.015625 420.589844 Z M 824.378906 418.539062 L 823.945312 418.539062 L 823.945312 420.589844 L 821.894531 420.589844 L 821.894531 421.023438 L 823.945312 421.023438 L 823.945312 423.074219 L 824.378906 423.074219 L 824.378906 421.023438 L 826.429688 421.023438 L 826.429688 420.589844 L 824.378906 420.589844 Z M 746.160156 407.300781 L 745.726562 407.300781 L 745.726562 409.355469 L 743.675781 409.355469 L 743.675781 409.789062 L 745.726562 409.789062 L 745.726562 411.839844 L 746.160156 411.839844 L 746.160156 409.789062 L 748.210938 409.789062 L 748.210938 409.355469 L 746.160156 409.355469 Z M 768.523438 407.300781 L 768.089844 407.300781 L 768.089844 409.355469 L 766.039062 409.355469 L 766.039062 409.789062 L 768.089844 409.789062 L 768.089844 411.839844 L 768.523438 411.839844 L 768.523438 409.789062 L 770.574219 409.789062 L 770.574219 409.355469 L 768.523438 409.355469 Z M 790.886719 407.300781 L 790.347656 407.300781 L 790.347656 409.355469 L 788.292969 409.355469 L 788.292969 409.789062 L 790.347656 409.789062 L 790.347656 411.839844 L 790.777344 411.839844 L 790.777344 409.789062 L 792.832031 409.789062 L 792.832031 409.355469 L 790.777344 409.355469 L 790.777344 407.300781 Z M 813.25 407.300781 L 812.816406 407.300781 L 812.816406 409.355469 L 810.765625 409.355469 L 810.765625 409.789062 L 812.816406 409.789062 L 812.816406 411.839844 L 813.25 411.839844 L 813.25 409.789062 L 815.304688 409.789062 L 815.304688 409.355469 L 813.25 409.355469 Z M 757.289062 396.175781 L 756.855469 396.175781 L 756.855469 398.226562 L 754.804688 398.226562 L 754.804688 398.660156 L 756.855469 398.660156 L 756.855469 400.710938 L 757.289062 400.710938 L 757.289062 398.660156 L 759.339844 398.660156 L 759.339844 398.226562 L 757.289062 398.226562 Z M 779.652344 396.175781 L 779.21875 396.175781 L 779.21875 398.226562 L 777.167969 398.226562 L 777.167969 398.660156 L 779.21875 398.660156 L 779.21875 400.710938 L 779.652344 400.710938 L 779.652344 398.660156 L 781.703125 398.660156 L 781.703125 398.226562 L 779.652344 398.226562 Z M 802.015625 396.175781 L 801.582031 396.175781 L 801.582031 398.226562 L 799.53125 398.226562 L 799.53125 398.660156 L 801.582031 398.660156 L 801.582031 400.710938 L 802.015625 400.710938 L 802.015625 398.660156 L 804.066406 398.660156 L 804.066406 398.226562 L 802.015625 398.226562 Z M 824.378906 396.175781 L 823.945312 396.175781 L 823.945312 398.226562 L 821.894531 398.226562 L 821.894531 398.660156 L 823.945312 398.660156 L 823.945312 400.710938 L 824.378906 400.710938 L 824.378906 398.660156 L 826.429688 398.660156 L 826.429688 398.226562 L 824.378906 398.226562 Z M 746.160156 384.9375 L 745.726562 384.9375 L 745.726562 386.992188 L 743.675781 386.992188 L 743.675781 387.425781 L 745.726562 387.425781 L 745.726562 389.476562 L 746.160156 389.476562 L 746.160156 387.425781 L 748.210938 387.425781 L 748.210938 386.992188 L 746.160156 386.992188 Z M 768.523438 384.9375 L 768.089844 384.9375 L 768.089844 386.992188 L 766.039062 386.992188 L 766.039062 387.425781 L 768.089844 387.425781 L 768.089844 389.476562 L 768.523438 389.476562 L 768.523438 387.425781 L 770.574219 387.425781 L 770.574219 386.992188 L 768.523438 386.992188 Z M 790.886719 384.9375 L 790.347656 384.9375 L 790.347656 386.992188 L 788.292969 386.992188 L 788.292969 387.425781 L 790.347656 387.425781 L 790.347656 389.476562 L 790.777344 389.476562 L 790.777344 387.425781 L 792.832031 387.425781 L 792.832031 386.992188 L 790.777344 386.992188 L 790.777344 384.9375 Z M 813.25 384.9375 L 812.816406 384.9375 L 812.816406 386.992188 L 810.765625 386.992188 L 810.765625 387.425781 L 812.816406 387.425781 L 812.816406 389.476562 L 813.25 389.476562 L 813.25 387.425781 L 815.304688 387.425781 L 815.304688 386.992188 L 813.25 386.992188 Z M 757.289062 373.8125 L 756.855469 373.8125 L 756.855469 375.863281 L 754.804688 375.863281 L 754.804688 376.296875 L 756.855469 376.296875 L 756.855469 378.347656 L 757.289062 378.347656 L 757.289062 376.296875 L 759.339844 376.296875 L 759.339844 375.863281 L 757.289062 375.863281 Z M 779.652344 373.8125 L 779.21875 373.8125 L 779.21875 375.863281 L 777.167969 375.863281 L 777.167969 376.296875 L 779.21875 376.296875 L 779.21875 378.347656 L 779.652344 378.347656 L 779.652344 376.296875 L 781.703125 376.296875 L 781.703125 375.863281 L 779.652344 375.863281 Z M 802.015625 373.8125 L 801.582031 373.8125 L 801.582031 375.863281 L 799.53125 375.863281 L 799.53125 376.296875 L 801.582031 376.296875 L 801.582031 378.347656 L 802.015625 378.347656 L 802.015625 376.296875 L 804.066406 376.296875 L 804.066406 375.863281 L 802.015625 375.863281 Z M 824.378906 373.8125 L 823.945312 373.8125 L 823.945312 375.863281 L 821.894531 375.863281 L 821.894531 376.296875 L 823.945312 376.296875 L 823.945312 378.347656 L 824.378906 378.347656 L 824.378906 376.296875 L 826.429688 376.296875 L 826.429688 375.863281 L 824.378906 375.863281 Z M 746.160156 362.683594 L 745.726562 362.683594 L 745.726562 364.738281 L 743.675781 364.738281 L 743.675781 365.167969 L 745.726562 365.167969 L 745.726562 367.222656 L 746.160156 367.222656 L 746.160156 365.167969 L 748.210938 365.167969 L 748.210938 364.738281 L 746.160156 364.738281 Z M 768.523438 362.683594 L 768.089844 362.683594 L 768.089844 364.738281 L 766.039062 364.738281 L 766.039062 365.167969 L 768.089844 365.167969 L 768.089844 367.222656 L 768.523438 367.222656 L 768.523438 365.167969 L 770.574219 365.167969 L 770.574219 364.738281 L 768.523438 364.738281 Z M 790.886719 362.683594 L 790.347656 362.683594 L 790.347656 364.738281 L 788.292969 364.738281 L 788.292969 365.167969 L 790.347656 365.167969 L 790.347656 367.222656 L 790.777344 367.222656 L 790.777344 365.167969 L 792.832031 365.167969 L 792.832031 364.738281 L 790.777344 364.738281 L 790.777344 362.683594 Z M 813.25 362.683594 L 812.816406 362.683594 L 812.816406 364.738281 L 810.765625 364.738281 L 810.765625 365.167969 L 812.816406 365.167969 L 812.816406 367.222656 L 813.25 367.222656 L 813.25 365.167969 L 815.304688 365.167969 L 815.304688 364.738281 L 813.25 364.738281 Z M 757.289062 351.449219 L 756.855469 351.449219 L 756.855469 353.5 L 754.804688 353.5 L 754.804688 353.933594 L 756.855469 353.933594 L 756.855469 355.984375 L 757.289062 355.984375 L 757.289062 353.933594 L 759.339844 353.933594 L 759.339844 353.5 L 757.289062 353.5 Z M 779.652344 351.449219 L 779.21875 351.449219 L 779.21875 353.5 L 777.167969 353.5 L 777.167969 353.933594 L 779.21875 353.933594 L 779.21875 355.984375 L 779.652344 355.984375 L 779.652344 353.933594 L 781.703125 353.933594 L 781.703125 353.5 L 779.652344 353.5 Z M 802.015625 351.449219 L 801.582031 351.449219 L 801.582031 353.5 L 799.53125 353.5 L 799.53125 353.933594 L 801.582031 353.933594 L 801.582031 355.984375 L 802.015625 355.984375 L 802.015625 353.933594 L 804.066406 353.933594 L 804.066406 353.5 L 802.015625 353.5 Z M 824.378906 351.449219 L 823.945312 351.449219 L 823.945312 353.5 L 821.894531 353.5 L 821.894531 353.933594 L 823.945312 353.933594 L 823.945312 355.984375 L 824.378906 355.984375 L 824.378906 353.933594 L 826.429688 353.933594 L 826.429688 353.5 L 824.378906 353.5 Z M 746.160156 340.320312 L 745.726562 340.320312 L 745.726562 342.371094 L 743.675781 342.371094 L 743.675781 342.804688 L 745.726562 342.804688 L 745.726562 344.859375 L 746.160156 344.859375 L 746.160156 342.804688 L 748.210938 342.804688 L 748.210938 342.371094 L 746.160156 342.371094 Z M 768.523438 340.320312 L 768.089844 340.320312 L 768.089844 342.371094 L 766.039062 342.371094 L 766.039062 342.804688 L 768.089844 342.804688 L 768.089844 344.859375 L 768.523438 344.859375 L 768.523438 342.804688 L 770.574219 342.804688 L 770.574219 342.371094 L 768.523438 342.371094 Z M 790.886719 340.320312 L 790.347656 340.320312 L 790.347656 342.371094 L 788.292969 342.371094 L 788.292969 342.804688 L 790.347656 342.804688 L 790.347656 344.859375 L 790.777344 344.859375 L 790.777344 342.804688 L 792.832031 342.804688 L 792.832031 342.371094 L 790.777344 342.371094 L 790.777344 340.320312 Z M 813.25 340.320312 L 812.816406 340.320312 L 812.816406 342.371094 L 810.765625 342.371094 L 810.765625 342.804688 L 812.816406 342.804688 L 812.816406 344.859375 L 813.25 344.859375 L 813.25 342.804688 L 815.304688 342.804688 L 815.304688 342.371094 L 813.25 342.371094 Z M 757.289062 329.085938 L 756.855469 329.085938 L 756.855469 331.136719 L 754.804688 331.136719 L 754.804688 331.570312 L 756.855469 331.570312 L 756.855469 333.621094 L 757.289062 333.621094 L 757.289062 331.570312 L 759.339844 331.570312 L 759.339844 331.136719 L 757.289062 331.136719 Z M 779.652344 329.085938 L 779.21875 329.085938 L 779.21875 331.136719 L 777.167969 331.136719 L 777.167969 331.570312 L 779.21875 331.570312 L 779.21875 333.621094 L 779.652344 333.621094 L 779.652344 331.570312 L 781.703125 331.570312 L 781.703125 331.136719 L 779.652344 331.136719 Z M 802.015625 329.085938 L 801.582031 329.085938 L 801.582031 331.136719 L 799.53125 331.136719 L 799.53125 331.570312 L 801.582031 331.570312 L 801.582031 333.621094 L 802.015625 333.621094 L 802.015625 331.570312 L 804.066406 331.570312 L 804.066406 331.136719 L 802.015625 331.136719 Z M 824.378906 329.085938 L 823.945312 329.085938 L 823.945312 331.136719 L 821.894531 331.136719 L 821.894531 331.570312 L 823.945312 331.570312 L 823.945312 333.621094 L 824.378906 333.621094 L 824.378906 331.570312 L 826.429688 331.570312 L 826.429688 331.136719 L 824.378906 331.136719 Z M 746.160156 317.957031 L 745.726562 317.957031 L 745.726562 320.007812 L 743.675781 320.007812 L 743.675781 320.441406 L 745.726562 320.441406 L 745.726562 322.496094 L 746.160156 322.496094 L 746.160156 320.441406 L 748.210938 320.441406 L 748.210938 320.007812 L 746.160156 320.007812 Z M 768.523438 317.957031 L 768.089844 317.957031 L 768.089844 320.007812 L 766.039062 320.007812 L 766.039062 320.441406 L 768.089844 320.441406 L 768.089844 322.496094 L 768.523438 322.496094 L 768.523438 320.441406 L 770.574219 320.441406 L 770.574219 320.007812 L 768.523438 320.007812 Z M 790.886719 317.957031 L 790.347656 317.957031 L 790.347656 320.007812 L 788.292969 320.007812 L 788.292969 320.441406 L 790.347656 320.441406 L 790.347656 322.496094 L 790.777344 322.496094 L 790.777344 320.441406 L 792.832031 320.441406 L 792.832031 320.007812 L 790.777344 320.007812 L 790.777344 317.957031 Z M 813.25 317.957031 L 812.816406 317.957031 L 812.816406 320.007812 L 810.765625 320.007812 L 810.765625 320.441406 L 812.816406 320.441406 L 812.816406 322.496094 L 813.25 322.496094 L 813.25 320.441406 L 815.304688 320.441406 L 815.304688 320.007812 L 813.25 320.007812 Z M 757.289062 306.722656 L 756.855469 306.722656 L 756.855469 308.773438 L 754.804688 308.773438 L 754.804688 309.207031 L 756.855469 309.207031 L 756.855469 311.257812 L 757.289062 311.257812 L 757.289062 309.207031 L 759.339844 309.207031 L 759.339844 308.882812 L 757.289062 308.882812 Z M 779.652344 306.722656 L 779.21875 306.722656 L 779.21875 308.773438 L 777.167969 308.773438 L 777.167969 309.207031 L 779.21875 309.207031 L 779.21875 311.257812 L 779.652344 311.257812 L 779.652344 309.207031 L 781.703125 309.207031 L 781.703125 308.882812 L 779.652344 308.882812 Z M 802.015625 306.722656 L 801.582031 306.722656 L 801.582031 308.773438 L 799.53125 308.773438 L 799.53125 309.207031 L 801.582031 309.207031 L 801.582031 311.257812 L 802.015625 311.257812 L 802.015625 309.207031 L 804.066406 309.207031 L 804.066406 308.882812 L 802.015625 308.882812 Z M 768.523438 295.59375 L 768.089844 295.59375 L 768.089844 297.644531 L 766.039062 297.644531 L 766.039062 298.078125 L 768.089844 298.078125 L 768.089844 300.132812 L 768.523438 300.132812 L 768.523438 298.078125 L 770.574219 298.078125 L 770.574219 297.644531 L 768.523438 297.644531 Z M 790.886719 295.59375 L 790.347656 295.59375 L 790.347656 297.644531 L 788.292969 297.644531 L 788.292969 298.078125 L 790.347656 298.078125 L 790.347656 300.132812 L 790.777344 300.132812 L 790.777344 298.078125 L 792.832031 298.078125 L 792.832031 297.644531 L 790.777344 297.644531 L 790.777344 295.59375 Z M 846.742188 485.628906 L 846.308594 485.628906 L 846.308594 487.679688 L 844.257812 487.679688 L 844.257812 488.113281 L 846.308594 488.113281 L 846.308594 490.167969 L 846.742188 490.167969 L 846.742188 488.113281 L 848.792969 488.113281 L 848.792969 487.679688 L 846.742188 487.679688 Z M 835.613281 474.394531 L 835.183594 474.394531 L 835.183594 476.445312 L 833.128906 476.445312 L 833.128906 476.878906 L 835.183594 476.878906 L 835.183594 478.929688 L 835.613281 478.929688 L 835.613281 476.878906 L 837.667969 476.878906 L 837.667969 476.445312 L 835.613281 476.445312 Z M 857.976562 474.394531 L 857.546875 474.394531 L 857.546875 476.445312 L 855.492188 476.445312 L 855.492188 476.878906 L 857.546875 476.878906 L 857.546875 478.929688 L 857.976562 478.929688 L 857.976562 476.878906 L 860.03125 476.878906 L 860.03125 476.445312 L 857.976562 476.445312 Z M 846.742188 463.265625 L 846.308594 463.265625 L 846.308594 465.316406 L 844.257812 465.316406 L 844.257812 465.75 L 846.308594 465.75 L 846.308594 467.804688 L 846.742188 467.804688 L 846.742188 465.75 L 848.792969 465.75 L 848.792969 465.316406 L 846.742188 465.316406 Z M 869.105469 463.265625 L 868.671875 463.265625 L 868.671875 465.316406 L 866.621094 465.316406 L 866.621094 465.75 L 868.671875 465.75 L 868.671875 467.804688 L 869.105469 467.804688 L 869.105469 465.75 L 871.15625 465.75 L 871.15625 465.316406 L 869.105469 465.316406 Z M 835.613281 452.03125 L 835.183594 452.03125 L 835.183594 454.082031 L 833.128906 454.082031 L 833.128906 454.515625 L 835.183594 454.515625 L 835.183594 456.566406 L 835.613281 456.566406 L 835.613281 454.515625 L 837.667969 454.515625 L 837.667969 454.082031 L 835.613281 454.082031 Z M 857.976562 452.03125 L 857.546875 452.03125 L 857.546875 454.082031 L 855.492188 454.082031 L 855.492188 454.515625 L 857.546875 454.515625 L 857.546875 456.566406 L 857.976562 456.566406 L 857.976562 454.515625 L 860.03125 454.515625 L 860.03125 454.082031 L 857.976562 454.082031 Z M 880.234375 452.03125 L 879.800781 452.03125 L 879.800781 454.082031 L 877.746094 454.082031 L 877.746094 454.515625 L 879.800781 454.515625 L 879.800781 456.566406 L 880.234375 456.566406 L 880.234375 454.515625 L 882.285156 454.515625 L 882.285156 454.082031 L 880.234375 454.082031 Z M 902.597656 452.03125 L 902.164062 452.03125 L 902.164062 454.082031 L 900.109375 454.082031 L 900.109375 454.515625 L 902.164062 454.515625 L 902.164062 456.566406 L 902.597656 456.566406 L 902.597656 454.515625 L 904.648438 454.515625 L 904.648438 454.082031 L 902.597656 454.082031 Z M 846.742188 440.902344 L 846.308594 440.902344 L 846.308594 442.953125 L 844.257812 442.953125 L 844.257812 443.386719 L 846.308594 443.386719 L 846.308594 445.4375 L 846.742188 445.4375 L 846.742188 443.386719 L 848.792969 443.386719 L 848.792969 442.953125 L 846.742188 442.953125 Z M 869.105469 440.902344 L 868.671875 440.902344 L 868.671875 442.953125 L 866.621094 442.953125 L 866.621094 443.386719 L 868.671875 443.386719 L 868.671875 445.4375 L 869.105469 445.4375 L 869.105469 443.386719 L 871.15625 443.386719 L 871.15625 442.953125 L 869.105469 442.953125 Z M 891.46875 440.902344 L 891.035156 440.902344 L 891.035156 442.953125 L 888.984375 442.953125 L 888.984375 443.386719 L 891.035156 443.386719 L 891.035156 445.4375 L 891.46875 445.4375 L 891.46875 443.386719 L 893.519531 443.386719 L 893.519531 442.953125 L 891.46875 442.953125 Z M 913.832031 440.902344 L 913.398438 440.902344 L 913.398438 442.953125 L 911.347656 442.953125 L 911.347656 443.386719 L 913.398438 443.386719 L 913.398438 445.4375 L 913.832031 445.4375 L 913.832031 443.386719 L 915.882812 443.386719 L 915.882812 442.953125 L 913.832031 442.953125 Z M 835.613281 429.667969 L 835.183594 429.667969 L 835.183594 431.71875 L 833.128906 431.71875 L 833.128906 432.152344 L 835.183594 432.152344 L 835.183594 434.203125 L 835.613281 434.203125 L 835.613281 432.152344 L 837.667969 432.152344 L 837.667969 431.71875 L 835.613281 431.71875 Z M 857.976562 429.667969 L 857.546875 429.667969 L 857.546875 431.71875 L 855.492188 431.71875 L 855.492188 432.152344 L 857.546875 432.152344 L 857.546875 434.203125 L 857.976562 434.203125 L 857.976562 432.152344 L 860.03125 432.152344 L 860.03125 431.71875 L 857.976562 431.71875 Z M 880.234375 429.667969 L 879.800781 429.667969 L 879.800781 431.71875 L 877.746094 431.71875 L 877.746094 432.152344 L 879.800781 432.152344 L 879.800781 434.203125 L 880.234375 434.203125 L 880.234375 432.152344 L 882.285156 432.152344 L 882.285156 431.71875 L 880.234375 431.71875 Z M 902.597656 429.667969 L 902.164062 429.667969 L 902.164062 431.71875 L 900.109375 431.71875 L 900.109375 432.152344 L 902.164062 432.152344 L 902.164062 434.203125 L 902.597656 434.203125 L 902.597656 432.152344 L 904.648438 432.152344 L 904.648438 431.71875 L 902.597656 431.71875 Z M 846.742188 418.539062 L 846.308594 418.539062 L 846.308594 420.589844 L 844.257812 420.589844 L 844.257812 421.023438 L 846.308594 421.023438 L 846.308594 423.074219 L 846.742188 423.074219 L 846.742188 421.023438 L 848.792969 421.023438 L 848.792969 420.589844 L 846.742188 420.589844 Z M 869.105469 418.539062 L 868.671875 418.539062 L 868.671875 420.589844 L 866.621094 420.589844 L 866.621094 421.023438 L 868.671875 421.023438 L 868.671875 423.074219 L 869.105469 423.074219 L 869.105469 421.023438 L 871.15625 421.023438 L 871.15625 420.589844 L 869.105469 420.589844 Z M 891.46875 418.539062 L 891.035156 418.539062 L 891.035156 420.589844 L 888.984375 420.589844 L 888.984375 421.023438 L 891.035156 421.023438 L 891.035156 423.074219 L 891.46875 423.074219 L 891.46875 421.023438 L 893.519531 421.023438 L 893.519531 420.589844 L 891.46875 420.589844 Z M 913.832031 418.539062 L 913.398438 418.539062 L 913.398438 420.589844 L 911.347656 420.589844 L 911.347656 421.023438 L 913.398438 421.023438 L 913.398438 423.074219 L 913.832031 423.074219 L 913.832031 421.023438 L 915.882812 421.023438 L 915.882812 420.589844 L 913.832031 420.589844 Z M 835.613281 407.300781 L 835.183594 407.300781 L 835.183594 409.355469 L 833.128906 409.355469 L 833.128906 409.789062 L 835.183594 409.789062 L 835.183594 411.839844 L 835.613281 411.839844 L 835.613281 409.789062 L 837.667969 409.789062 L 837.667969 409.355469 L 835.613281 409.355469 Z M 857.976562 407.300781 L 857.546875 407.300781 L 857.546875 409.355469 L 855.492188 409.355469 L 855.492188 409.789062 L 857.546875 409.789062 L 857.546875 411.839844 L 857.976562 411.839844 L 857.976562 409.789062 L 860.03125 409.789062 L 860.03125 409.355469 L 857.976562 409.355469 Z M 880.234375 407.300781 L 879.800781 407.300781 L 879.800781 409.355469 L 877.746094 409.355469 L 877.746094 409.789062 L 879.800781 409.789062 L 879.800781 411.839844 L 880.234375 411.839844 L 880.234375 409.789062 L 882.285156 409.789062 L 882.285156 409.355469 L 880.234375 409.355469 Z M 902.597656 407.300781 L 902.164062 407.300781 L 902.164062 409.355469 L 900.109375 409.355469 L 900.109375 409.789062 L 902.164062 409.789062 L 902.164062 411.839844 L 902.597656 411.839844 L 902.597656 409.789062 L 904.648438 409.789062 L 904.648438 409.355469 L 902.597656 409.355469 Z M 846.742188 396.175781 L 846.308594 396.175781 L 846.308594 398.226562 L 844.257812 398.226562 L 844.257812 398.660156 L 846.308594 398.660156 L 846.308594 400.710938 L 846.742188 400.710938 L 846.742188 398.660156 L 848.792969 398.660156 L 848.792969 398.226562 L 846.742188 398.226562 Z M 869.105469 396.175781 L 868.671875 396.175781 L 868.671875 398.226562 L 866.621094 398.226562 L 866.621094 398.660156 L 868.671875 398.660156 L 868.671875 400.710938 L 869.105469 400.710938 L 869.105469 398.660156 L 871.15625 398.660156 L 871.15625 398.226562 L 869.105469 398.226562 Z M 891.46875 396.175781 L 891.035156 396.175781 L 891.035156 398.226562 L 888.984375 398.226562 L 888.984375 398.660156 L 891.035156 398.660156 L 891.035156 400.710938 L 891.46875 400.710938 L 891.46875 398.660156 L 893.519531 398.660156 L 893.519531 398.226562 L 891.46875 398.226562 Z M 913.832031 396.175781 L 913.398438 396.175781 L 913.398438 398.226562 L 911.347656 398.226562 L 911.347656 398.660156 L 913.398438 398.660156 L 913.398438 400.710938 L 913.832031 400.710938 L 913.832031 398.660156 L 915.882812 398.660156 L 915.882812 398.226562 L 913.832031 398.226562 Z M 835.613281 384.9375 L 835.183594 384.9375 L 835.183594 386.992188 L 833.128906 386.992188 L 833.128906 387.425781 L 835.183594 387.425781 L 835.183594 389.476562 L 835.613281 389.476562 L 835.613281 387.425781 L 837.667969 387.425781 L 837.667969 386.992188 L 835.613281 386.992188 Z M 857.976562 384.9375 L 857.546875 384.9375 L 857.546875 386.992188 L 855.492188 386.992188 L 855.492188 387.425781 L 857.546875 387.425781 L 857.546875 389.476562 L 857.976562 389.476562 L 857.976562 387.425781 L 860.03125 387.425781 L 860.03125 386.992188 L 857.976562 386.992188 Z M 880.234375 384.9375 L 879.800781 384.9375 L 879.800781 386.992188 L 877.746094 386.992188 L 877.746094 387.425781 L 879.800781 387.425781 L 879.800781 389.476562 L 880.234375 389.476562 L 880.234375 387.425781 L 882.285156 387.425781 L 882.285156 386.992188 L 880.234375 386.992188 Z M 902.597656 384.9375 L 902.164062 384.9375 L 902.164062 386.992188 L 900.109375 386.992188 L 900.109375 387.425781 L 902.164062 387.425781 L 902.164062 389.476562 L 902.597656 389.476562 L 902.597656 387.425781 L 904.648438 387.425781 L 904.648438 386.992188 L 902.597656 386.992188 Z M 846.742188 373.8125 L 846.308594 373.8125 L 846.308594 375.863281 L 844.257812 375.863281 L 844.257812 376.296875 L 846.308594 376.296875 L 846.308594 378.347656 L 846.742188 378.347656 L 846.742188 376.296875 L 848.792969 376.296875 L 848.792969 375.863281 L 846.742188 375.863281 Z M 869.105469 373.8125 L 868.671875 373.8125 L 868.671875 375.863281 L 866.621094 375.863281 L 866.621094 376.296875 L 868.671875 376.296875 L 868.671875 378.347656 L 869.105469 378.347656 L 869.105469 376.296875 L 871.15625 376.296875 L 871.15625 375.863281 L 869.105469 375.863281 Z M 891.46875 373.8125 L 891.035156 373.8125 L 891.035156 375.863281 L 888.984375 375.863281 L 888.984375 376.296875 L 891.035156 376.296875 L 891.035156 378.347656 L 891.46875 378.347656 L 891.46875 376.296875 L 893.519531 376.296875 L 893.519531 375.863281 L 891.46875 375.863281 Z M 913.832031 373.8125 L 913.398438 373.8125 L 913.398438 375.863281 L 911.347656 375.863281 L 911.347656 376.296875 L 913.398438 376.296875 L 913.398438 378.347656 L 913.832031 378.347656 L 913.832031 376.296875 L 915.882812 376.296875 L 915.882812 375.863281 L 913.832031 375.863281 Z M 835.613281 362.683594 L 835.183594 362.683594 L 835.183594 364.738281 L 833.128906 364.738281 L 833.128906 365.167969 L 835.183594 365.167969 L 835.183594 367.222656 L 835.613281 367.222656 L 835.613281 365.167969 L 837.667969 365.167969 L 837.667969 364.738281 L 835.613281 364.738281 Z M 857.976562 362.683594 L 857.546875 362.683594 L 857.546875 364.738281 L 855.492188 364.738281 L 855.492188 365.167969 L 857.546875 365.167969 L 857.546875 367.222656 L 857.976562 367.222656 L 857.976562 365.167969 L 860.03125 365.167969 L 860.03125 364.738281 L 857.976562 364.738281 Z M 880.234375 362.683594 L 879.800781 362.683594 L 879.800781 364.738281 L 877.746094 364.738281 L 877.746094 365.167969 L 879.800781 365.167969 L 879.800781 367.222656 L 880.234375 367.222656 L 880.234375 365.167969 L 882.285156 365.167969 L 882.285156 364.738281 L 880.234375 364.738281 Z M 902.597656 362.683594 L 902.164062 362.683594 L 902.164062 364.738281 L 900.109375 364.738281 L 900.109375 365.167969 L 902.164062 365.167969 L 902.164062 367.222656 L 902.597656 367.222656 L 902.597656 365.167969 L 904.648438 365.167969 L 904.648438 364.738281 L 902.597656 364.738281 Z M 846.742188 351.449219 L 846.308594 351.449219 L 846.308594 353.5 L 844.257812 353.5 L 844.257812 353.933594 L 846.308594 353.933594 L 846.308594 355.984375 L 846.742188 355.984375 L 846.742188 353.933594 L 848.792969 353.933594 L 848.792969 353.5 L 846.742188 353.5 Z M 869.105469 351.449219 L 868.671875 351.449219 L 868.671875 353.5 L 866.621094 353.5 L 866.621094 353.933594 L 868.671875 353.933594 L 868.671875 355.984375 L 869.105469 355.984375 L 869.105469 353.933594 L 871.15625 353.933594 L 871.15625 353.5 L 869.105469 353.5 Z M 891.46875 351.449219 L 891.035156 351.449219 L 891.035156 353.5 L 888.984375 353.5 L 888.984375 353.933594 L 891.035156 353.933594 L 891.035156 355.984375 L 891.46875 355.984375 L 891.46875 353.933594 L 893.519531 353.933594 L 893.519531 353.5 L 891.46875 353.5 Z M 835.613281 340.320312 L 835.183594 340.320312 L 835.183594 342.371094 L 833.128906 342.371094 L 833.128906 342.804688 L 835.183594 342.804688 L 835.183594 344.859375 L 835.613281 344.859375 L 835.613281 342.804688 L 837.667969 342.804688 L 837.667969 342.371094 L 835.613281 342.371094 Z M 857.976562 340.320312 L 857.546875 340.320312 L 857.546875 342.371094 L 855.492188 342.371094 L 855.492188 342.804688 L 857.546875 342.804688 L 857.546875 344.859375 L 857.976562 344.859375 L 857.976562 342.804688 L 860.03125 342.804688 L 860.03125 342.371094 L 857.976562 342.371094 Z M 846.742188 329.085938 L 846.308594 329.085938 L 846.308594 331.136719 L 844.257812 331.136719 L 844.257812 331.570312 L 846.308594 331.570312 L 846.308594 333.621094 L 846.742188 333.621094 L 846.742188 331.570312 L 848.792969 331.570312 L 848.792969 331.136719 L 846.742188 331.136719 Z M 835.613281 317.957031 L 835.183594 317.957031 L 835.183594 320.007812 L 833.128906 320.007812 L 833.128906 320.441406 L 835.183594 320.441406 L 835.183594 322.496094 L 835.613281 322.496094 L 835.613281 320.441406 L 837.667969 320.441406 L 837.667969 320.007812 L 835.613281 320.007812 Z M 924.960938 429.667969 L 924.527344 429.667969 L 924.527344 431.71875 L 922.476562 431.71875 L 922.476562 432.152344 L 924.527344 432.152344 L 924.527344 434.203125 L 924.960938 434.203125 L 924.960938 432.152344 L 927.011719 432.152344 L 927.011719 431.71875 L 924.960938 431.71875 Z M 936.195312 418.539062 L 935.761719 418.539062 L 935.761719 420.589844 L 933.710938 420.589844 L 933.710938 421.023438 L 935.761719 421.023438 L 935.761719 423.074219 L 936.195312 423.074219 L 936.195312 421.023438 L 938.246094 421.023438 L 938.246094 420.589844 L 936.195312 420.589844 Z M 958.558594 418.539062 L 958.125 418.539062 L 958.125 420.589844 L 956.074219 420.589844 L 956.074219 421.023438 L 958.125 421.023438 L 958.125 423.074219 L 958.558594 423.074219 L 958.558594 421.023438 L 960.613281 421.023438 L 960.613281 420.589844 L 958.558594 420.589844 Z M 924.960938 407.300781 L 924.527344 407.300781 L 924.527344 409.355469 L 922.476562 409.355469 L 922.476562 409.789062 L 924.527344 409.789062 L 924.527344 411.839844 L 924.960938 411.839844 L 924.960938 409.789062 L 927.011719 409.789062 L 927.011719 409.355469 L 924.960938 409.355469 Z M 947.324219 407.300781 L 946.890625 407.300781 L 946.890625 409.355469 L 944.839844 409.355469 L 944.839844 409.789062 L 946.890625 409.789062 L 946.890625 411.839844 L 947.324219 411.839844 L 947.324219 409.789062 L 949.375 409.789062 L 949.375 409.355469 L 947.324219 409.355469 Z M 969.6875 407.300781 L 969.253906 407.300781 L 969.253906 409.355469 L 967.203125 409.355469 L 967.203125 409.789062 L 969.253906 409.789062 L 969.253906 411.839844 L 969.6875 411.839844 L 969.6875 409.789062 L 971.738281 409.789062 L 971.738281 409.355469 L 969.6875 409.355469 Z M 936.195312 396.175781 L 935.761719 396.175781 L 935.761719 398.226562 L 933.710938 398.226562 L 933.710938 398.660156 L 935.761719 398.660156 L 935.761719 400.710938 L 936.195312 400.710938 L 936.195312 398.660156 L 938.246094 398.660156 L 938.246094 398.226562 L 936.195312 398.226562 Z M 958.558594 396.175781 L 958.125 396.175781 L 958.125 398.226562 L 956.074219 398.226562 L 956.074219 398.660156 L 958.125 398.660156 L 958.125 400.710938 L 958.558594 400.710938 L 958.558594 398.660156 L 960.613281 398.660156 L 960.613281 398.226562 L 958.558594 398.226562 Z M 924.960938 384.9375 L 924.527344 384.9375 L 924.527344 386.992188 L 922.476562 386.992188 L 922.476562 387.425781 L 924.527344 387.425781 L 924.527344 389.476562 L 924.960938 389.476562 L 924.960938 387.425781 L 927.011719 387.425781 L 927.011719 386.992188 L 924.960938 386.992188 Z M 947.324219 384.9375 L 946.890625 384.9375 L 946.890625 386.992188 L 944.839844 386.992188 L 944.839844 387.425781 L 946.890625 387.425781 L 946.890625 389.476562 L 947.324219 389.476562 L 947.324219 387.425781 L 949.375 387.425781 L 949.375 386.992188 L 947.324219 386.992188 Z M 947.324219 384.9375 "/>
</g>
</g>
</svg>
