<?xml version="1.0" encoding="UTF-8"?>
<svg xmlns="http://www.w3.org/2000/svg" xmlns:xlink="http://www.w3.org/1999/xlink" width="1440pt" height="809.999993pt" viewBox="0 0 1440 809.999993" version="1.2">
<defs>
<clipPath id="clip1">
  <path d="M 474 185 L 966 185 L 966 625.984375 L 474 625.984375 Z M 474 185 "/>
</clipPath>
</defs>
<g id="surface1">
<path style=" stroke:none;fill-rule:nonzero;fill:rgb(99.609375%,99.609375%,99.609375%);fill-opacity:1;" d="M 843.289062 436.972656 C 842.308594 437.367188 841.324219 437.761719 840.4375 438.253906 C 841.027344 437.957031 841.71875 437.660156 842.308594 437.367188 C 842.503906 437.269531 842.699219 437.171875 842.898438 437.171875 C 842.996094 437.070312 843.09375 437.070312 843.289062 436.972656 Z M 897.960938 478.375 C 891.765625 465.984375 880.261719 457.230469 867.871094 455.460938 C 861.777344 454.578125 855.679688 455.460938 850.273438 458.117188 C 842.996094 461.65625 837.488281 468.050781 834.734375 476.113281 C 831.394531 485.949219 832.375 497.550781 837.390625 507.679688 C 843.585938 520.074219 855.089844 528.824219 867.480469 530.59375 C 868.953125 530.792969 870.429688 530.890625 872 530.890625 C 876.625 530.890625 881.046875 529.90625 885.078125 527.941406 C 892.355469 524.398438 897.863281 518.007812 900.613281 509.941406 C 904.054688 500.011719 903.074219 488.503906 897.960938 478.375 Z M 840.339844 438.253906 C 839.652344 438.546875 839.0625 438.941406 838.375 439.234375 L 859.414062 427.828125 C 860.007812 427.53125 860.496094 427.238281 861.085938 426.941406 C 861.1875 426.941406 861.285156 426.84375 861.382812 426.84375 C 861.972656 426.550781 862.660156 426.253906 863.25 425.960938 C 863.449219 425.859375 863.644531 425.761719 863.839844 425.761719 C 864.332031 425.566406 864.726562 425.371094 865.21875 425.269531 C 865.414062 425.171875 865.609375 425.074219 865.90625 425.074219 C 866.398438 424.878906 866.890625 424.78125 867.28125 424.582031 C 867.480469 424.484375 867.675781 424.484375 867.773438 424.386719 C 868.460938 424.1875 869.050781 423.992188 869.738281 423.796875 C 869.738281 423.796875 869.738281 423.796875 869.839844 423.796875 C 869.9375 423.796875 870.035156 423.796875 870.035156 423.699219 C 870.625 423.5 871.214844 423.402344 871.804688 423.304688 C 872 423.304688 872.199219 423.207031 872.394531 423.207031 C 872.984375 423.109375 873.476562 423.007812 874.066406 422.910156 C 874.261719 422.910156 874.363281 422.8125 874.558594 422.8125 C 875.246094 422.714844 875.933594 422.617188 876.625 422.515625 C 876.820312 422.515625 876.917969 422.515625 877.113281 422.515625 C 877.703125 422.417969 878.195312 422.417969 878.785156 422.417969 C 878.984375 422.417969 879.179688 422.417969 879.375 422.417969 C 879.964844 422.417969 880.554688 422.417969 881.144531 422.417969 C 881.246094 422.417969 881.34375 422.417969 881.441406 422.417969 C 882.128906 422.417969 882.816406 422.417969 883.507812 422.417969 C 883.703125 422.417969 883.898438 422.417969 884.097656 422.417969 C 884.585938 422.417969 885.175781 422.515625 885.667969 422.515625 C 885.867188 422.515625 886.0625 422.515625 886.257812 422.617188 C 886.949219 422.714844 887.636719 422.8125 888.421875 422.910156 C 889.011719 423.007812 889.699219 423.109375 890.289062 423.207031 C 888.519531 421.632812 886.75 420.355469 884.882812 419.273438 L 500.425781 197.019531 C 486.953125 189.25 476.039062 197.511719 476.039062 215.507812 L 476.039062 282.871094 C 476.039062 300.867188 486.953125 321.816406 500.523438 329.585938 L 819.789062 513.976562 C 805.828125 484.175781 814.875 450.542969 840.339844 438.253906 Z M 840.339844 438.253906 "/>
<path style=" stroke:none;fill-rule:nonzero;fill:rgb(88.62915%,37.249756%,86.268616%);fill-opacity:1;" d="M 908.1875 538.070312 C 908.480469 537.773438 908.875 537.378906 909.167969 537.085938 C 909.367188 536.886719 909.5625 536.691406 909.660156 536.496094 C 909.957031 536.199219 910.25 535.808594 910.449219 535.511719 C 910.644531 535.316406 910.839844 535.019531 911.039062 534.824219 C 911.332031 534.527344 911.527344 534.136719 911.824219 533.839844 C 912.019531 533.644531 912.21875 533.347656 912.316406 533.152344 C 912.511719 532.855469 912.808594 532.464844 913.003906 532.167969 C 913.199219 531.875 913.300781 531.675781 913.496094 531.382812 C 913.691406 531.085938 913.890625 530.691406 914.183594 530.398438 C 914.378906 530.101562 914.480469 529.90625 914.675781 529.613281 C 914.871094 529.21875 915.070312 528.921875 915.265625 528.53125 C 915.363281 528.234375 915.5625 528.039062 915.660156 527.742188 C 915.855469 527.347656 916.050781 526.957031 916.25 526.5625 C 916.347656 526.367188 916.445312 526.070312 916.640625 525.875 C 916.839844 525.382812 917.132812 524.890625 917.332031 524.398438 C 917.429688 524.203125 917.429688 524.105469 917.527344 523.90625 C 917.820312 523.21875 918.117188 522.628906 918.3125 521.941406 C 918.414062 521.742188 918.414062 521.644531 918.511719 521.449219 C 918.707031 520.957031 918.902344 520.464844 919.101562 519.972656 C 919.199219 519.679688 919.296875 519.480469 919.394531 519.1875 C 919.492188 518.792969 919.691406 518.300781 919.789062 517.910156 C 919.886719 517.613281 919.984375 517.320312 919.984375 517.023438 C 920.082031 516.628906 920.183594 516.238281 920.28125 515.746094 C 920.378906 515.449219 920.476562 515.15625 920.476562 514.859375 C 920.574219 514.46875 920.671875 514.074219 920.773438 513.582031 C 920.871094 513.285156 920.871094 512.992188 920.96875 512.695312 C 921.066406 512.304688 921.164062 511.910156 921.164062 511.417969 C 921.261719 511.125 921.261719 510.828125 921.363281 510.53125 C 921.460938 510.140625 921.460938 509.648438 921.558594 509.253906 C 921.558594 508.960938 921.65625 508.664062 921.65625 508.371094 C 921.753906 507.878906 921.753906 507.484375 921.855469 506.992188 C 921.855469 506.699219 921.953125 506.402344 921.953125 506.109375 C 921.953125 505.617188 922.050781 505.125 922.050781 504.632812 C 922.050781 504.335938 922.050781 504.140625 922.050781 503.945312 C 922.050781 503.15625 922.148438 502.46875 922.148438 501.683594 C 922.148438 500.894531 922.148438 500.207031 922.148438 499.421875 C 922.148438 499.125 922.148438 498.929688 922.148438 498.632812 C 922.148438 498.140625 922.148438 497.652344 922.050781 497.058594 C 922.050781 496.765625 922.050781 496.46875 921.953125 496.175781 C 921.953125 495.683594 921.855469 495.191406 921.855469 494.796875 C 921.855469 494.503906 921.753906 494.207031 921.753906 493.816406 C 921.753906 493.324219 921.65625 492.929688 921.558594 492.4375 C 921.558594 492.144531 921.460938 491.75 921.460938 491.453125 C 921.363281 490.964844 921.363281 490.570312 921.261719 490.078125 C 921.164062 489.78125 921.164062 489.390625 921.066406 489.09375 C 920.96875 488.601562 920.871094 488.210938 920.773438 487.71875 C 920.671875 487.421875 920.671875 487.03125 920.574219 486.734375 C 920.476562 486.242188 920.378906 485.847656 920.28125 485.359375 C 920.183594 485.0625 920.082031 484.769531 920.082031 484.375 C 919.984375 483.882812 919.789062 483.390625 919.691406 482.898438 C 919.59375 482.605469 919.492188 482.308594 919.492188 482.015625 C 919.296875 481.425781 919.101562 480.835938 919.003906 480.242188 C 918.902344 480.046875 918.902344 479.851562 918.804688 479.652344 C 918.511719 478.867188 918.3125 478.082031 918.019531 477.292969 C 918.019531 477.195312 917.921875 477.097656 917.921875 477 C 917.722656 476.410156 917.429688 475.71875 917.230469 475.128906 C 917.132812 474.933594 917.035156 474.636719 916.9375 474.441406 C 916.742188 473.949219 916.445312 473.359375 916.25 472.867188 C 916.152344 472.671875 916.050781 472.476562 915.953125 472.179688 C 915.660156 471.492188 915.265625 470.703125 914.96875 470.015625 C 914.675781 469.328125 914.28125 468.738281 913.988281 468.148438 C 913.988281 468.148438 913.988281 468.050781 913.890625 468.050781 C 913.199219 466.871094 912.511719 465.589844 911.824219 464.410156 C 911.824219 464.3125 911.726562 464.3125 911.726562 464.214844 C 911.039062 463.035156 910.25 461.953125 909.5625 460.871094 C 909.464844 460.773438 909.464844 460.773438 909.367188 460.675781 C 908.675781 459.691406 907.890625 458.707031 907.105469 457.722656 C 907.105469 457.722656 907.007812 457.625 907.007812 457.625 C 906.21875 456.640625 905.433594 455.660156 904.644531 454.773438 C 903.761719 453.789062 902.875 452.90625 901.992188 451.921875 C 901.992188 451.921875 901.992188 451.921875 901.894531 451.824219 C 901.007812 450.9375 900.125 450.054688 899.140625 449.265625 C 899.140625 449.265625 899.042969 449.167969 899.042969 449.167969 C 898.550781 448.675781 898.058594 448.28125 897.46875 447.792969 C 897.371094 447.691406 897.273438 447.691406 897.171875 447.59375 C 896.78125 447.203125 896.289062 446.90625 895.894531 446.511719 C 895.699219 446.316406 895.5 446.21875 895.304688 446.121094 C 895.011719 445.824219 894.617188 445.628906 894.320312 445.332031 C 894.125 445.136719 893.929688 445.039062 893.632812 444.839844 C 893.339844 444.644531 892.945312 444.347656 892.652344 444.152344 C 892.453125 444.054688 892.257812 443.859375 892.058594 443.757812 C 891.570312 443.464844 891.078125 443.070312 890.585938 442.777344 C 890.390625 442.675781 890.191406 442.578125 889.996094 442.382812 C 889.308594 441.988281 888.71875 441.597656 888.027344 441.203125 C 888.027344 441.203125 888.027344 441.203125 887.929688 441.203125 C 887.242188 440.808594 886.652344 440.515625 885.964844 440.121094 C 885.765625 440.023438 885.570312 439.925781 885.375 439.824219 C 884.882812 439.53125 884.292969 439.332031 883.800781 439.039062 C 883.605469 438.941406 883.40625 438.84375 883.210938 438.742188 C 882.816406 438.546875 882.324219 438.351562 881.835938 438.152344 C 881.636719 438.054688 881.539062 437.957031 881.34375 437.957031 C 880.753906 437.664062 880.164062 437.464844 879.472656 437.171875 C 879.375 437.070312 879.179688 437.070312 879.082031 437.070312 C 878.589844 436.875 878.097656 436.679688 877.605469 436.582031 C 877.410156 436.480469 877.214844 436.382812 876.917969 436.382812 C 876.523438 436.285156 876.132812 436.089844 875.738281 435.992188 C 875.542969 435.890625 875.246094 435.792969 875.050781 435.792969 C 874.65625 435.695312 874.261719 435.597656 873.871094 435.5 C 873.574219 435.398438 873.378906 435.398438 873.082031 435.300781 C 872.691406 435.203125 872.296875 435.105469 871.902344 435.007812 C 871.707031 434.910156 871.410156 434.910156 871.214844 434.808594 C 870.820312 434.710938 870.332031 434.613281 869.9375 434.515625 C 869.738281 434.515625 869.542969 434.417969 869.347656 434.417969 C 868.757812 434.320312 868.070312 434.21875 867.480469 434.121094 C 866.789062 434.023438 866.101562 433.925781 865.316406 433.828125 C 865.117188 433.828125 864.921875 433.828125 864.726562 433.726562 C 864.136719 433.726562 863.644531 433.628906 863.054688 433.628906 C 862.855469 433.628906 862.660156 433.628906 862.464844 433.628906 C 861.777344 433.628906 861.085938 433.628906 860.398438 433.628906 C 860.300781 433.628906 860.203125 433.628906 860.105469 433.628906 C 859.515625 433.628906 858.925781 433.628906 858.335938 433.628906 C 858.136719 433.628906 857.941406 433.628906 857.746094 433.628906 C 857.152344 433.628906 856.664062 433.726562 856.074219 433.726562 C 855.875 433.726562 855.777344 433.726562 855.582031 433.726562 C 854.894531 433.828125 854.203125 433.925781 853.515625 434.023438 C 853.320312 434.023438 853.222656 434.121094 853.023438 434.121094 C 852.433594 434.21875 851.941406 434.320312 851.351562 434.417969 C 851.15625 434.417969 850.960938 434.515625 850.761719 434.515625 C 850.171875 434.613281 849.582031 434.808594 848.992188 434.910156 C 848.894531 434.910156 848.796875 434.910156 848.699219 435.007812 C 848.011719 435.203125 847.417969 435.398438 846.730469 435.597656 C 846.535156 435.695312 846.339844 435.695312 846.238281 435.792969 C 845.75 435.992188 845.257812 436.089844 844.863281 436.285156 C 844.667969 436.382812 844.46875 436.480469 844.175781 436.480469 C 843.683594 436.679688 843.289062 436.875 842.796875 436.972656 C 842.601562 437.070312 842.40625 437.171875 842.207031 437.171875 C 841.617188 437.464844 840.929688 437.761719 840.339844 438.054688 C 839.652344 438.351562 839.0625 438.742188 838.375 439.039062 L 859.414062 427.632812 C 860.003906 427.335938 860.496094 427.042969 861.085938 426.746094 C 861.1875 426.746094 861.285156 426.648438 861.382812 426.648438 C 861.972656 426.351562 862.660156 426.058594 863.25 425.761719 C 863.445312 425.664062 863.644531 425.566406 863.839844 425.566406 C 864.332031 425.371094 864.726562 425.171875 865.21875 425.074219 C 865.414062 424.976562 865.609375 424.878906 865.90625 424.878906 C 866.398438 424.679688 866.886719 424.582031 867.28125 424.386719 C 867.480469 424.289062 867.675781 424.289062 867.773438 424.1875 C 868.460938 423.992188 869.050781 423.796875 869.738281 423.597656 C 869.738281 423.597656 869.738281 423.597656 869.839844 423.597656 C 869.9375 423.597656 870.035156 423.597656 870.035156 423.5 C 870.625 423.304688 871.214844 423.207031 871.804688 423.109375 C 872 423.109375 872.199219 423.007812 872.394531 423.007812 C 872.984375 422.910156 873.476562 422.8125 874.066406 422.714844 C 874.261719 422.714844 874.363281 422.617188 874.558594 422.617188 C 875.246094 422.519531 875.933594 422.417969 876.621094 422.320312 C 876.820312 422.320312 876.917969 422.320312 877.113281 422.320312 C 877.703125 422.222656 878.195312 422.222656 878.785156 422.222656 C 878.984375 422.222656 879.179688 422.222656 879.375 422.222656 C 879.964844 422.222656 880.554688 422.222656 881.144531 422.222656 C 881.246094 422.222656 881.34375 422.222656 881.441406 422.222656 C 882.128906 422.222656 882.816406 422.222656 883.507812 422.222656 C 883.703125 422.222656 883.898438 422.222656 884.097656 422.222656 C 884.585938 422.222656 885.175781 422.320312 885.667969 422.320312 C 885.867188 422.320312 886.0625 422.320312 886.257812 422.417969 C 886.949219 422.519531 887.636719 422.617188 888.421875 422.714844 C 889.011719 422.8125 889.699219 422.910156 890.289062 423.007812 C 890.488281 423.007812 890.683594 423.109375 890.878906 423.109375 C 891.273438 423.207031 891.765625 423.304688 892.160156 423.402344 C 892.355469 423.5 892.648438 423.5 892.847656 423.597656 C 893.242188 423.699219 893.632812 423.796875 894.027344 423.894531 C 894.320312 423.992188 894.519531 423.992188 894.8125 424.089844 C 895.207031 424.1875 895.601562 424.289062 895.992188 424.386719 C 896.191406 424.484375 896.484375 424.484375 896.683594 424.582031 C 897.074219 424.679688 897.46875 424.878906 897.863281 424.976562 C 898.058594 425.074219 898.351562 425.074219 898.550781 425.171875 C 899.042969 425.371094 899.535156 425.566406 900.023438 425.761719 C 900.125 425.761719 900.320312 425.859375 900.417969 425.859375 C 901.007812 426.058594 901.695312 426.351562 902.285156 426.648438 C 902.484375 426.746094 902.582031 426.746094 902.777344 426.84375 C 903.269531 427.042969 903.664062 427.238281 904.15625 427.433594 C 904.253906 427.433594 904.253906 427.53125 904.351562 427.53125 C 904.449219 427.632812 904.546875 427.632812 904.746094 427.730469 C 905.234375 428.023438 905.828125 428.222656 906.316406 428.515625 C 906.515625 428.613281 906.710938 428.714844 906.90625 428.8125 C 907.597656 429.105469 908.1875 429.5 908.875 429.894531 C 908.875 429.894531 908.875 429.894531 908.972656 429.894531 C 909.660156 430.285156 910.25 430.679688 910.9375 431.074219 C 911.136719 431.171875 911.332031 431.269531 911.527344 431.464844 C 912.019531 431.761719 912.511719 432.15625 913.003906 432.449219 C 913.101562 432.546875 913.199219 432.648438 913.398438 432.648438 C 913.496094 432.648438 913.496094 432.746094 913.59375 432.84375 C 913.890625 433.039062 914.28125 433.335938 914.578125 433.53125 C 914.773438 433.730469 914.96875 433.828125 915.265625 434.023438 C 915.660156 434.320312 915.953125 434.515625 916.347656 434.808594 C 916.542969 434.910156 916.742188 435.105469 916.9375 435.203125 C 917.429688 435.597656 917.820312 435.890625 918.214844 436.285156 C 918.3125 436.382812 918.414062 436.382812 918.414062 436.480469 C 918.902344 436.875 919.394531 437.367188 919.984375 437.859375 C 919.984375 437.859375 920.082031 437.957031 920.082031 437.957031 C 920.96875 438.742188 921.953125 439.628906 922.835938 440.515625 C 922.835938 440.515625 922.835938 440.515625 922.933594 440.613281 C 923.820312 441.496094 924.703125 442.480469 925.589844 443.464844 C 926.375 444.449219 927.261719 445.332031 928.046875 446.316406 C 928.046875 446.316406 928.148438 446.414062 928.148438 446.414062 C 928.933594 447.398438 929.621094 448.382812 930.40625 449.363281 C 930.40625 449.464844 930.507812 449.464844 930.507812 449.5625 C 930.507812 449.5625 930.507812 449.5625 930.507812 449.660156 C 931.292969 450.742188 931.980469 451.824219 932.667969 453.003906 C 932.667969 453.101562 932.769531 453.101562 932.769531 453.199219 C 933.457031 454.378906 934.144531 455.558594 934.832031 456.839844 C 934.832031 456.839844 934.832031 456.839844 934.832031 456.9375 C 935.128906 457.527344 935.519531 458.214844 935.816406 458.804688 C 936.210938 459.492188 936.503906 460.28125 936.800781 460.96875 C 936.898438 461.164062 936.996094 461.363281 937.09375 461.65625 C 937.289062 462.148438 937.585938 462.738281 937.78125 463.230469 C 937.882812 463.429688 937.980469 463.722656 938.078125 463.917969 C 938.371094 464.507812 938.570312 465.199219 938.765625 465.789062 C 938.765625 465.886719 938.863281 465.984375 938.863281 466.082031 C 938.863281 466.082031 938.863281 466.082031 938.863281 466.179688 C 939.160156 466.96875 939.355469 467.65625 939.652344 468.441406 C 939.75 468.640625 939.75 468.835938 939.847656 469.035156 C 940.042969 469.625 940.242188 470.214844 940.339844 470.804688 C 940.4375 471.097656 940.535156 471.394531 940.535156 471.6875 C 940.632812 472.179688 940.832031 472.671875 940.929688 473.164062 C 941.027344 473.457031 941.125 473.753906 941.125 474.148438 C 941.222656 474.640625 941.324219 475.03125 941.421875 475.523438 C 941.519531 475.820312 941.519531 476.210938 941.617188 476.507812 C 941.714844 477 941.8125 477.390625 941.914062 477.882812 C 942.011719 478.179688 942.011719 478.574219 942.109375 478.867188 C 942.207031 479.359375 942.207031 479.753906 942.304688 480.242188 C 942.304688 480.539062 942.402344 480.933594 942.402344 481.226562 C 942.503906 481.71875 942.503906 482.113281 942.601562 482.605469 C 942.601562 482.898438 942.699219 483.292969 942.699219 483.585938 C 942.699219 484.078125 942.796875 484.570312 942.796875 484.964844 C 942.796875 485.257812 942.796875 485.554688 942.894531 485.847656 C 942.894531 486.339844 942.894531 486.832031 942.992188 487.421875 C 942.992188 487.71875 942.992188 487.914062 942.992188 488.210938 C 942.992188 488.996094 942.992188 489.683594 942.992188 490.472656 C 942.992188 491.257812 942.992188 491.945312 942.894531 492.734375 C 942.894531 493.027344 942.894531 493.226562 942.894531 493.421875 C 942.894531 493.914062 942.796875 494.40625 942.796875 494.898438 C 942.796875 495.191406 942.699219 495.488281 942.699219 495.78125 C 942.699219 496.273438 942.601562 496.667969 942.503906 497.160156 C 942.503906 497.453125 942.402344 497.75 942.402344 498.042969 C 942.304688 498.4375 942.304688 498.929688 942.207031 499.324219 C 942.109375 499.617188 942.109375 499.914062 942.011719 500.207031 C 941.914062 500.601562 941.8125 500.992188 941.8125 501.484375 C 941.714844 501.78125 941.714844 502.074219 941.617188 502.371094 C 941.519531 502.765625 941.421875 503.15625 941.324219 503.648438 C 941.222656 503.945312 941.222656 504.238281 941.125 504.535156 C 941.027344 504.925781 940.929688 505.320312 940.832031 505.8125 C 940.730469 506.109375 940.632812 506.402344 940.632812 506.699219 C 940.535156 507.089844 940.339844 507.582031 940.242188 507.976562 C 940.140625 508.269531 940.042969 508.46875 939.945312 508.761719 C 939.75 509.253906 939.550781 509.746094 939.355469 510.238281 C 939.257812 510.433594 939.257812 510.53125 939.160156 510.730469 C 938.863281 511.417969 938.667969 512.007812 938.371094 512.695312 C 938.273438 512.894531 938.175781 512.992188 938.175781 513.1875 C 937.980469 513.679688 937.78125 514.171875 937.488281 514.664062 C 937.390625 514.859375 937.289062 515.15625 937.09375 515.351562 C 936.898438 515.746094 936.699219 516.136719 936.503906 516.53125 C 936.40625 516.828125 936.210938 517.023438 936.109375 517.320312 C 935.914062 517.710938 935.71875 518.007812 935.519531 518.402344 C 935.324219 518.695312 935.226562 518.890625 935.03125 519.1875 C 934.832031 519.582031 934.636719 519.875 934.339844 520.171875 C 934.144531 520.464844 934.046875 520.664062 933.847656 520.957031 C 933.652344 521.253906 933.359375 521.644531 933.160156 521.941406 C 932.964844 522.136719 932.769531 522.433594 932.667969 522.628906 C 932.472656 522.925781 932.179688 523.316406 931.882812 523.613281 C 931.6875 523.808594 931.488281 524.105469 931.292969 524.300781 C 930.996094 524.597656 930.703125 524.988281 930.507812 525.285156 C 930.308594 525.480469 930.113281 525.679688 930.015625 525.875 C 929.71875 526.269531 929.425781 526.5625 929.03125 526.859375 C 928.835938 527.054688 928.738281 527.152344 928.539062 527.347656 C 928.046875 527.839844 927.554688 528.332031 927.066406 528.824219 L 963.445312 601.695312 L 942.402344 613.101562 L 906.023438 540.230469 C 906.515625 539.742188 907.007812 539.25 907.496094 538.757812 C 907.890625 538.363281 907.988281 538.265625 908.1875 538.070312 Z M 908.1875 538.070312 "/>
<path style=" stroke:none;fill-rule:nonzero;fill:rgb(0%,76.858521%,79.998779%);fill-opacity:1;" d="M 867.578125 434.21875 C 886.359375 436.875 904.746094 449.953125 914.871094 470.214844 C 927.554688 495.585938 923.328125 524.105469 906.316406 540.035156 L 942.699219 612.90625 L 920.378906 623.722656 L 884.292969 551.34375 C 878.984375 552.425781 873.476562 552.523438 867.96875 551.738281 C 849.191406 549.082031 830.800781 536.003906 820.675781 515.746094 C 805.53125 485.554688 814.480469 450.839844 840.4375 438.253906 C 848.894531 434.121094 858.335938 432.84375 867.578125 434.21875 Z M 838.964844 506.894531 C 845.160156 519.285156 856.269531 527.25 867.773438 528.824219 C 873.378906 529.613281 879.082031 528.824219 884.292969 526.367188 C 900.125 518.695312 905.53125 497.550781 896.386719 479.164062 C 890.191406 466.769531 879.082031 458.804688 867.578125 457.230469 C 861.972656 456.445312 856.269531 457.230469 851.058594 459.691406 C 835.226562 467.261719 829.820312 488.40625 838.964844 506.894531 "/>
<g clip-path="url(#clip1)" clip-rule="nonzero">
<path style=" stroke:none;fill-rule:nonzero;fill:rgb(30.589294%,4.309082%,82.749939%);fill-opacity:1;" d="M 965.902344 602.1875 L 929.328125 528.921875 C 929.523438 528.726562 929.71875 528.53125 929.917969 528.332031 L 930.40625 527.839844 C 930.703125 527.449219 931.097656 527.152344 931.390625 526.757812 L 931.980469 526.070312 C 932.277344 525.777344 932.472656 525.480469 932.769531 525.1875 L 933.359375 524.496094 C 933.652344 524.203125 933.847656 523.808594 934.144531 523.515625 C 934.339844 523.21875 934.539062 523.023438 934.734375 522.726562 C 934.929688 522.433594 935.226562 522.039062 935.421875 521.742188 L 935.914062 520.957031 C 936.109375 520.5625 936.40625 520.269531 936.601562 519.777344 L 936.996094 519.089844 C 937.191406 518.695312 937.390625 518.300781 937.683594 517.808594 L 938.078125 517.121094 C 938.273438 516.730469 938.472656 516.335938 938.667969 515.84375 L 939.0625 515.15625 C 939.257812 514.664062 939.550781 514.171875 939.75 513.679688 L 939.945312 513.1875 C 940.242188 512.5 940.535156 511.8125 940.730469 511.125 L 940.929688 510.632812 C 941.125 510.140625 941.324219 509.648438 941.519531 509.058594 L 941.8125 508.269531 C 941.914062 507.78125 942.109375 507.386719 942.207031 506.894531 L 942.503906 506.007812 C 942.601562 505.617188 942.699219 505.125 942.894531 504.730469 L 943.09375 503.847656 C 943.191406 503.453125 943.289062 502.960938 943.386719 502.566406 L 943.582031 501.585938 C 943.683594 501.191406 943.78125 500.699219 943.78125 500.304688 L 943.976562 499.320312 C 944.074219 498.929688 944.074219 498.4375 944.175781 498.042969 L 944.273438 497.058594 C 944.371094 496.570312 944.371094 496.175781 944.46875 495.683594 L 944.46875 495.488281 L 944.566406 494.796875 C 944.566406 494.308594 944.664062 493.816406 944.664062 493.226562 L 944.765625 492.4375 C 944.765625 491.652344 944.863281 490.863281 944.863281 490.078125 C 944.863281 489.292969 944.863281 488.503906 944.863281 487.71875 L 944.863281 486.929688 C 944.863281 486.441406 944.863281 485.847656 944.765625 485.359375 L 944.664062 484.472656 C 944.664062 483.980469 944.566406 483.488281 944.566406 482.996094 L 944.46875 482.015625 C 944.46875 481.523438 944.371094 481.128906 944.273438 480.636719 L 944.175781 479.652344 C 944.074219 479.164062 944.074219 478.769531 943.976562 478.277344 L 943.78125 477.292969 C 943.683594 476.800781 943.582031 476.410156 943.484375 475.820312 L 943.289062 474.835938 C 943.191406 474.34375 943.09375 473.851562 942.992188 473.457031 L 942.796875 472.476562 C 942.699219 471.984375 942.503906 471.492188 942.402344 471 L 942.207031 470.113281 C 942.011719 469.523438 941.8125 468.933594 941.617188 468.34375 L 941.421875 467.753906 C 941.125 466.96875 940.929688 466.179688 940.632812 465.394531 L 940.535156 465.097656 C 940.339844 464.410156 940.042969 463.820312 939.75 463.132812 L 939.453125 462.445312 C 939.257812 461.953125 938.960938 461.363281 938.765625 460.871094 L 938.472656 460.183594 C 938.175781 459.394531 937.78125 458.707031 937.390625 458.019531 C 937.09375 457.332031 936.699219 456.742188 936.40625 456.148438 L 936.308594 455.953125 C 935.621094 454.675781 934.929688 453.496094 934.242188 452.316406 L 934.144531 452.117188 C 933.457031 450.9375 932.667969 449.757812 931.882812 448.578125 L 931.785156 448.382812 C 931.097656 447.300781 930.308594 446.316406 929.425781 445.234375 C 928.636719 444.25 927.753906 443.265625 926.964844 442.285156 C 926.082031 441.300781 925.195312 440.316406 924.214844 439.332031 C 923.328125 438.449219 922.34375 437.5625 921.460938 436.679688 L 921.261719 436.582031 C 921.066406 436.382812 920.773438 436.1875 920.574219 435.992188 C 915.953125 424.976562 908.578125 415.238281 900.222656 410.421875 L 515.46875 188.367188 C 509.175781 184.726562 502.980469 184.234375 497.964844 186.988281 L 485.675781 193.285156 C 484.988281 193.578125 484.296875 193.875 483.609375 194.265625 C 477.710938 197.707031 474.269531 205.378906 474.269531 215.507812 L 474.269531 282.871094 C 474.269531 301.460938 485.675781 323.09375 499.636719 331.160156 L 818.414062 515.253906 C 818.609375 515.648438 818.808594 516.136719 819.003906 516.53125 C 828.933594 536.496094 847.617188 550.65625 867.578125 553.507812 C 872.886719 554.296875 878.097656 554.195312 883.210938 553.3125 L 919.492188 625.984375 L 941.8125 615.167969 L 941.8125 615.265625 L 943.386719 614.480469 L 944.960938 613.691406 L 944.960938 613.59375 Z M 939.652344 474.441406 C 939.75 474.835938 939.847656 475.328125 939.945312 475.820312 L 940.140625 476.800781 C 940.242188 477.195312 940.339844 477.6875 940.4375 478.082031 L 940.632812 479.0625 C 940.730469 479.457031 940.730469 479.949219 940.832031 480.34375 L 940.929688 481.324219 C 941.027344 481.71875 941.027344 482.210938 941.125 482.703125 L 941.125 482.800781 L 923.917969 499.914062 C 923.917969 499.714844 923.917969 499.519531 923.917969 499.320312 L 923.917969 498.535156 C 923.917969 498.042969 923.917969 497.453125 923.820312 496.960938 L 923.722656 496.078125 C 923.722656 495.585938 923.625 495.09375 923.625 494.601562 L 923.523438 493.617188 C 923.425781 493.125 923.425781 492.734375 923.328125 492.242188 L 923.230469 491.257812 C 923.230469 491.160156 923.230469 491.0625 923.132812 490.964844 Z M 923.132812 510.828125 C 923.230469 510.433594 923.230469 509.941406 923.328125 509.453125 L 923.425781 508.566406 C 923.425781 508.371094 923.425781 508.171875 923.523438 507.976562 C 923.523438 507.679688 923.625 507.484375 923.625 507.191406 L 923.722656 506.304688 C 923.722656 505.8125 923.820312 505.320312 923.820312 504.730469 L 923.917969 503.945312 C 923.917969 503.15625 924.015625 502.371094 924.015625 501.585938 C 924.015625 501.191406 924.015625 500.894531 924.015625 500.503906 L 941.222656 483.292969 L 941.222656 483.390625 C 941.222656 483.882812 941.324219 484.277344 941.324219 484.769531 L 941.421875 485.652344 C 941.421875 486.144531 941.421875 486.636719 941.519531 487.128906 L 941.519531 487.816406 C 941.519531 488.601562 941.519531 489.292969 941.519531 489.980469 C 941.519531 490.667969 941.519531 491.453125 941.421875 492.144531 L 941.421875 492.734375 L 923.132812 511.023438 Z M 920.671875 520.464844 L 920.96875 519.679688 C 921.066406 519.1875 921.261719 518.792969 921.363281 518.300781 L 921.65625 517.417969 C 921.65625 517.320312 921.65625 517.320312 921.65625 517.21875 C 921.753906 517.023438 921.753906 516.828125 921.855469 516.628906 C 921.953125 516.433594 921.953125 516.238281 922.050781 516.039062 L 922.246094 515.15625 C 922.34375 514.761719 922.445312 514.269531 922.542969 513.875 L 922.738281 512.894531 C 922.738281 512.796875 922.835938 512.597656 922.835938 512.5 C 922.835938 512.5 922.835938 512.402344 922.835938 512.402344 C 922.835938 512.304688 922.933594 512.105469 922.933594 512.007812 L 941.324219 493.617188 C 941.324219 493.914062 941.324219 494.207031 941.222656 494.40625 L 941.125 495.289062 C 941.125 495.683594 941.027344 496.175781 941.027344 496.570312 L 940.929688 497.453125 C 940.832031 497.847656 940.832031 498.339844 940.730469 498.730469 L 940.535156 499.617188 C 940.4375 500.011719 940.339844 500.402344 940.339844 500.796875 L 940.140625 501.683594 C 940.042969 502.074219 939.945312 502.46875 939.847656 502.863281 L 939.652344 503.746094 C 939.550781 504.140625 939.453125 504.535156 939.355469 504.925781 L 939.257812 505.417969 L 918.214844 526.464844 C 918.3125 526.367188 918.3125 526.167969 918.414062 526.070312 C 918.511719 525.777344 918.707031 525.578125 918.804688 525.285156 C 918.804688 525.1875 918.902344 525.1875 918.902344 525.085938 L 919.101562 524.597656 C 919.394531 523.90625 919.691406 523.21875 919.984375 522.53125 L 920.183594 522.039062 C 920.183594 521.941406 920.28125 521.84375 920.28125 521.84375 C 920.378906 521.644531 920.476562 521.351562 920.574219 521.152344 C 920.476562 520.859375 920.574219 520.664062 920.671875 520.464844 Z M 938.371094 507.878906 C 938.175781 508.371094 937.980469 508.859375 937.878906 509.351562 L 937.683594 509.84375 C 937.390625 510.53125 937.191406 511.125 936.898438 511.714844 L 936.699219 512.203125 C 936.503906 512.695312 936.308594 513.1875 936.011719 513.582031 L 935.621094 514.367188 C 935.421875 514.761719 935.226562 515.058594 935.03125 515.449219 L 934.636719 516.136719 C 934.4375 516.53125 934.242188 516.828125 934.046875 517.21875 L 933.554688 517.910156 C 933.359375 518.203125 933.160156 518.597656 932.964844 518.890625 L 932.472656 519.582031 C 932.277344 519.875 931.980469 520.269531 931.785156 520.5625 C 931.585938 520.761719 931.488281 521.054688 931.292969 521.253906 C 931.097656 521.546875 930.800781 521.84375 930.605469 522.136719 L 930.113281 522.824219 C 929.917969 523.121094 929.621094 523.414062 929.328125 523.710938 L 928.835938 524.300781 C 928.539062 524.597656 928.246094 524.988281 927.949219 525.285156 L 927.457031 525.777344 C 927.066406 526.167969 926.574219 526.660156 926.179688 527.054688 L 913.890625 533.742188 C 913.890625 533.742188 913.890625 533.644531 913.988281 533.644531 C 914.085938 533.445312 914.28125 533.25 914.378906 533.054688 C 914.378906 532.953125 914.480469 532.953125 914.480469 532.855469 C 914.675781 532.5625 914.871094 532.363281 914.96875 532.070312 C 915.167969 531.675781 915.460938 531.382812 915.660156 530.890625 L 916.050781 530.203125 C 916.152344 530.101562 916.25 529.90625 916.347656 529.808594 C 916.445312 529.613281 916.640625 529.316406 916.742188 529.121094 C 916.742188 529.121094 916.742188 529.019531 916.839844 529.019531 L 917.230469 528.332031 C 917.332031 528.136719 917.429688 527.941406 917.527344 527.839844 L 938.863281 506.5 C 938.765625 506.699219 938.765625 506.894531 938.667969 507.089844 Z M 937.289062 466.769531 C 937.585938 467.460938 937.78125 468.246094 938.078125 468.933594 L 938.273438 469.523438 C 938.472656 470.113281 938.667969 470.703125 938.765625 471.195312 L 938.960938 472.082031 C 939.0625 472.574219 939.257812 473.066406 939.355469 473.558594 L 939.453125 473.949219 L 923.035156 490.375 C 923.035156 490.273438 923.035156 490.078125 922.933594 489.980469 L 922.738281 488.996094 C 922.640625 488.503906 922.542969 488.109375 922.445312 487.621094 L 922.246094 486.636719 C 922.148438 486.144531 922.050781 485.652344 921.855469 485.0625 L 921.65625 484.277344 C 921.558594 483.785156 921.363281 483.292969 921.261719 482.800781 L 921.164062 482.503906 L 937.09375 466.574219 L 937.191406 466.769531 Z M 936.210938 463.820312 L 936.503906 464.507812 C 936.699219 464.902344 936.898438 465.394531 936.996094 465.789062 L 930.40625 472.375 L 921.164062 481.621094 C 920.96875 481.03125 920.773438 480.441406 920.574219 479.851562 L 920.378906 479.261719 C 920.082031 478.472656 919.886719 477.6875 919.59375 476.898438 L 919.492188 476.605469 C 919.296875 475.917969 919.003906 475.328125 918.707031 474.636719 L 918.609375 474.441406 L 933.949219 459.101562 C 934.046875 459.296875 934.144531 459.394531 934.242188 459.59375 C 934.636719 460.28125 934.929688 460.96875 935.226562 461.65625 L 935.519531 462.246094 C 935.71875 462.835938 936.011719 463.328125 936.210938 463.820312 Z M 931.195312 454.085938 C 931.882812 455.167969 932.570312 456.347656 933.257812 457.625 L 933.257812 457.722656 C 933.457031 458.019531 933.554688 458.3125 933.75 458.609375 L 919.886719 472.476562 L 918.414062 473.949219 C 918.214844 473.457031 917.921875 472.867188 917.722656 472.375 L 917.429688 471.6875 C 917.132812 470.902344 916.742188 470.214844 916.347656 469.523438 C 916.050781 468.835938 915.660156 468.246094 915.265625 467.460938 L 930.113281 452.609375 C 930.40625 453.101562 930.800781 453.59375 931.097656 454.085938 Z M 928.933594 450.644531 C 929.226562 451.035156 929.523438 451.527344 929.816406 452.019531 L 914.96875 466.871094 C 914.871094 466.769531 914.871094 466.671875 914.773438 466.574219 C 914.480469 465.984375 914.085938 465.394531 913.789062 464.804688 C 913.59375 464.410156 913.398438 464.019531 913.101562 463.625 L 913.003906 463.425781 C 912.808594 463.132812 912.609375 462.835938 912.511719 462.640625 C 912.21875 462.246094 912.019531 461.855469 911.726562 461.460938 C 911.527344 461.265625 911.429688 460.96875 911.234375 460.773438 L 920.183594 451.824219 L 925.589844 446.414062 C 925.886719 446.808594 926.179688 447.199219 926.476562 447.59375 C 927.261719 448.578125 927.949219 449.464844 928.636719 450.542969 Z M 924.214844 444.644531 C 924.605469 445.136719 925 445.53125 925.394531 446.019531 L 911.039062 460.378906 C 910.9375 460.28125 910.9375 460.183594 910.839844 460.082031 L 910.644531 459.886719 C 909.957031 458.804688 909.167969 457.820312 908.285156 456.742188 C 907.792969 456.148438 907.300781 455.558594 906.808594 454.96875 L 909.859375 451.921875 L 920.773438 441.003906 C 921.066406 441.300781 921.363281 441.597656 921.65625 441.890625 C 922.542969 442.777344 923.328125 443.660156 924.214844 444.644531 Z M 917.332031 437.859375 C 917.820312 438.253906 918.3125 438.742188 918.902344 439.234375 C 919.394531 439.628906 919.789062 440.121094 920.28125 440.515625 L 906.417969 454.378906 C 906.21875 454.085938 906.023438 453.886719 905.828125 453.59375 C 904.941406 452.609375 904.054688 451.625 903.074219 450.644531 C 902.679688 450.25 902.1875 449.757812 901.695312 449.363281 L 915.070312 435.992188 L 915.757812 436.480469 C 916.152344 436.777344 916.640625 437.171875 917.035156 437.5625 Z M 912.121094 433.925781 L 912.414062 434.121094 L 912.609375 434.21875 L 914.675781 435.695312 L 901.304688 449.070312 C 900.910156 448.773438 900.613281 448.382812 900.222656 448.085938 L 900.125 447.988281 C 899.632812 447.496094 899.042969 447.101562 898.550781 446.609375 L 898.253906 446.414062 C 897.761719 446.019531 897.371094 445.628906 896.878906 445.332031 L 896.289062 444.839844 C 896.191406 444.742188 896.09375 444.742188 895.992188 444.644531 L 908.777344 431.859375 C 909.167969 432.15625 909.660156 432.351562 910.054688 432.648438 L 910.644531 433.039062 C 911.136719 433.335938 911.628906 433.628906 912.121094 433.925781 Z M 903.957031 429.203125 L 904.15625 429.304688 C 904.644531 429.5 905.136719 429.792969 905.628906 430.089844 L 906.21875 430.386719 C 906.808594 430.679688 907.496094 431.074219 908.1875 431.464844 C 908.285156 431.464844 908.285156 431.566406 908.382812 431.566406 L 895.601562 444.347656 C 895.5 444.25 895.402344 444.152344 895.207031 444.054688 L 894.519531 443.5625 C 894.222656 443.367188 893.832031 443.070312 893.535156 442.875 L 892.945312 442.480469 C 892.453125 442.1875 891.960938 441.792969 891.46875 441.496094 L 890.878906 441.105469 C 890.488281 440.90625 890.191406 440.613281 889.800781 440.414062 L 901.894531 428.320312 L 902.285156 428.515625 C 902.679688 428.714844 903.171875 428.910156 903.664062 429.203125 Z M 896.386719 426.351562 C 896.78125 426.449219 897.171875 426.648438 897.761719 426.746094 L 898.253906 426.941406 C 898.746094 427.140625 899.238281 427.238281 899.730469 427.433594 L 900.125 427.53125 C 900.613281 427.730469 901.007812 427.925781 901.5 428.121094 L 889.503906 440.121094 C 889.308594 440.023438 889.207031 439.925781 889.011719 439.824219 C 888.324219 439.433594 887.734375 439.039062 887.046875 438.742188 L 886.457031 438.449219 C 885.964844 438.152344 885.375 437.859375 884.882812 437.664062 L 884.292969 437.367188 C 883.898438 437.171875 883.507812 437.070312 883.113281 436.875 L 894.320312 425.664062 L 894.714844 425.761719 C 895.109375 425.859375 895.5 425.960938 895.894531 426.058594 Z M 890.09375 424.78125 L 890.683594 424.878906 C 891.078125 424.976562 891.46875 425.074219 891.863281 425.074219 L 892.550781 425.269531 C 892.847656 425.371094 893.140625 425.371094 893.4375 425.46875 L 882.324219 436.582031 L 882.128906 436.480469 C 881.539062 436.1875 880.851562 435.992188 880.261719 435.695312 L 879.867188 435.5 C 879.375 435.300781 878.882812 435.105469 878.394531 434.910156 L 877.703125 434.710938 C 877.3125 434.613281 876.820312 434.417969 876.425781 434.320312 L 875.640625 434.121094 C 875.542969 434.121094 875.441406 434.023438 875.34375 434.023438 C 875.34375 434.023438 875.246094 434.023438 875.246094 434.023438 L 885.175781 424.089844 C 885.375 424.089844 885.472656 424.089844 885.667969 424.089844 L 886.257812 424.1875 C 886.949219 424.289062 887.636719 424.289062 888.324219 424.386719 C 888.914062 424.582031 889.503906 424.679688 890.09375 424.78125 Z M 855.382812 432.253906 C 855.1875 432.253906 855.089844 432.253906 854.894531 432.351562 L 855.972656 431.761719 Z M 857.644531 430.777344 L 860.300781 429.304688 C 860.792969 429.007812 861.382812 428.714844 861.875 428.515625 L 862.167969 428.417969 C 862.757812 428.121094 863.347656 427.828125 863.9375 427.632812 L 864.527344 427.433594 C 864.921875 427.238281 865.414062 427.042969 865.808594 426.941406 L 866.398438 426.746094 C 866.890625 426.550781 867.28125 426.449219 867.773438 426.253906 L 868.265625 426.058594 C 868.855469 425.859375 869.542969 425.664062 870.132812 425.46875 L 870.332031 425.46875 C 870.921875 425.371094 871.511719 425.171875 872.199219 425.074219 L 872.691406 424.976562 C 872.886719 424.976562 873.183594 424.878906 873.378906 424.878906 L 865.90625 432.351562 C 865.808594 432.351562 865.707031 432.351562 865.609375 432.351562 L 865.019531 432.253906 C 864.824219 432.253906 864.726562 432.253906 864.527344 432.253906 C 864.234375 432.253906 863.9375 432.253906 863.742188 432.15625 C 863.644531 432.15625 863.449219 432.15625 863.347656 432.15625 L 862.757812 432.15625 C 862.070312 432.15625 861.285156 432.15625 860.597656 432.15625 L 860.203125 432.15625 C 859.613281 432.15625 858.925781 432.15625 858.335938 432.253906 L 857.644531 432.253906 C 857.449219 432.253906 857.253906 432.253906 857.054688 432.253906 C 856.859375 432.253906 856.761719 432.253906 856.5625 432.253906 C 856.464844 432.253906 856.367188 432.253906 856.269531 432.253906 Z M 867.96875 430.976562 L 874.363281 424.582031 L 874.851562 424.484375 C 875.542969 424.386719 876.230469 424.289062 876.917969 424.1875 L 877.3125 424.1875 C 877.804688 424.089844 878.394531 424.089844 878.984375 424.089844 L 879.574219 424.089844 C 880.164062 424.089844 880.753906 424.089844 881.34375 424.089844 L 881.636719 424.089844 C 882.324219 424.089844 883.015625 424.089844 883.703125 424.089844 L 884.195312 424.089844 C 884.292969 424.089844 884.488281 424.089844 884.585938 424.089844 L 874.753906 433.925781 C 874.65625 433.925781 874.558594 433.925781 874.558594 433.828125 L 873.773438 433.628906 C 873.378906 433.53125 872.984375 433.433594 872.492188 433.335938 L 871.804688 433.136719 C 871.804688 433.136719 871.707031 433.136719 871.707031 433.136719 C 871.609375 433.136719 871.410156 433.039062 871.3125 433.039062 C 871.019531 432.941406 870.722656 432.941406 870.429688 432.84375 L 869.839844 432.746094 C 869.148438 432.648438 868.558594 432.546875 867.871094 432.449219 C 867.480469 432.351562 867.085938 432.351562 866.691406 432.351562 Z M 501.308594 328.109375 C 488.328125 320.636719 477.710938 300.277344 477.710938 282.871094 L 477.710938 215.507812 C 477.710938 206.65625 480.464844 199.972656 485.28125 197.21875 C 486.855469 196.234375 488.722656 195.839844 490.691406 195.839844 C 493.441406 195.839844 496.394531 196.726562 499.539062 198.496094 L 884.097656 420.550781 L 883.703125 420.550781 C 883.015625 420.550781 882.226562 420.453125 881.539062 420.453125 L 881.144531 420.453125 C 880.554688 420.453125 879.867188 420.453125 879.277344 420.453125 L 878.589844 420.453125 C 878 420.453125 877.410156 420.550781 876.820312 420.550781 L 876.328125 420.550781 C 875.640625 420.648438 874.851562 420.746094 874.164062 420.847656 L 873.671875 420.945312 C 873.082031 421.042969 872.589844 421.140625 872 421.238281 L 871.3125 421.335938 C 870.722656 421.4375 870.035156 421.632812 869.445312 421.730469 L 869.148438 421.828125 C 868.460938 422.027344 867.773438 422.222656 867.183594 422.417969 L 866.59375 422.617188 C 866.101562 422.8125 865.609375 422.910156 865.117188 423.109375 L 864.429688 423.402344 C 863.9375 423.597656 863.546875 423.796875 862.957031 423.992188 L 862.464844 424.1875 C 861.777344 424.484375 861.1875 424.78125 860.496094 425.074219 L 860.203125 425.171875 C 859.613281 425.46875 859.023438 425.761719 858.433594 426.058594 L 837.488281 437.464844 C 826.871094 443.265625 818.707031 453.101562 814.578125 465.394531 C 809.859375 479.164062 810.449219 494.996094 816.054688 509.648438 Z M 921.066406 621.363281 L 885.175781 549.378906 L 883.898438 549.671875 C 878.785156 550.65625 873.476562 550.851562 868.167969 550.066406 C 849.289062 547.410156 831.6875 533.9375 822.25 514.957031 C 814.480469 499.320312 812.90625 481.816406 818.019531 466.671875 C 822.148438 454.578125 830.410156 444.9375 841.128906 439.726562 C 842.109375 439.234375 842.996094 438.84375 843.980469 438.449219 C 844.078125 438.449219 844.175781 438.351562 844.273438 438.351562 C 846.238281 437.5625 848.207031 436.972656 850.273438 436.480469 C 850.371094 436.480469 850.46875 436.480469 850.46875 436.382812 C 852.53125 435.890625 854.695312 435.597656 856.859375 435.398438 C 856.957031 435.398438 856.957031 435.398438 857.054688 435.398438 C 859.121094 435.203125 861.285156 435.203125 863.449219 435.398438 C 863.644531 435.398438 863.839844 435.398438 864.136719 435.398438 C 865.117188 435.5 866.199219 435.597656 867.183594 435.695312 C 868.265625 435.890625 869.347656 436.089844 870.429688 436.285156 C 870.527344 436.285156 870.722656 436.382812 870.820312 436.382812 C 871.902344 436.582031 872.886719 436.875 873.96875 437.171875 C 874.066406 437.171875 874.261719 437.269531 874.363281 437.269531 C 875.441406 437.5625 876.425781 437.957031 877.507812 438.253906 C 877.605469 438.253906 877.605469 438.351562 877.703125 438.351562 C 888.914062 442.382812 899.140625 450.152344 906.710938 460.476562 C 906.808594 460.675781 907.007812 460.773438 907.105469 460.96875 C 907.597656 461.753906 908.1875 462.445312 908.679688 463.230469 C 908.972656 463.625 909.269531 464.117188 909.464844 464.507812 C 910.054688 465.394531 910.644531 466.378906 911.136719 467.261719 C 911.136719 467.359375 911.234375 467.359375 911.234375 467.460938 C 911.824219 468.542969 912.511719 469.722656 913.003906 470.804688 C 913.691406 472.277344 914.378906 473.753906 914.972656 475.226562 L 915.070312 475.425781 C 918.804688 484.570312 920.476562 494.011719 920.082031 503.15625 C 920.082031 503.253906 920.082031 503.253906 920.082031 503.355469 C 919.984375 504.730469 919.886719 506.109375 919.691406 507.582031 C 919.691406 507.679688 919.691406 507.878906 919.691406 507.976562 L 919.691406 508.074219 C 919.492188 509.351562 919.296875 510.632812 919.101562 511.910156 C 919.101562 512.007812 919.101562 512.203125 919.003906 512.304688 L 918.902344 512.695312 C 918.707031 513.777344 918.414062 514.957031 918.117188 516.039062 C 918.117188 516.136719 918.019531 516.335938 918.019531 516.433594 L 917.820312 517.023438 C 917.527344 518.105469 917.132812 519.089844 916.839844 520.070312 C 916.742188 520.269531 916.742188 520.464844 916.640625 520.664062 L 916.445312 521.152344 C 916.050781 522.136719 915.660156 523.21875 915.167969 524.203125 C 915.070312 524.496094 914.871094 524.792969 914.773438 524.988281 L 914.578125 525.285156 C 914.085938 526.269531 913.59375 527.152344 913.101562 528.039062 C 913.003906 528.234375 912.90625 528.332031 912.808594 528.53125 L 912.511719 529.019531 C 911.921875 530.003906 911.332031 530.890625 910.644531 531.875 C 910.644531 531.875 910.644531 531.972656 910.546875 531.972656 L 910.152344 532.464844 C 909.464844 533.445312 908.679688 534.429688 907.890625 535.316406 L 907.597656 535.609375 C 906.710938 536.59375 905.828125 537.578125 904.84375 538.460938 L 903.566406 539.152344 L 919.003906 570.03125 L 939.945312 611.921875 Z M 867.871094 455.460938 C 861.777344 454.578125 855.679688 455.460938 850.273438 458.117188 C 842.996094 461.65625 837.488281 468.050781 834.734375 476.113281 C 831.394531 485.949219 832.375 497.550781 837.390625 507.679688 C 843.585938 520.070312 855.089844 528.824219 867.480469 530.59375 C 868.953125 530.792969 870.429688 530.890625 872 530.890625 C 876.625 530.890625 881.046875 529.90625 885.078125 527.941406 C 892.355469 524.398438 897.863281 518.007812 900.613281 509.941406 C 903.957031 500.109375 902.976562 488.601562 897.960938 478.375 C 891.765625 465.984375 880.261719 457.132812 867.871094 455.460938 Z M 897.371094 508.761719 C 896.484375 511.320312 895.304688 513.777344 893.832031 515.941406 C 893.632812 515.941406 893.339844 515.941406 893.140625 515.941406 L 892.945312 515.941406 C 892.453125 515.941406 891.863281 515.941406 891.371094 515.84375 L 890.878906 515.84375 C 890.289062 515.84375 889.699219 515.746094 889.109375 515.648438 C 888.421875 515.546875 887.636719 515.449219 886.949219 515.253906 L 886.257812 515.058594 C 885.765625 514.957031 885.277344 514.859375 884.785156 514.664062 L 883.898438 514.367188 C 883.40625 514.269531 883.015625 514.074219 882.523438 513.875 C 882.226562 513.777344 881.933594 513.679688 881.636719 513.582031 C 881.144531 513.386719 880.753906 513.1875 880.359375 512.992188 L 880.164062 512.894531 C 879.867188 512.796875 879.574219 512.695312 879.375 512.5 L 878.882812 512.304688 C 878.292969 512.007812 877.703125 511.714844 877.113281 511.417969 C 876.523438 511.125 876.03125 510.730469 875.441406 510.433594 L 875.050781 510.140625 C 874.753906 509.941406 874.558594 509.84375 874.363281 509.648438 L 874.164062 509.453125 C 873.773438 509.15625 873.476562 508.960938 873.082031 508.664062 C 872.789062 508.46875 872.589844 508.269531 872.296875 508.074219 C 871.902344 507.78125 871.609375 507.484375 871.3125 507.191406 C 871.019531 506.992188 870.722656 506.699219 870.527344 506.5 C 870.230469 506.207031 870.035156 506.007812 869.738281 505.714844 C 869.445312 505.417969 869.148438 505.125 868.953125 504.925781 C 868.660156 504.632812 868.460938 504.335938 868.167969 504.140625 C 867.871094 503.847656 867.675781 503.550781 867.378906 503.257812 C 867.183594 502.960938 866.890625 502.664062 866.691406 502.371094 C 866.398438 502.074219 866.199219 501.78125 865.90625 501.386719 C 865.707031 501.09375 865.414062 500.796875 865.21875 500.503906 C 865.019531 500.207031 864.726562 499.8125 864.527344 499.519531 C 864.332031 499.222656 864.039062 498.832031 863.839844 498.4375 C 863.644531 498.140625 863.449219 497.75 863.25 497.453125 C 863.054688 497.058594 862.855469 496.765625 862.660156 496.371094 C 862.367188 495.878906 862.070312 495.289062 861.777344 494.699219 C 861.480469 494.011719 861.1875 493.421875 860.890625 492.734375 L 860.695312 492.144531 C 860.496094 491.652344 860.300781 491.160156 860.105469 490.667969 L 859.613281 489.292969 C 859.515625 488.996094 859.414062 488.703125 859.316406 488.40625 L 859.121094 487.71875 C 859.023438 487.421875 858.925781 487.128906 858.824219 486.832031 L 858.628906 486.144531 C 858.53125 485.847656 858.53125 485.554688 858.433594 485.257812 L 858.234375 484.570312 C 858.136719 484.277344 858.136719 483.980469 858.039062 483.6875 L 857.941406 482.996094 C 857.84375 482.703125 857.84375 482.308594 857.746094 481.914062 L 857.644531 481.425781 C 857.644531 481.03125 857.546875 480.734375 857.546875 480.34375 L 857.449219 479.851562 C 857.449219 479.359375 857.351562 478.769531 857.351562 478.277344 L 857.351562 478.082031 C 857.351562 477.589844 857.351562 477.195312 857.351562 476.703125 L 857.351562 476.210938 C 857.351562 475.917969 857.351562 475.523438 857.351562 475.226562 L 857.351562 474.636719 C 857.351562 474.34375 857.351562 474.046875 857.449219 473.753906 L 857.546875 473.164062 C 857.546875 472.867188 857.644531 472.574219 857.644531 472.277344 L 857.746094 471.589844 C 857.746094 471.292969 857.84375 471 857.84375 470.804688 L 858.234375 468.738281 C 858.335938 468.441406 858.335938 468.246094 858.433594 467.953125 L 858.628906 467.359375 C 858.726562 467.066406 858.824219 466.769531 858.925781 466.574219 L 859.121094 465.984375 C 859.21875 465.6875 859.316406 465.394531 859.414062 465.199219 L 859.613281 464.707031 C 859.710938 464.410156 859.808594 464.214844 860.003906 463.820312 L 860.203125 463.425781 C 860.398438 463.035156 860.597656 462.542969 860.890625 462.050781 C 861.085938 461.65625 861.285156 461.265625 861.480469 460.871094 L 861.675781 460.476562 C 861.875 460.183594 861.972656 459.984375 862.167969 459.691406 L 862.464844 459.199219 C 862.5625 459.101562 862.5625 459.003906 862.660156 459.003906 C 864.234375 459.003906 865.808594 459.003906 867.378906 459.296875 C 878.6875 460.871094 889.207031 468.933594 894.8125 480.34375 C 899.535156 489.191406 900.417969 499.714844 897.371094 508.761719 Z M 601.210938 305.292969 C 596.6875 302.738281 593.34375 301.65625 590.097656 301.261719 C 588.917969 301.066406 587.933594 301.949219 587.933594 303.621094 C 587.933594 305.6875 589.410156 308.246094 591.277344 309.328125 C 591.671875 309.523438 592.066406 309.71875 592.554688 309.816406 C 594.71875 310.113281 597.179688 310.898438 600.226562 312.671875 C 605.730469 315.914062 608.78125 320.636719 608.78125 326.242188 L 608.78125 327.226562 C 606.125 324.667969 603.371094 322.503906 599.539062 320.242188 C 591.082031 315.421875 585.378906 316.210938 585.378906 324.765625 L 585.378906 324.960938 C 585.378906 332.929688 591.082031 340.5 597.570312 344.140625 C 602.878906 347.1875 606.421875 346.695312 608.78125 344.828125 L 608.78125 346.304688 C 608.78125 348.367188 610.355469 351.023438 612.613281 352.300781 C 614.777344 353.582031 616.449219 352.695312 616.449219 350.136719 L 616.449219 330.667969 C 616.449219 325.554688 615.269531 320.636719 612.714844 316.308594 C 610.15625 312.078125 606.320312 308.34375 601.210938 305.292969 Z M 608.78125 335.484375 C 608.78125 340.5 604.847656 341.679688 599.636719 338.632812 C 595.898438 336.46875 592.949219 332.632812 592.949219 328.796875 L 592.949219 328.601562 C 592.949219 324.472656 595.898438 323.78125 601.011719 326.734375 C 604.160156 328.503906 606.8125 330.765625 608.878906 332.828125 L 608.878906 335.484375 Z M 563.058594 282.972656 C 553.226562 277.265625 546.246094 282.578125 546.246094 293.789062 L 546.246094 293.984375 C 546.246094 306.179688 553.914062 318.867188 563.941406 324.667969 C 569.253906 327.714844 573.1875 328.011719 576.332031 326.535156 C 576.921875 326.242188 577.414062 325.453125 577.414062 324.371094 C 577.414062 322.308594 576.039062 319.949219 574.269531 318.867188 C 573.382812 318.375 572.792969 318.375 572.203125 318.570312 C 569.941406 319.355469 567.382812 319.257812 564.042969 317.292969 C 558.929688 314.34375 554.996094 308.441406 554.109375 301.558594 L 575.644531 314.046875 C 577.710938 315.226562 579.378906 314.441406 579.378906 311.882812 C 579.378906 302.738281 573.972656 289.363281 563.058594 282.972656 Z M 554.109375 295.558594 C 554.800781 289.855469 558.242188 287.496094 563.058594 290.347656 C 568.269531 293.394531 571.316406 299.6875 571.808594 305.785156 Z M 540.050781 298.214844 L 540.050781 298.410156 C 540.050781 306.671875 534.445312 307.554688 527.265625 303.425781 C 522.941406 300.867188 518.121094 296.542969 514.191406 291.132812 C 513.304688 290.148438 512.714844 288.578125 512.714844 287.101562 C 512.714844 285.035156 514.089844 284.25 515.863281 285.332031 C 516.550781 285.722656 517.140625 286.316406 517.53125 286.804688 C 520.875 291.230469 524.316406 294.574219 527.464844 296.34375 C 530.808594 298.3125 532.773438 297.820312 532.773438 295.164062 L 532.773438 294.96875 C 532.773438 291.921875 529.136719 288.773438 525.105469 285.035156 C 519.992188 280.414062 514.386719 274.808594 514.386719 267.234375 L 514.386719 267.039062 C 514.386719 259.566406 519.792969 258.089844 526.675781 262.121094 C 530.316406 264.1875 534.148438 267.628906 537.492188 271.5625 C 538.574219 272.839844 539.363281 274.511719 539.363281 276.085938 C 539.363281 278.152344 537.886719 278.9375 536.117188 277.855469 C 535.429688 277.464844 535.035156 277.070312 534.542969 276.480469 C 531.789062 273.234375 528.839844 270.480469 526.480469 269.105469 C 523.433594 267.335938 521.664062 267.925781 521.664062 270.1875 L 521.664062 270.382812 C 521.664062 273.332031 525.398438 276.675781 529.429688 280.511719 C 534.347656 285.234375 540.050781 291.132812 540.050781 298.214844 Z M 719.59375 388.492188 L 719.59375 409.535156 C 719.59375 412.09375 717.921875 413.078125 715.660156 411.796875 C 713.398438 410.519531 711.730469 407.570312 711.730469 405.011719 L 711.730469 386.722656 C 711.730469 380.625 709.074219 375.511719 704.355469 372.855469 C 699.832031 370.199219 696.585938 372.066406 696.585938 378.164062 L 696.585938 396.359375 C 696.585938 398.914062 694.816406 399.800781 692.652344 398.523438 C 690.488281 397.242188 688.71875 394.292969 688.71875 391.738281 L 688.71875 345.417969 C 688.71875 342.960938 690.390625 341.878906 692.652344 343.15625 C 694.914062 344.433594 696.585938 347.484375 696.585938 349.941406 L 696.585938 366.953125 C 698.847656 364.59375 701.996094 363.21875 707.304688 366.265625 C 715.070312 370.789062 719.59375 379.34375 719.59375 388.492188 Z M 681.050781 383.871094 C 681.050781 385.050781 680.65625 385.835938 679.96875 386.03125 C 676.921875 387.605469 673.183594 387.703125 667.480469 384.460938 C 657.253906 378.558594 649.683594 364.988281 649.683594 353.777344 L 649.683594 353.582031 C 649.683594 342.371094 657.253906 337.355469 667.578125 343.351562 C 672.988281 346.5 676.722656 350.628906 679.675781 355.25 C 680.164062 356.039062 680.953125 357.613281 680.953125 359.085938 C 680.953125 361.449219 679.28125 362.234375 677.3125 361.054688 C 676.332031 360.464844 675.445312 359.578125 674.953125 358.792969 C 672.890625 355.644531 670.726562 352.988281 667.578125 351.21875 C 661.878906 347.875 657.648438 351.121094 657.648438 358.003906 L 657.648438 358.203125 C 657.648438 365.183594 661.878906 373.25 667.972656 376.789062 C 671.121094 378.558594 673.480469 378.558594 675.644531 377.671875 C 676.132812 377.476562 676.921875 377.378906 677.804688 377.96875 C 679.476562 379.050781 681.050781 381.707031 681.050781 383.871094 Z M 646.242188 335.78125 C 646.242188 338.140625 644.867188 338.925781 643.097656 338.335938 C 637.492188 336.171875 633.65625 338.925781 633.65625 348.269531 L 633.65625 359.972656 C 633.65625 362.429688 631.886719 363.414062 629.722656 362.136719 C 627.5625 360.855469 625.789062 357.90625 625.789062 355.351562 L 625.789062 324.078125 C 625.789062 321.519531 627.460938 320.539062 629.722656 321.816406 C 631.984375 323.09375 633.65625 326.144531 633.65625 328.699219 L 633.65625 332.730469 C 635.523438 328.894531 638.867188 327.027344 642.308594 329.09375 C 644.769531 330.46875 646.242188 333.222656 646.242188 335.78125 Z M 646.242188 335.78125 "/>
</g>
</g>
</svg>
